%
T1C.012F095S3
X00575Y006875
X00575Y01075
X0055Y01125
X00525Y01175
X004875Y0125
X005375Y0195
X005375Y0235
X00525Y0245
X001125Y025
X0015Y027
X006125Y025875
X008375Y023
X007875Y022625
X0085Y021875
X006875Y021625
X0085Y019125
X00625Y01025
X0065Y00975
X00675Y00925
X007Y00875
X0065Y0085
X00725Y00825
X0075Y00775
X00775Y00725
X007375Y005375
X009Y005125
X013375Y005125
X011125Y005375
X013Y00575
X012625Y006125
X011125Y006625
X012625Y01
X013Y01025
X012625Y01075
X008625Y0125
X008875Y013
X01325Y013375
X00925Y0135
X012875Y013875
X00925Y015125
X008625Y0155
X008875Y01575
X009125Y016625
X01025Y0185
X01175Y01975
X009125Y02
X0095Y02175
X013125Y02175
X01125Y021875
X009125Y022625
X012Y02325
X010375Y02325
X014875Y024
X0155Y02325
X018125Y022375
X014875Y021375
X016125Y02075
X015875Y020125
X017625Y019
X017375Y0185
X016375Y018125
X016875Y01775
X016625Y016375
X014125Y016375
X016375Y016125
X016125Y015875
X013625Y01575
X016875Y015375
X017125Y015125
X014875Y015125
X017375Y014875
X017625Y014625
X01675Y0145
X017875Y014375
X018125Y014125
X015125Y013375
X014875Y01075
X018375Y008
X0155Y00725
X013625Y007125
X017875Y006375
X0155Y00525
X01982Y00506
X01939Y0051
X02074Y00537
X01995Y00763
X020875Y00975
X020625Y01
X020375Y01025
X019375Y01075
X020125Y01125
X019875Y0115
X019625Y01175
X019375Y012
X019125Y01225
X018875Y0125
X018625Y01275
X020875Y02925
X020375Y031375
X020875Y032625
X021625Y032625
X023125Y032625
X022375Y032625
X022375Y02975
X021625Y0295
X023125Y029
X022Y02875
X02175Y02825
X02175Y02775
X022Y0275
X02225Y02725
X0225Y027
X022625Y0245
X02275Y024125
X02325Y023875
X02325Y0235
X0235Y02325
X0235Y02275
X023125Y01975
X023125Y0185
X023125Y015625
X021125Y0095
X021375Y00925
X021625Y009
X021875Y00875
X022125Y0085
X022375Y00825
X023Y00715
X02156Y00531
X024063Y007125
X024063Y007688
X026Y007688
X02605Y0092
X02595Y00945
X026Y01005
X023875Y015125
X023875Y0185
X024625Y0185
X023875Y01975
X024375Y01975
X024125Y02175
X025875Y021938
X023875Y022
X024125Y02225
X02375Y0225
X023875Y023
X0261Y02345
X0261Y0243
X024325Y02525
X024625Y0255
X02425Y02575
X02375Y026
X02425Y031375
X0275Y033375
X027Y03325
X02825Y033
X02805Y031
X0284Y031
X02635Y0309
X0284Y0306
X02635Y0306
X02805Y0306
X02635Y0243
X026125Y02375
X02695Y02355
X02725Y02355
X02665Y02355
X02695Y0228
X0262Y02265
X0268Y02255
X0271Y02255
X02775Y0225
X02795Y02235
X0283Y02235
X026188Y02225
X028Y021
X02825Y021
X02725Y01975
X026375Y01975
X02815Y01975
X02815Y01945
X02635Y01945
X02725Y01945
X02815Y01775
X02815Y01735
X0262Y01025
X027Y0094
X02665Y0094
X02735Y0094
X0273Y00825
X02705Y00825
X02775Y00825
X02795Y0081
X026313Y008
X02825Y008
X02715Y008
X02669Y00799
X02775Y00795
X02825Y006688
X028Y006688
X0281Y0055
X02725Y0055
X02635Y0055
X02635Y00525
X0281Y0052
X02725Y0052
X029Y0052
X029Y0055
X0298Y00725
X02955Y0074
X0298Y00755
X0289Y008
X02915Y0081
X0289Y0083
X02915Y0112
X0293Y01145
X02905Y01145
X02915Y01265
X0294Y0128
X02915Y01295
X029875Y018375
X0295Y018375
X029625Y018625
X029Y0194
X029Y0197
X0299Y0215
X03015Y02165
X0299Y0218
X02875Y0223
X02905Y0223
X0289Y02255
X0291Y0254
X02895Y02565
X02925Y02565
X02935Y0269
X0296Y02705
X02935Y0272
X02875Y0306
X02875Y031
X02925Y033
X0375Y02975
X0375Y02825
X0375Y02675
X0375Y02525
X0375Y02375
X0375Y02225
X0375Y02075
X0375Y01925
X0336Y01815
X0345Y01815
X03405Y01815
X03405Y017
X03425Y01675
X033875Y01675
X0375Y015375
X0375Y013875
X0375Y012375
X0375Y010875
X0375Y009375
X0375Y007875
X0375Y006375
X0375Y004875
T2C.025F197S55
X0215Y001875
X022Y007
X0215Y0075
X022Y0075
X0245Y034
X02525Y017
T3C.037F197S55
X041Y006
X041Y007
X041Y008
X041Y009
X041Y01
X041Y011
X041Y012
X041Y013
X041Y02025
X041Y02125
X041Y02225
X041Y02325
X041Y02425
X041Y02525
X041Y02625
X041Y02725
X042Y02725
X042Y02625
X042Y02525
X042Y02425
X042Y02325
X042Y02225
X042Y02125
X042Y02025
X042Y013
X042Y012
X042Y011
X042Y01
X042Y009
X042Y008
X042Y007
X042Y006
T4C.041F139S55
X00225Y0045
X00325Y0045
X00225Y0055
X00325Y0055
X00225Y0065
X00325Y0065
X00225Y0075
X00325Y0075
X00225Y0085
X00325Y0085
X00225Y0095
X00325Y0095
X00225Y0105
X00325Y0105
X00225Y0115
X00325Y0115
X00225Y0125
X00325Y0125
X00225Y0135
X00325Y0135
X00225Y0145
X00325Y0145
X00225Y0155
X00325Y0155
X00225Y0165
X00325Y0165
X00225Y0175
X00325Y0175
X00225Y0185
X00325Y0185
X00225Y0195
X00325Y0195
X00225Y0205
X00325Y0205
X00225Y0215
X00325Y0215
X00225Y0225
X00325Y0225
X00225Y0235
X00325Y0235
X00225Y0245
X00325Y0245
X00225Y0255
X00325Y0255
X00225Y0265
X00325Y0265
X00225Y0275
X00325Y0275
X00225Y0285
X00325Y0285
X00225Y0295
X00325Y0295
X00225Y0305
X00325Y0305
X00225Y0315
X00325Y0315
X00225Y0325
X00325Y0325
X00225Y0335
X00325Y0335
X00225Y0345
X00325Y0345
X00225Y0355
X00325Y0355
X00425Y0355
X00425Y0345
X00425Y0335
X00425Y0325
X00425Y0315
X00425Y0305
X00425Y0295
X00425Y0285
X00425Y0275
X00425Y0265
X00425Y0255
X00425Y0245
X00425Y0235
X00425Y0225
X00425Y0215
X00425Y0205
X00425Y0195
X00425Y0185
X006Y0185
X00425Y0175
X006Y0175
X00425Y0165
X00425Y0155
X00425Y0145
X00425Y0135
X00425Y0125
X00425Y0115
X00425Y0105
X00425Y0095
X00425Y0085
X00425Y0075
X00425Y0065
X00425Y0055
X00425Y0045
X012875Y01575
X01075Y019
X013Y02075
X01025Y0215
X01375Y022375
X01575Y025
X023375Y0265
X024375Y0265
X016625Y013375
X024625Y012875
T5C.06F089S55
X008125Y002
X006125Y002
X007125Y003
X006125Y004
X008125Y004
X0075Y0245
X0085Y0255
X0075Y0265
X00925Y03
X01275Y03
X01125Y03
X01025Y029
X00925Y028
X01275Y028
X01125Y028
X011Y0265
X0095Y0265
X013Y0265
X012Y0255
X011Y0245
X013Y0245
X0095Y0245
X011625Y004
X013125Y004
X009625Y004
X010625Y003
X009625Y002
X013125Y002
X011625Y002
X015125Y002
X014125Y003
X017406Y003
X015125Y004
X01475Y028
X01825Y028
X01625Y028
X01725Y029
X01375Y029
X01825Y03
X01475Y03
X01625Y03
X03075Y036
X032719Y036
X019375Y003
X04Y002
X041Y003
X04Y004
X04Y01625
X041Y01725
X04Y01825
X042Y01825
X042Y01625
X042Y004
X042Y002
T6C.118F069S658
X00125Y0025
X00125Y0375
M30
