*
*
G04 PADS9.0.1 Build Number: 350951 generated Gerber (RS-274-X) file*
G04 PC Version=2.1*
*
%IN "AD7606 x2 A.pcb"*%
*
%MOIN*%
*
%FSLAX35Y35*%
*
*
*
*
G04 PC Standard Apertures*
*
*
G04 Thermal Relief Aperture macro.*
%AMTER*
1,1,$1,0,0*
1,0,$1-$2,0,0*
21,0,$3,$4,0,0,45*
21,0,$3,$4,0,0,135*
%
*
*
G04 Annular Aperture macro.*
%AMANN*
1,1,$1,0,0*
1,0,$2,0,0*
%
*
*
G04 Odd Aperture macro.*
%AMODD*
1,1,$1,0,0*
1,0,$1-0.005,0,0*
%
*
*
G04 PC Custom Aperture Macros*
*
*
*
*
*
*
G04 PC Aperture Table*
*
%ADD011R,0.06X0.06*%
%ADD012C,0.06*%
%ADD018C,0.01*%
%ADD019C,0.007*%
%ADD026C,0.1*%
%ADD045C,0.001*%
%ADD167C,0.118*%
%ADD168R,0.02953X0.0315*%
*
*
*
*
G04 PC Circuitry*
G04 Layer Name AD7606 x2 A.pcb - circuitry*
%LPD*%
*
*
G04 PC Custom Flashes*
G04 Layer Name AD7606 x2 A.pcb - flashes*
%LPD*%
*
*
G04 PC Circuitry*
G04 Layer Name AD7606 x2 A.pcb - circuitry*
%LPD*%
*
G54D11*
G01X1737250Y1444450D03*
X2134750Y1459450D03*
Y1601950D03*
G54D12*
X1844750Y1606950D03*
X1737250Y1454450D03*
Y1464450D03*
Y1474450D03*
Y1484450D03*
Y1494450D03*
Y1504450D03*
Y1514450D03*
Y1524450D03*
Y1534450D03*
Y1544450D03*
Y1554450D03*
Y1564450D03*
Y1574450D03*
Y1584450D03*
Y1594450D03*
Y1604450D03*
Y1614450D03*
Y1624450D03*
Y1634450D03*
Y1644450D03*
Y1654450D03*
Y1664450D03*
Y1674450D03*
Y1684450D03*
Y1694450D03*
Y1704450D03*
Y1714450D03*
Y1724450D03*
Y1734450D03*
Y1744450D03*
Y1754450D03*
X1747250Y1444450D03*
Y1454450D03*
Y1464450D03*
Y1474450D03*
Y1484450D03*
Y1494450D03*
Y1504450D03*
Y1514450D03*
Y1524450D03*
Y1534450D03*
Y1544450D03*
Y1554450D03*
Y1564450D03*
Y1574450D03*
Y1584450D03*
Y1594450D03*
Y1604450D03*
Y1614450D03*
Y1624450D03*
Y1634450D03*
Y1644450D03*
Y1654450D03*
Y1664450D03*
Y1674450D03*
Y1684450D03*
Y1694450D03*
Y1704450D03*
Y1714450D03*
Y1724450D03*
Y1734450D03*
Y1744450D03*
Y1754450D03*
X1757250Y1444450D03*
Y1454450D03*
Y1464450D03*
Y1474450D03*
Y1484450D03*
Y1494450D03*
Y1504450D03*
Y1514450D03*
Y1524450D03*
Y1534450D03*
Y1544450D03*
Y1554450D03*
Y1564450D03*
Y1574450D03*
Y1584450D03*
Y1594450D03*
Y1604450D03*
Y1614450D03*
Y1624450D03*
Y1634450D03*
Y1644450D03*
Y1654450D03*
Y1664450D03*
Y1674450D03*
Y1684450D03*
Y1694450D03*
Y1704450D03*
Y1714450D03*
Y1724450D03*
Y1734450D03*
Y1744450D03*
Y1754450D03*
X1774750Y1584450D03*
X1881000Y1533200D03*
X1961000Y1528200D03*
X1852250Y1623200D03*
X1774750Y1574450D03*
X1843500Y1556950D03*
X1817250Y1614450D03*
X1822250Y1589450D03*
X1948500Y1664450D03*
X1958500D03*
X1872250Y1649450D03*
X2124750Y1459450D03*
X2134750Y1469450D03*
X2124750D03*
X2134750Y1479450D03*
X2124750D03*
X2134750Y1489450D03*
X2124750D03*
X2134750Y1499450D03*
X2124750D03*
X2134750Y1509450D03*
X2124750D03*
X2134750Y1519450D03*
X2124750D03*
X2134750Y1529450D03*
X2124750D03*
Y1601950D03*
X2134750Y1611950D03*
X2124750D03*
X2134750Y1621950D03*
X2124750D03*
X2134750Y1631950D03*
X2124750D03*
X2134750Y1641950D03*
X2124750D03*
X2134750Y1651950D03*
X2124750D03*
X2134750Y1661950D03*
X2124750D03*
X2134750Y1671950D03*
X2124750D03*
G54D18*
X1712250Y1386013D02*
Y1379450D01*
Y1386013D02*
X1713841D01*
X1713841D02*
X1714523Y1385700D01*
X1714977Y1385075*
X1715205Y1384450*
X1715432Y1383513*
X1715432D02*
Y1381950D01*
X1715205Y1381013*
X1715205D02*
X1714977Y1380388D01*
X1714977D02*
X1714523Y1379763D01*
X1714523D02*
X1713841Y1379450D01*
X1712250*
X1717477Y1383825D02*
Y1380700D01*
X1717705Y1379763*
X1717705D02*
X1718159Y1379450D01*
X1718841*
X1719295Y1379763*
X1719295D02*
X1719977Y1380700D01*
Y1383825D02*
Y1379450D01*
X1724750Y1383825D02*
Y1379450D01*
Y1382888D02*
X1724295Y1383513D01*
X1724295D02*
X1723841Y1383825D01*
X1723159*
X1722705Y1383513*
X1722705D02*
X1722250Y1382888D01*
X1722250D02*
X1722023Y1381950D01*
Y1381325*
X1722250Y1380388*
X1722250D02*
X1722705Y1379763D01*
X1722705D02*
X1723159Y1379450D01*
X1723841*
X1724295Y1379763*
X1724295D02*
X1724750Y1380388D01*
X1726795Y1386013D02*
Y1379450D01*
X1735886Y1386013D02*
X1734068Y1379450D01*
X1735886Y1386013D02*
X1737705Y1379450D01*
X1734750Y1381638D02*
X1737023D01*
X1739750Y1386013D02*
Y1379450D01*
Y1386013D02*
X1741341D01*
X1741341D02*
X1742023Y1385700D01*
X1742477Y1385075*
X1742705Y1384450*
X1742932Y1383513*
X1742932D02*
Y1381950D01*
X1742705Y1381013*
X1742705D02*
X1742477Y1380388D01*
X1742477D02*
X1742023Y1379763D01*
X1742023D02*
X1741341Y1379450D01*
X1739750*
X1748159Y1386013D02*
X1745886Y1379450D01*
X1744977Y1386013D02*
X1748159D01*
X1752932Y1385075D02*
X1752705Y1385700D01*
X1752023Y1386013*
X1752023D02*
X1751568D01*
X1751568D02*
X1750886Y1385700D01*
X1750432Y1384763*
X1750432D02*
X1750205Y1383200D01*
Y1381638*
X1750205D02*
X1750432Y1380388D01*
X1750432D02*
X1750886Y1379763D01*
X1750886D02*
X1751568Y1379450D01*
X1751795*
X1752477Y1379763*
X1752477D02*
X1752932Y1380388D01*
X1752932D02*
X1753159Y1381325D01*
Y1381638*
X1753159D02*
X1752932Y1382575D01*
X1752477Y1383200*
X1751795Y1383513*
X1751795D02*
X1751568D01*
X1751568D02*
X1750886Y1383200D01*
X1750432Y1382575*
X1750205Y1381638*
X1756568Y1386013D02*
X1755886Y1385700D01*
X1755432Y1384763*
X1755432D02*
X1755205Y1383200D01*
Y1382263*
X1755205D02*
X1755432Y1380700D01*
X1755886Y1379763*
X1755886D02*
X1756568Y1379450D01*
X1757023*
X1757705Y1379763*
X1757705D02*
X1758159Y1380700D01*
X1758386Y1382263*
X1758386D02*
Y1383200D01*
X1758159Y1384763*
X1758159D02*
X1757705Y1385700D01*
X1757023Y1386013*
X1757023D02*
X1756568D01*
X1763159Y1385075D02*
X1762932Y1385700D01*
X1762250Y1386013*
X1762250D02*
X1761795D01*
X1761795D02*
X1761114Y1385700D01*
X1760659Y1384763*
X1760659D02*
X1760432Y1383200D01*
Y1381638*
X1760432D02*
X1760659Y1380388D01*
X1760659D02*
X1761114Y1379763D01*
X1761114D02*
X1761795Y1379450D01*
X1762023*
X1762705Y1379763*
X1762705D02*
X1763159Y1380388D01*
X1763159D02*
X1763386Y1381325D01*
Y1381638*
X1763386D02*
X1763159Y1382575D01*
X1762705Y1383200*
X1762023Y1383513*
X1762023D02*
X1761795D01*
X1761795D02*
X1761114Y1383200D01*
X1760659Y1382575*
X1760432Y1381638*
X1770659Y1386013D02*
Y1379450D01*
Y1386013D02*
X1773614D01*
X1770659Y1382888D02*
X1772477D01*
X1770659Y1379450D02*
X1773614D01*
X1775659Y1386013D02*
Y1379450D01*
Y1386013D02*
X1777250D01*
X1777250D02*
X1777932Y1385700D01*
X1778386Y1385075*
X1778614Y1384450*
X1778841Y1383513*
X1778841D02*
Y1381950D01*
X1778614Y1381013*
X1778614D02*
X1778386Y1380388D01*
X1778386D02*
X1777932Y1379763D01*
X1777932D02*
X1777250Y1379450D01*
X1775659*
X1784068Y1386013D02*
X1780886Y1379450D01*
Y1386013D02*
X1784068D01*
X1780886Y1379450D02*
X1784068D01*
X1792932Y1387263D02*
X1792477Y1386638D01*
X1792477D02*
X1792023Y1385700D01*
X1791568Y1384450*
X1791341Y1382888*
X1791341D02*
Y1381638D01*
X1791341D02*
X1791568Y1380075D01*
X1792023Y1378825*
X1792477Y1377887*
X1792477D02*
X1792932Y1377262D01*
X1794977Y1386013D02*
Y1379450D01*
Y1386013D02*
X1797023D01*
X1797023D02*
X1797705Y1385700D01*
X1797932Y1385388*
X1797932D02*
X1798159Y1384763D01*
X1798159D02*
Y1384138D01*
X1798159D02*
X1797932Y1383513D01*
X1797932D02*
X1797705Y1383200D01*
X1797023Y1382888*
X1797023D02*
X1794977D01*
X1796568D02*
X1798159Y1379450D01*
X1800205Y1381950D02*
X1802932D01*
Y1382575*
X1802705Y1383200*
X1802477Y1383513*
X1802477D02*
X1802023Y1383825D01*
X1801341*
X1800886Y1383513*
X1800886D02*
X1800432Y1382888D01*
X1800432D02*
X1800205Y1381950D01*
Y1381325*
X1800432Y1380388*
X1800432D02*
X1800886Y1379763D01*
X1800886D02*
X1801341Y1379450D01*
X1802023*
X1802477Y1379763*
X1802477D02*
X1802932Y1380388D01*
X1804977Y1383825D02*
X1806341Y1379450D01*
X1807705Y1383825D02*
X1806341Y1379450D01*
X1809977Y1380075D02*
X1809750Y1379763D01*
X1809750D02*
X1809977Y1379450D01*
X1810205Y1379763*
X1810205D02*
X1809977Y1380075D01*
X1819295Y1386013D02*
X1817477Y1379450D01*
X1819295Y1386013D02*
X1821114Y1379450D01*
X1818159Y1381638D02*
X1820432D01*
X1823159Y1387263D02*
X1823614Y1386638D01*
X1823614D02*
X1824068Y1385700D01*
X1824523Y1384450*
X1824750Y1382888*
X1824750D02*
Y1381638D01*
X1824750D02*
X1824523Y1380075D01*
X1824068Y1378825*
X1823614Y1377887*
X1823614D02*
X1823159Y1377262D01*
X1832023Y1382263D02*
X1836114D01*
X1846795Y1384450D02*
X1846568Y1385075D01*
X1846114Y1385700*
X1845659Y1386013*
X1845659D02*
X1844750D01*
X1844750D02*
X1844295Y1385700D01*
X1843841Y1385075*
X1843614Y1384450*
X1843386Y1383513*
X1843386D02*
Y1381950D01*
X1843614Y1381013*
X1843614D02*
X1843841Y1380388D01*
X1843841D02*
X1844295Y1379763D01*
X1844295D02*
X1844750Y1379450D01*
X1845659*
X1846114Y1379763*
X1846114D02*
X1846568Y1380388D01*
X1846568D02*
X1846795Y1381013D01*
X1849977Y1383825D02*
X1849523Y1383513D01*
X1849523D02*
X1849068Y1382888D01*
X1849068D02*
X1848841Y1381950D01*
Y1381325*
X1849068Y1380388*
X1849068D02*
X1849523Y1379763D01*
X1849523D02*
X1849977Y1379450D01*
X1850659*
X1851114Y1379763*
X1851114D02*
X1851568Y1380388D01*
X1851568D02*
X1851795Y1381325D01*
Y1381950*
X1851568Y1382888*
X1851568D02*
X1851114Y1383513D01*
X1851114D02*
X1850659Y1383825D01*
X1849977*
X1853841D02*
Y1379450D01*
Y1382575D02*
X1854523Y1383513D01*
X1854523D02*
X1854977Y1383825D01*
X1855659*
X1856114Y1383513*
X1856114D02*
X1856341Y1382575D01*
Y1379450*
Y1382575D02*
X1857023Y1383513D01*
X1857023D02*
X1857477Y1383825D01*
X1858159*
X1858614Y1383513*
X1858614D02*
X1858841Y1382575D01*
Y1379450*
X1860886Y1383825D02*
Y1377262D01*
Y1382888D02*
X1861341Y1383513D01*
X1861341D02*
X1861795Y1383825D01*
X1862477*
X1862932Y1383513*
X1862932D02*
X1863386Y1382888D01*
X1863386D02*
X1863614Y1381950D01*
Y1381325*
X1863386Y1380388*
X1863386D02*
X1862932Y1379763D01*
X1862932D02*
X1862477Y1379450D01*
X1861795*
X1861341Y1379763*
X1861341D02*
X1860886Y1380388D01*
X1866795Y1383825D02*
X1866341Y1383513D01*
X1866341D02*
X1865886Y1382888D01*
X1865886D02*
X1865659Y1381950D01*
Y1381325*
X1865886Y1380388*
X1865886D02*
X1866341Y1379763D01*
X1866341D02*
X1866795Y1379450D01*
X1867477*
X1867932Y1379763*
X1867932D02*
X1868386Y1380388D01*
X1868386D02*
X1868614Y1381325D01*
Y1381950*
X1868386Y1382888*
X1868386D02*
X1867932Y1383513D01*
X1867932D02*
X1867477Y1383825D01*
X1866795*
X1870659D02*
Y1379450D01*
Y1382575D02*
X1871341Y1383513D01*
X1871341D02*
X1871795Y1383825D01*
X1872477*
X1872932Y1383513*
X1872932D02*
X1873159Y1382575D01*
Y1379450*
X1875205Y1381950D02*
X1877932D01*
Y1382575*
X1877705Y1383200*
X1877477Y1383513*
X1877477D02*
X1877023Y1383825D01*
X1876341*
X1875886Y1383513*
X1875886D02*
X1875432Y1382888D01*
X1875432D02*
X1875205Y1381950D01*
Y1381325*
X1875432Y1380388*
X1875432D02*
X1875886Y1379763D01*
X1875886D02*
X1876341Y1379450D01*
X1877023*
X1877477Y1379763*
X1877477D02*
X1877932Y1380388D01*
X1879977Y1383825D02*
Y1379450D01*
Y1382575D02*
X1880659Y1383513D01*
X1880659D02*
X1881114Y1383825D01*
X1881795*
X1882250Y1383513*
X1882250D02*
X1882477Y1382575D01*
Y1379450*
X1885205Y1386013D02*
Y1380700D01*
X1885432Y1379763*
X1885432D02*
X1885886Y1379450D01*
X1886341*
X1884523Y1383825D02*
X1886114D01*
X1896795Y1385075D02*
X1896341Y1385700D01*
X1895659Y1386013*
X1895659D02*
X1894750D01*
X1894750D02*
X1894068Y1385700D01*
X1893614Y1385075*
Y1384450*
X1893841Y1383825*
X1894068Y1383513*
X1894068D02*
X1894523Y1383200D01*
X1895886Y1382575*
X1896341Y1382263*
X1896341D02*
X1896568Y1381950D01*
X1896795Y1381325*
Y1380388*
X1896795D02*
X1896341Y1379763D01*
X1896341D02*
X1895659Y1379450D01*
X1894750*
X1894068Y1379763*
X1894068D02*
X1893614Y1380388D01*
X1898841Y1386013D02*
X1899068Y1385700D01*
X1899295Y1386013*
X1899295D02*
X1899068Y1386325D01*
X1898841Y1386013*
X1899068Y1383825D02*
Y1379450D01*
X1904068Y1386013D02*
Y1379450D01*
Y1382888D02*
X1903614Y1383513D01*
X1903614D02*
X1903159Y1383825D01*
X1902477*
X1902023Y1383513*
X1902023D02*
X1901568Y1382888D01*
X1901568D02*
X1901341Y1381950D01*
Y1381325*
X1901568Y1380388*
X1901568D02*
X1902023Y1379763D01*
X1902023D02*
X1902477Y1379450D01*
X1903159*
X1903614Y1379763*
X1903614D02*
X1904068Y1380388D01*
X1906114Y1381950D02*
X1908841D01*
Y1382575*
X1908614Y1383200*
X1908386Y1383513*
X1908386D02*
X1907932Y1383825D01*
X1907250*
X1906795Y1383513*
X1906795D02*
X1906341Y1382888D01*
X1906341D02*
X1906114Y1381950D01*
Y1381325*
X1906341Y1380388*
X1906341D02*
X1906795Y1379763D01*
X1906795D02*
X1907250Y1379450D01*
X1907932*
X1908386Y1379763*
X1908386D02*
X1908841Y1380388D01*
X1916114Y1386013D02*
X1917932Y1379450D01*
X1919750Y1386013D02*
X1917932Y1379450D01*
X1921795Y1386013D02*
X1922023Y1385700D01*
X1922250Y1386013*
X1922250D02*
X1922023Y1386325D01*
X1921795Y1386013*
X1922023Y1383825D02*
Y1379450D01*
X1924295Y1381950D02*
X1927023D01*
Y1382575*
X1926795Y1383200*
X1926568Y1383513*
X1926568D02*
X1926114Y1383825D01*
X1925432*
X1924977Y1383513*
X1924977D02*
X1924523Y1382888D01*
X1924523D02*
X1924295Y1381950D01*
Y1381325*
X1924523Y1380388*
X1924523D02*
X1924977Y1379763D01*
X1924977D02*
X1925432Y1379450D01*
X1926114*
X1926568Y1379763*
X1926568D02*
X1927023Y1380388D01*
X1929068Y1383825D02*
X1929977Y1379450D01*
X1930886Y1383825D02*
X1929977Y1379450D01*
X1930886Y1383825D02*
X1931795Y1379450D01*
X1932705Y1383825D02*
X1931795Y1379450D01*
X2097932Y1355075D02*
X2097477Y1355700D01*
X2096795Y1356013*
X2096795D02*
X2095886D01*
X2095886D02*
X2095205Y1355700D01*
X2094750Y1355075*
Y1354450*
X2094977Y1353825*
X2095205Y1353513*
X2095205D02*
X2095659Y1353200D01*
X2097023Y1352575*
X2097477Y1352263*
X2097477D02*
X2097705Y1351950D01*
X2097932Y1351325*
Y1350388*
X2097932D02*
X2097477Y1349763D01*
X2097477D02*
X2096795Y1349450D01*
X2095886*
X2095205Y1349763*
X2095205D02*
X2094750Y1350388D01*
X2101114Y1353825D02*
X2100659Y1353513D01*
X2100659D02*
X2100205Y1352888D01*
X2100205D02*
X2099977Y1351950D01*
Y1351325*
X2100205Y1350388*
X2100205D02*
X2100659Y1349763D01*
X2100659D02*
X2101114Y1349450D01*
X2101795*
X2102250Y1349763*
X2102250D02*
X2102705Y1350388D01*
X2102705D02*
X2102932Y1351325D01*
Y1351950*
X2102705Y1352888*
X2102705D02*
X2102250Y1353513D01*
X2102250D02*
X2101795Y1353825D01*
X2101114*
X2104977Y1356013D02*
Y1349450D01*
X2109750Y1356013D02*
Y1349450D01*
Y1352888D02*
X2109295Y1353513D01*
X2109295D02*
X2108841Y1353825D01*
X2108159*
X2107705Y1353513*
X2107705D02*
X2107250Y1352888D01*
X2107250D02*
X2107023Y1351950D01*
Y1351325*
X2107250Y1350388*
X2107250D02*
X2107705Y1349763D01*
X2107705D02*
X2108159Y1349450D01*
X2108841*
X2109295Y1349763*
X2109295D02*
X2109750Y1350388D01*
X2111795Y1351950D02*
X2114523D01*
Y1352575*
X2114295Y1353200*
X2114068Y1353513*
X2114068D02*
X2113614Y1353825D01*
X2112932*
X2112477Y1353513*
X2112477D02*
X2112023Y1352888D01*
X2112023D02*
X2111795Y1351950D01*
Y1351325*
X2112023Y1350388*
X2112023D02*
X2112477Y1349763D01*
X2112477D02*
X2112932Y1349450D01*
X2113614*
X2114068Y1349763*
X2114068D02*
X2114523Y1350388D01*
X2116568Y1353825D02*
Y1349450D01*
Y1351950D02*
X2116795Y1352888D01*
X2116795D02*
X2117250Y1353513D01*
X2117250D02*
X2117705Y1353825D01*
X2118386*
X2128841Y1355075D02*
X2128386Y1355700D01*
X2127705Y1356013*
X2127705D02*
X2126795D01*
X2126795D02*
X2126114Y1355700D01*
X2125659Y1355075*
Y1354450*
X2125886Y1353825*
X2126114Y1353513*
X2126114D02*
X2126568Y1353200D01*
X2127932Y1352575*
X2128386Y1352263*
X2128386D02*
X2128614Y1351950D01*
X2128841Y1351325*
Y1350388*
X2128841D02*
X2128386Y1349763D01*
X2128386D02*
X2127705Y1349450D01*
X2126795*
X2126114Y1349763*
X2126114D02*
X2125659Y1350388D01*
X2130886Y1356013D02*
X2131114Y1355700D01*
X2131341Y1356013*
X2131341D02*
X2131114Y1356325D01*
X2130886Y1356013*
X2131114Y1353825D02*
Y1349450D01*
X2136114Y1356013D02*
Y1349450D01*
Y1352888D02*
X2135659Y1353513D01*
X2135659D02*
X2135205Y1353825D01*
X2134523*
X2134068Y1353513*
X2134068D02*
X2133614Y1352888D01*
X2133614D02*
X2133386Y1351950D01*
Y1351325*
X2133614Y1350388*
X2133614D02*
X2134068Y1349763D01*
X2134068D02*
X2134523Y1349450D01*
X2135205*
X2135659Y1349763*
X2135659D02*
X2136114Y1350388D01*
X2138159Y1351950D02*
X2140886D01*
Y1352575*
X2140659Y1353200*
X2140432Y1353513*
X2140432D02*
X2139977Y1353825D01*
X2139295*
X2138841Y1353513*
X2138841D02*
X2138386Y1352888D01*
X2138386D02*
X2138159Y1351950D01*
Y1351325*
X2138386Y1350388*
X2138386D02*
X2138841Y1349763D01*
X2138841D02*
X2139295Y1349450D01*
X2139977*
X2140432Y1349763*
X2140432D02*
X2140886Y1350388D01*
X2151341Y1355075D02*
X2150886Y1355700D01*
X2150205Y1356013*
X2150205D02*
X2149295D01*
X2149295D02*
X2148614Y1355700D01*
X2148159Y1355075*
Y1354450*
X2148386Y1353825*
X2148614Y1353513*
X2148614D02*
X2149068Y1353200D01*
X2150432Y1352575*
X2150886Y1352263*
X2150886D02*
X2151114Y1351950D01*
X2151341Y1351325*
Y1350388*
X2151341D02*
X2150886Y1349763D01*
X2150886D02*
X2150205Y1349450D01*
X2149295*
X2148614Y1349763*
X2148614D02*
X2148159Y1350388D01*
X2154523Y1353825D02*
X2154068Y1353513D01*
X2154068D02*
X2153614Y1352888D01*
X2153614D02*
X2153386Y1351950D01*
Y1351325*
X2153614Y1350388*
X2153614D02*
X2154068Y1349763D01*
X2154068D02*
X2154523Y1349450D01*
X2155205*
X2155659Y1349763*
X2155659D02*
X2156114Y1350388D01*
X2156114D02*
X2156341Y1351325D01*
Y1351950*
X2156114Y1352888*
X2156114D02*
X2155659Y1353513D01*
X2155659D02*
X2155205Y1353825D01*
X2154523*
X2158386Y1356013D02*
Y1349450D01*
X2163159Y1356013D02*
Y1349450D01*
Y1352888D02*
X2162705Y1353513D01*
X2162705D02*
X2162250Y1353825D01*
X2161568*
X2161114Y1353513*
X2161114D02*
X2160659Y1352888D01*
X2160659D02*
X2160432Y1351950D01*
Y1351325*
X2160659Y1350388*
X2160659D02*
X2161114Y1349763D01*
X2161114D02*
X2161568Y1349450D01*
X2162250*
X2162705Y1349763*
X2162705D02*
X2163159Y1350388D01*
X2165205Y1351950D02*
X2167932D01*
Y1352575*
X2167705Y1353200*
X2167477Y1353513*
X2167477D02*
X2167023Y1353825D01*
X2166341*
X2165886Y1353513*
X2165886D02*
X2165432Y1352888D01*
X2165432D02*
X2165205Y1351950D01*
Y1351325*
X2165432Y1350388*
X2165432D02*
X2165886Y1349763D01*
X2165886D02*
X2166341Y1349450D01*
X2167023*
X2167477Y1349763*
X2167477D02*
X2167932Y1350388D01*
X2169977Y1353825D02*
Y1349450D01*
Y1351950D02*
X2170205Y1352888D01*
X2170205D02*
X2170659Y1353513D01*
X2170659D02*
X2171114Y1353825D01*
X2171795*
X2173841D02*
Y1349450D01*
Y1352575D02*
X2174523Y1353513D01*
X2174523D02*
X2174977Y1353825D01*
X2175659*
X2176114Y1353513*
X2176114D02*
X2176341Y1352575D01*
Y1349450*
Y1352575D02*
X2177023Y1353513D01*
X2177023D02*
X2177477Y1353825D01*
X2178159*
X2178614Y1353513*
X2178614D02*
X2178841Y1352575D01*
Y1349450*
X2183614Y1353825D02*
Y1349450D01*
Y1352888D02*
X2183159Y1353513D01*
X2183159D02*
X2182705Y1353825D01*
X2182023*
X2181568Y1353513*
X2181568D02*
X2181114Y1352888D01*
X2181114D02*
X2180886Y1351950D01*
Y1351325*
X2181114Y1350388*
X2181114D02*
X2181568Y1349763D01*
X2181568D02*
X2182023Y1349450D01*
X2182705*
X2183159Y1349763*
X2183159D02*
X2183614Y1350388D01*
X2188159Y1352888D02*
X2187932Y1353513D01*
X2187932D02*
X2187250Y1353825D01*
X2186568*
X2185886Y1353513*
X2185886D02*
X2185659Y1352888D01*
X2185659D02*
X2185886Y1352263D01*
X2185886D02*
X2186341Y1351950D01*
X2187477Y1351638*
X2187477D02*
X2187932Y1351325D01*
X2188159Y1350700*
Y1350388*
X2188159D02*
X2187932Y1349763D01*
X2187932D02*
X2187250Y1349450D01*
X2186568*
X2185886Y1349763*
X2185886D02*
X2185659Y1350388D01*
X2190205Y1356013D02*
Y1349450D01*
X2192477Y1353825D02*
X2190205Y1350700D01*
X2191114Y1351950D02*
X2192705Y1349450D01*
G54D19*
X1662250Y1849450D02*
Y1849950D01*
Y1849450D02*
X1662750D01*
X1662250D02*
Y1848950D01*
Y1849450D02*
X1661750D01*
X1663750D02*
X1668750D01*
X1662250Y1847950D02*
Y1844550D01*
Y1850950D02*
Y1855450D01*
X1656250Y1849450D02*
X1660750D01*
X1665250D02*
G75*
G03X1665250I-3000J0D01*
G01X1664250D02*
G03X1664250I-2000J0D01*
G01X2337250D02*
Y1849950D01*
Y1849450D02*
X2337750D01*
X2337250D02*
Y1848950D01*
Y1849450D02*
X2336750D01*
X2338750D02*
X2343750D01*
X2337250Y1847950D02*
Y1844550D01*
Y1850950D02*
Y1855450D01*
X2331250Y1849450D02*
X2335750D01*
X2340250D02*
G03X2340250I-3000J0D01*
G01X2339250D02*
G03X2339250I-2000J0D01*
G01X1662250Y1349450D02*
Y1349950D01*
Y1349450D02*
X1662750D01*
X1662250D02*
Y1348950D01*
Y1349450D02*
X1661750D01*
X1663750D02*
X1668750D01*
X1662250Y1347950D02*
Y1344550D01*
Y1350950D02*
Y1355450D01*
X1656250Y1349450D02*
X1660750D01*
X1665250D02*
G03X1665250I-3000J0D01*
G01X1664250D02*
G03X1664250I-2000J0D01*
G54D26*
G01X1908500Y1429450D03*
X1888815D03*
X2022250Y1759450D03*
X2041935D03*
X1817250Y1689450D03*
X1807250Y1699450D03*
X1827250D03*
Y1679450D03*
X1807250D03*
X1799750Y1654450D03*
X1789750Y1664450D03*
X1809750D03*
Y1644450D03*
X1789750D03*
X1834750Y1654450D03*
X1824750Y1664450D03*
X1844750D03*
Y1644450D03*
X1824750D03*
X1852250Y1689450D03*
X1842250Y1699450D03*
X1862250D03*
Y1679450D03*
X1842250D03*
X1856000Y1429450D03*
X1846000Y1439450D03*
X1866000D03*
Y1419450D03*
X1846000D03*
X1821000Y1429450D03*
X1811000Y1439450D03*
X1831000D03*
Y1419450D03*
X1811000D03*
X1786000Y1429450D03*
X1776000Y1439450D03*
X1796000D03*
Y1419450D03*
X1776000D03*
X2124750Y1571950D03*
X2114750Y1581950D03*
X2134750D03*
Y1561950D03*
X2114750D03*
X2124750Y1429450D03*
X2114750Y1439450D03*
X2134750D03*
Y1419450D03*
X2114750D03*
X1887250Y1689450D03*
X1877250Y1699450D03*
X1897250D03*
Y1679450D03*
X1877250D03*
G54D45*
G54D167*
X1727250Y1774450D03*
Y1424450D03*
G54D168*
X1987750Y1484497D03*
Y1490403D03*
X2006000Y1471497D03*
Y1477403D03*
X2006750Y1665403D03*
Y1659497D03*
X1970750Y1499403D03*
Y1493497D03*
X1973250Y1642403D03*
Y1636497D03*
X1987250Y1626497D03*
Y1632403D03*
X1981000Y1626497D03*
Y1632403D03*
X2006250Y1522903D03*
Y1516997D03*
X2008750Y1616497D03*
Y1622403D03*
X1981250Y1484497D03*
Y1490403D03*
G74*
X0Y0D02*
M02*
