*
*
G04 PADS9.0.1 Build Number: 350951 generated Gerber (RS-274-X) file*
G04 PC Version=2.1*
*
%IN "AD7606 x2 A.pcb"*%
*
%MOIN*%
*
%FSLAX35Y35*%
*
*
*
*
G04 PC Standard Apertures*
*
*
G04 Thermal Relief Aperture macro.*
%AMTER*
1,1,$1,0,0*
1,0,$1-$2,0,0*
21,0,$3,$4,0,0,45*
21,0,$3,$4,0,0,135*
%
*
*
G04 Annular Aperture macro.*
%AMANN*
1,1,$1,0,0*
1,0,$2,0,0*
%
*
*
G04 Odd Aperture macro.*
%AMODD*
1,1,$1,0,0*
1,0,$1-0.005,0,0*
%
*
*
G04 PC Custom Aperture Macros*
*
*
*
*
*
*
G04 PC Aperture Table*
*
%ADD011R,0.06X0.06*%
%ADD012C,0.06*%
%ADD018C,0.01*%
%ADD019C,0.007*%
%ADD026C,0.1*%
%ADD045C,0.001*%
%ADD091O,0.074X0.024*%
%ADD135R,0.025X0.05*%
%ADD161R,0.05X0.025*%
%ADD163O,0.00984X0.05906*%
%ADD164O,0.05906X0.00984*%
%ADD165R,0.0315X0.02953*%
%ADD167C,0.118*%
%ADD168R,0.02953X0.0315*%
%ADD169R,0.04921X0.03937*%
%ADD170R,0.07874X0.05906*%
%ADD172R,0.02X0.03*%
%ADD173R,0.03X0.02*%
%ADD175R,0.022X0.022*%
%ADD176R,0.07874X0.10236*%
%ADD178R,0.0689X0.0315*%
%ADD179R,0.0315X0.0315*%
*
*
*
*
G04 PC Circuitry*
G04 Layer Name AD7606 x2 A.pcb - circuitry*
%LPD*%
*
*
G04 PC Custom Flashes*
G04 Layer Name AD7606 x2 A.pcb - flashes*
%LPD*%
*
*
G04 PC Circuitry*
G04 Layer Name AD7606 x2 A.pcb - circuitry*
%LPD*%
*
G54D11*
G01X1737250Y1444450D03*
X2134750Y1459450D03*
Y1601950D03*
G54D12*
X1844750Y1606950D03*
X1737250Y1454450D03*
Y1464450D03*
Y1474450D03*
Y1484450D03*
Y1494450D03*
Y1504450D03*
Y1514450D03*
Y1524450D03*
Y1534450D03*
Y1544450D03*
Y1554450D03*
Y1564450D03*
Y1574450D03*
Y1584450D03*
Y1594450D03*
Y1604450D03*
Y1614450D03*
Y1624450D03*
Y1634450D03*
Y1644450D03*
Y1654450D03*
Y1664450D03*
Y1674450D03*
Y1684450D03*
Y1694450D03*
Y1704450D03*
Y1714450D03*
Y1724450D03*
Y1734450D03*
Y1744450D03*
Y1754450D03*
X1747250Y1444450D03*
Y1454450D03*
Y1464450D03*
Y1474450D03*
Y1484450D03*
Y1494450D03*
Y1504450D03*
Y1514450D03*
Y1524450D03*
Y1534450D03*
Y1544450D03*
Y1554450D03*
Y1564450D03*
Y1574450D03*
Y1584450D03*
Y1594450D03*
Y1604450D03*
Y1614450D03*
Y1624450D03*
Y1634450D03*
Y1644450D03*
Y1654450D03*
Y1664450D03*
Y1674450D03*
Y1684450D03*
Y1694450D03*
Y1704450D03*
Y1714450D03*
Y1724450D03*
Y1734450D03*
Y1744450D03*
Y1754450D03*
X1757250Y1444450D03*
Y1454450D03*
Y1464450D03*
Y1474450D03*
Y1484450D03*
Y1494450D03*
Y1504450D03*
Y1514450D03*
Y1524450D03*
Y1534450D03*
Y1544450D03*
Y1554450D03*
Y1564450D03*
Y1574450D03*
Y1584450D03*
Y1594450D03*
Y1604450D03*
Y1614450D03*
Y1624450D03*
Y1634450D03*
Y1644450D03*
Y1654450D03*
Y1664450D03*
Y1674450D03*
Y1684450D03*
Y1694450D03*
Y1704450D03*
Y1714450D03*
Y1724450D03*
Y1734450D03*
Y1744450D03*
Y1754450D03*
X1774750Y1584450D03*
X1881000Y1533200D03*
X1961000Y1528200D03*
X1852250Y1623200D03*
X1774750Y1574450D03*
X1843500Y1556950D03*
X1817250Y1614450D03*
X1822250Y1589450D03*
X1948500Y1664450D03*
X1958500D03*
X1872250Y1649450D03*
X2124750Y1459450D03*
X2134750Y1469450D03*
X2124750D03*
X2134750Y1479450D03*
X2124750D03*
X2134750Y1489450D03*
X2124750D03*
X2134750Y1499450D03*
X2124750D03*
X2134750Y1509450D03*
X2124750D03*
X2134750Y1519450D03*
X2124750D03*
X2134750Y1529450D03*
X2124750D03*
Y1601950D03*
X2134750Y1611950D03*
X2124750D03*
X2134750Y1621950D03*
X2124750D03*
X2134750Y1631950D03*
X2124750D03*
X2134750Y1641950D03*
X2124750D03*
X2134750Y1651950D03*
X2124750D03*
X2134750Y1661950D03*
X2124750D03*
X2134750Y1671950D03*
X2124750D03*
G54D18*
X1712250Y1386013D02*
Y1379450D01*
Y1386013D02*
X1713841D01*
X1713841D02*
X1714523Y1385700D01*
X1714977Y1385075*
X1715205Y1384450*
X1715432Y1383513*
X1715432D02*
Y1381950D01*
X1715205Y1381013*
X1715205D02*
X1714977Y1380388D01*
X1714977D02*
X1714523Y1379763D01*
X1714523D02*
X1713841Y1379450D01*
X1712250*
X1717477Y1383825D02*
Y1380700D01*
X1717705Y1379763*
X1717705D02*
X1718159Y1379450D01*
X1718841*
X1719295Y1379763*
X1719295D02*
X1719977Y1380700D01*
Y1383825D02*
Y1379450D01*
X1724750Y1383825D02*
Y1379450D01*
Y1382888D02*
X1724295Y1383513D01*
X1724295D02*
X1723841Y1383825D01*
X1723159*
X1722705Y1383513*
X1722705D02*
X1722250Y1382888D01*
X1722250D02*
X1722023Y1381950D01*
Y1381325*
X1722250Y1380388*
X1722250D02*
X1722705Y1379763D01*
X1722705D02*
X1723159Y1379450D01*
X1723841*
X1724295Y1379763*
X1724295D02*
X1724750Y1380388D01*
X1726795Y1386013D02*
Y1379450D01*
X1735886Y1386013D02*
X1734068Y1379450D01*
X1735886Y1386013D02*
X1737705Y1379450D01*
X1734750Y1381638D02*
X1737023D01*
X1739750Y1386013D02*
Y1379450D01*
Y1386013D02*
X1741341D01*
X1741341D02*
X1742023Y1385700D01*
X1742477Y1385075*
X1742705Y1384450*
X1742932Y1383513*
X1742932D02*
Y1381950D01*
X1742705Y1381013*
X1742705D02*
X1742477Y1380388D01*
X1742477D02*
X1742023Y1379763D01*
X1742023D02*
X1741341Y1379450D01*
X1739750*
X1748159Y1386013D02*
X1745886Y1379450D01*
X1744977Y1386013D02*
X1748159D01*
X1752932Y1385075D02*
X1752705Y1385700D01*
X1752023Y1386013*
X1752023D02*
X1751568D01*
X1751568D02*
X1750886Y1385700D01*
X1750432Y1384763*
X1750432D02*
X1750205Y1383200D01*
Y1381638*
X1750205D02*
X1750432Y1380388D01*
X1750432D02*
X1750886Y1379763D01*
X1750886D02*
X1751568Y1379450D01*
X1751795*
X1752477Y1379763*
X1752477D02*
X1752932Y1380388D01*
X1752932D02*
X1753159Y1381325D01*
Y1381638*
X1753159D02*
X1752932Y1382575D01*
X1752477Y1383200*
X1751795Y1383513*
X1751795D02*
X1751568D01*
X1751568D02*
X1750886Y1383200D01*
X1750432Y1382575*
X1750205Y1381638*
X1756568Y1386013D02*
X1755886Y1385700D01*
X1755432Y1384763*
X1755432D02*
X1755205Y1383200D01*
Y1382263*
X1755205D02*
X1755432Y1380700D01*
X1755886Y1379763*
X1755886D02*
X1756568Y1379450D01*
X1757023*
X1757705Y1379763*
X1757705D02*
X1758159Y1380700D01*
X1758386Y1382263*
X1758386D02*
Y1383200D01*
X1758159Y1384763*
X1758159D02*
X1757705Y1385700D01*
X1757023Y1386013*
X1757023D02*
X1756568D01*
X1763159Y1385075D02*
X1762932Y1385700D01*
X1762250Y1386013*
X1762250D02*
X1761795D01*
X1761795D02*
X1761114Y1385700D01*
X1760659Y1384763*
X1760659D02*
X1760432Y1383200D01*
Y1381638*
X1760432D02*
X1760659Y1380388D01*
X1760659D02*
X1761114Y1379763D01*
X1761114D02*
X1761795Y1379450D01*
X1762023*
X1762705Y1379763*
X1762705D02*
X1763159Y1380388D01*
X1763159D02*
X1763386Y1381325D01*
Y1381638*
X1763386D02*
X1763159Y1382575D01*
X1762705Y1383200*
X1762023Y1383513*
X1762023D02*
X1761795D01*
X1761795D02*
X1761114Y1383200D01*
X1760659Y1382575*
X1760432Y1381638*
X1770659Y1386013D02*
Y1379450D01*
Y1386013D02*
X1773614D01*
X1770659Y1382888D02*
X1772477D01*
X1770659Y1379450D02*
X1773614D01*
X1775659Y1386013D02*
Y1379450D01*
Y1386013D02*
X1777250D01*
X1777250D02*
X1777932Y1385700D01*
X1778386Y1385075*
X1778614Y1384450*
X1778841Y1383513*
X1778841D02*
Y1381950D01*
X1778614Y1381013*
X1778614D02*
X1778386Y1380388D01*
X1778386D02*
X1777932Y1379763D01*
X1777932D02*
X1777250Y1379450D01*
X1775659*
X1784068Y1386013D02*
X1780886Y1379450D01*
Y1386013D02*
X1784068D01*
X1780886Y1379450D02*
X1784068D01*
X1792932Y1387263D02*
X1792477Y1386638D01*
X1792477D02*
X1792023Y1385700D01*
X1791568Y1384450*
X1791341Y1382888*
X1791341D02*
Y1381638D01*
X1791341D02*
X1791568Y1380075D01*
X1792023Y1378825*
X1792477Y1377887*
X1792477D02*
X1792932Y1377262D01*
X1794977Y1386013D02*
Y1379450D01*
Y1386013D02*
X1797023D01*
X1797023D02*
X1797705Y1385700D01*
X1797932Y1385388*
X1797932D02*
X1798159Y1384763D01*
X1798159D02*
Y1384138D01*
X1798159D02*
X1797932Y1383513D01*
X1797932D02*
X1797705Y1383200D01*
X1797023Y1382888*
X1797023D02*
X1794977D01*
X1796568D02*
X1798159Y1379450D01*
X1800205Y1381950D02*
X1802932D01*
Y1382575*
X1802705Y1383200*
X1802477Y1383513*
X1802477D02*
X1802023Y1383825D01*
X1801341*
X1800886Y1383513*
X1800886D02*
X1800432Y1382888D01*
X1800432D02*
X1800205Y1381950D01*
Y1381325*
X1800432Y1380388*
X1800432D02*
X1800886Y1379763D01*
X1800886D02*
X1801341Y1379450D01*
X1802023*
X1802477Y1379763*
X1802477D02*
X1802932Y1380388D01*
X1804977Y1383825D02*
X1806341Y1379450D01*
X1807705Y1383825D02*
X1806341Y1379450D01*
X1809977Y1380075D02*
X1809750Y1379763D01*
X1809750D02*
X1809977Y1379450D01*
X1810205Y1379763*
X1810205D02*
X1809977Y1380075D01*
X1819295Y1386013D02*
X1817477Y1379450D01*
X1819295Y1386013D02*
X1821114Y1379450D01*
X1818159Y1381638D02*
X1820432D01*
X1823159Y1387263D02*
X1823614Y1386638D01*
X1823614D02*
X1824068Y1385700D01*
X1824523Y1384450*
X1824750Y1382888*
X1824750D02*
Y1381638D01*
X1824750D02*
X1824523Y1380075D01*
X1824068Y1378825*
X1823614Y1377887*
X1823614D02*
X1823159Y1377262D01*
X1832023Y1382263D02*
X1836114D01*
X1846795Y1384450D02*
X1846568Y1385075D01*
X1846114Y1385700*
X1845659Y1386013*
X1845659D02*
X1844750D01*
X1844750D02*
X1844295Y1385700D01*
X1843841Y1385075*
X1843614Y1384450*
X1843386Y1383513*
X1843386D02*
Y1381950D01*
X1843614Y1381013*
X1843614D02*
X1843841Y1380388D01*
X1843841D02*
X1844295Y1379763D01*
X1844295D02*
X1844750Y1379450D01*
X1845659*
X1846114Y1379763*
X1846114D02*
X1846568Y1380388D01*
X1846568D02*
X1846795Y1381013D01*
X1849977Y1383825D02*
X1849523Y1383513D01*
X1849523D02*
X1849068Y1382888D01*
X1849068D02*
X1848841Y1381950D01*
Y1381325*
X1849068Y1380388*
X1849068D02*
X1849523Y1379763D01*
X1849523D02*
X1849977Y1379450D01*
X1850659*
X1851114Y1379763*
X1851114D02*
X1851568Y1380388D01*
X1851568D02*
X1851795Y1381325D01*
Y1381950*
X1851568Y1382888*
X1851568D02*
X1851114Y1383513D01*
X1851114D02*
X1850659Y1383825D01*
X1849977*
X1853841D02*
Y1379450D01*
Y1382575D02*
X1854523Y1383513D01*
X1854523D02*
X1854977Y1383825D01*
X1855659*
X1856114Y1383513*
X1856114D02*
X1856341Y1382575D01*
Y1379450*
Y1382575D02*
X1857023Y1383513D01*
X1857023D02*
X1857477Y1383825D01*
X1858159*
X1858614Y1383513*
X1858614D02*
X1858841Y1382575D01*
Y1379450*
X1860886Y1383825D02*
Y1377262D01*
Y1382888D02*
X1861341Y1383513D01*
X1861341D02*
X1861795Y1383825D01*
X1862477*
X1862932Y1383513*
X1862932D02*
X1863386Y1382888D01*
X1863386D02*
X1863614Y1381950D01*
Y1381325*
X1863386Y1380388*
X1863386D02*
X1862932Y1379763D01*
X1862932D02*
X1862477Y1379450D01*
X1861795*
X1861341Y1379763*
X1861341D02*
X1860886Y1380388D01*
X1866795Y1383825D02*
X1866341Y1383513D01*
X1866341D02*
X1865886Y1382888D01*
X1865886D02*
X1865659Y1381950D01*
Y1381325*
X1865886Y1380388*
X1865886D02*
X1866341Y1379763D01*
X1866341D02*
X1866795Y1379450D01*
X1867477*
X1867932Y1379763*
X1867932D02*
X1868386Y1380388D01*
X1868386D02*
X1868614Y1381325D01*
Y1381950*
X1868386Y1382888*
X1868386D02*
X1867932Y1383513D01*
X1867932D02*
X1867477Y1383825D01*
X1866795*
X1870659D02*
Y1379450D01*
Y1382575D02*
X1871341Y1383513D01*
X1871341D02*
X1871795Y1383825D01*
X1872477*
X1872932Y1383513*
X1872932D02*
X1873159Y1382575D01*
Y1379450*
X1875205Y1381950D02*
X1877932D01*
Y1382575*
X1877705Y1383200*
X1877477Y1383513*
X1877477D02*
X1877023Y1383825D01*
X1876341*
X1875886Y1383513*
X1875886D02*
X1875432Y1382888D01*
X1875432D02*
X1875205Y1381950D01*
Y1381325*
X1875432Y1380388*
X1875432D02*
X1875886Y1379763D01*
X1875886D02*
X1876341Y1379450D01*
X1877023*
X1877477Y1379763*
X1877477D02*
X1877932Y1380388D01*
X1879977Y1383825D02*
Y1379450D01*
Y1382575D02*
X1880659Y1383513D01*
X1880659D02*
X1881114Y1383825D01*
X1881795*
X1882250Y1383513*
X1882250D02*
X1882477Y1382575D01*
Y1379450*
X1885205Y1386013D02*
Y1380700D01*
X1885432Y1379763*
X1885432D02*
X1885886Y1379450D01*
X1886341*
X1884523Y1383825D02*
X1886114D01*
X1896795Y1385075D02*
X1896341Y1385700D01*
X1895659Y1386013*
X1895659D02*
X1894750D01*
X1894750D02*
X1894068Y1385700D01*
X1893614Y1385075*
Y1384450*
X1893841Y1383825*
X1894068Y1383513*
X1894068D02*
X1894523Y1383200D01*
X1895886Y1382575*
X1896341Y1382263*
X1896341D02*
X1896568Y1381950D01*
X1896795Y1381325*
Y1380388*
X1896795D02*
X1896341Y1379763D01*
X1896341D02*
X1895659Y1379450D01*
X1894750*
X1894068Y1379763*
X1894068D02*
X1893614Y1380388D01*
X1898841Y1386013D02*
X1899068Y1385700D01*
X1899295Y1386013*
X1899295D02*
X1899068Y1386325D01*
X1898841Y1386013*
X1899068Y1383825D02*
Y1379450D01*
X1904068Y1386013D02*
Y1379450D01*
Y1382888D02*
X1903614Y1383513D01*
X1903614D02*
X1903159Y1383825D01*
X1902477*
X1902023Y1383513*
X1902023D02*
X1901568Y1382888D01*
X1901568D02*
X1901341Y1381950D01*
Y1381325*
X1901568Y1380388*
X1901568D02*
X1902023Y1379763D01*
X1902023D02*
X1902477Y1379450D01*
X1903159*
X1903614Y1379763*
X1903614D02*
X1904068Y1380388D01*
X1906114Y1381950D02*
X1908841D01*
Y1382575*
X1908614Y1383200*
X1908386Y1383513*
X1908386D02*
X1907932Y1383825D01*
X1907250*
X1906795Y1383513*
X1906795D02*
X1906341Y1382888D01*
X1906341D02*
X1906114Y1381950D01*
Y1381325*
X1906341Y1380388*
X1906341D02*
X1906795Y1379763D01*
X1906795D02*
X1907250Y1379450D01*
X1907932*
X1908386Y1379763*
X1908386D02*
X1908841Y1380388D01*
X1916114Y1386013D02*
X1917932Y1379450D01*
X1919750Y1386013D02*
X1917932Y1379450D01*
X1921795Y1386013D02*
X1922023Y1385700D01*
X1922250Y1386013*
X1922250D02*
X1922023Y1386325D01*
X1921795Y1386013*
X1922023Y1383825D02*
Y1379450D01*
X1924295Y1381950D02*
X1927023D01*
Y1382575*
X1926795Y1383200*
X1926568Y1383513*
X1926568D02*
X1926114Y1383825D01*
X1925432*
X1924977Y1383513*
X1924977D02*
X1924523Y1382888D01*
X1924523D02*
X1924295Y1381950D01*
Y1381325*
X1924523Y1380388*
X1924523D02*
X1924977Y1379763D01*
X1924977D02*
X1925432Y1379450D01*
X1926114*
X1926568Y1379763*
X1926568D02*
X1927023Y1380388D01*
X1929068Y1383825D02*
X1929977Y1379450D01*
X1930886Y1383825D02*
X1929977Y1379450D01*
X1930886Y1383825D02*
X1931795Y1379450D01*
X1932705Y1383825D02*
X1931795Y1379450D01*
X2098159Y1364450D02*
X2097932Y1365075D01*
X2097477Y1365700*
X2097023Y1366013*
X2097023D02*
X2096114D01*
X2096114D02*
X2095659Y1365700D01*
X2095205Y1365075*
X2094977Y1364450*
X2094750Y1363513*
X2094750D02*
Y1361950D01*
X2094977Y1361013*
X2094977D02*
X2095205Y1360388D01*
X2095205D02*
X2095659Y1359763D01*
X2095659D02*
X2096114Y1359450D01*
X2097023*
X2097477Y1359763*
X2097477D02*
X2097932Y1360388D01*
X2097932D02*
X2098159Y1361013D01*
X2101341Y1363825D02*
X2100886Y1363513D01*
X2100886D02*
X2100432Y1362888D01*
X2100432D02*
X2100205Y1361950D01*
Y1361325*
X2100432Y1360388*
X2100432D02*
X2100886Y1359763D01*
X2100886D02*
X2101341Y1359450D01*
X2102023*
X2102477Y1359763*
X2102477D02*
X2102932Y1360388D01*
X2102932D02*
X2103159Y1361325D01*
Y1361950*
X2102932Y1362888*
X2102932D02*
X2102477Y1363513D01*
X2102477D02*
X2102023Y1363825D01*
X2101341*
X2105205D02*
Y1359450D01*
Y1362575D02*
X2105886Y1363513D01*
X2105886D02*
X2106341Y1363825D01*
X2107023*
X2107477Y1363513*
X2107477D02*
X2107705Y1362575D01*
Y1359450*
Y1362575D02*
X2108386Y1363513D01*
X2108386D02*
X2108841Y1363825D01*
X2109523*
X2109977Y1363513*
X2109977D02*
X2110205Y1362575D01*
Y1359450*
X2112250Y1363825D02*
Y1357262D01*
Y1362888D02*
X2112705Y1363513D01*
X2112705D02*
X2113159Y1363825D01*
X2113841*
X2114295Y1363513*
X2114295D02*
X2114750Y1362888D01*
X2114750D02*
X2114977Y1361950D01*
Y1361325*
X2114750Y1360388*
X2114750D02*
X2114295Y1359763D01*
X2114295D02*
X2113841Y1359450D01*
X2113159*
X2112705Y1359763*
X2112705D02*
X2112250Y1360388D01*
X2118159Y1363825D02*
X2117705Y1363513D01*
X2117705D02*
X2117250Y1362888D01*
X2117250D02*
X2117023Y1361950D01*
Y1361325*
X2117250Y1360388*
X2117250D02*
X2117705Y1359763D01*
X2117705D02*
X2118159Y1359450D01*
X2118841*
X2119295Y1359763*
X2119295D02*
X2119750Y1360388D01*
X2119750D02*
X2119977Y1361325D01*
Y1361950*
X2119750Y1362888*
X2119750D02*
X2119295Y1363513D01*
X2119295D02*
X2118841Y1363825D01*
X2118159*
X2122023D02*
Y1359450D01*
Y1362575D02*
X2122705Y1363513D01*
X2122705D02*
X2123159Y1363825D01*
X2123841*
X2124295Y1363513*
X2124295D02*
X2124523Y1362575D01*
Y1359450*
X2126568Y1361950D02*
X2129295D01*
Y1362575*
X2129068Y1363200*
X2128841Y1363513*
X2128841D02*
X2128386Y1363825D01*
X2127705*
X2127250Y1363513*
X2127250D02*
X2126795Y1362888D01*
X2126795D02*
X2126568Y1361950D01*
Y1361325*
X2126795Y1360388*
X2126795D02*
X2127250Y1359763D01*
X2127250D02*
X2127705Y1359450D01*
X2128386*
X2128841Y1359763*
X2128841D02*
X2129295Y1360388D01*
X2131341Y1363825D02*
Y1359450D01*
Y1362575D02*
X2132023Y1363513D01*
X2132023D02*
X2132477Y1363825D01*
X2133159*
X2133614Y1363513*
X2133614D02*
X2133841Y1362575D01*
Y1359450*
X2136568Y1366013D02*
Y1360700D01*
X2136795Y1359763*
X2136795D02*
X2137250Y1359450D01*
X2137705*
X2135886Y1363825D02*
X2137477D01*
X2148159Y1365075D02*
X2147705Y1365700D01*
X2147023Y1366013*
X2147023D02*
X2146114D01*
X2146114D02*
X2145432Y1365700D01*
X2144977Y1365075*
Y1364450*
X2145205Y1363825*
X2145432Y1363513*
X2145432D02*
X2145886Y1363200D01*
X2147250Y1362575*
X2147705Y1362263*
X2147705D02*
X2147932Y1361950D01*
X2148159Y1361325*
Y1360388*
X2148159D02*
X2147705Y1359763D01*
X2147705D02*
X2147023Y1359450D01*
X2146114*
X2145432Y1359763*
X2145432D02*
X2144977Y1360388D01*
X2150205Y1366013D02*
X2150432Y1365700D01*
X2150659Y1366013*
X2150659D02*
X2150432Y1366325D01*
X2150205Y1366013*
X2150432Y1363825D02*
Y1359450D01*
X2155432Y1366013D02*
Y1359450D01*
Y1362888D02*
X2154977Y1363513D01*
X2154977D02*
X2154523Y1363825D01*
X2153841*
X2153386Y1363513*
X2153386D02*
X2152932Y1362888D01*
X2152932D02*
X2152705Y1361950D01*
Y1361325*
X2152932Y1360388*
X2152932D02*
X2153386Y1359763D01*
X2153386D02*
X2153841Y1359450D01*
X2154523*
X2154977Y1359763*
X2154977D02*
X2155432Y1360388D01*
X2157477Y1361950D02*
X2160205D01*
Y1362575*
X2159977Y1363200*
X2159750Y1363513*
X2159750D02*
X2159295Y1363825D01*
X2158614*
X2158159Y1363513*
X2158159D02*
X2157705Y1362888D01*
X2157705D02*
X2157477Y1361950D01*
Y1361325*
X2157705Y1360388*
X2157705D02*
X2158159Y1359763D01*
X2158159D02*
X2158614Y1359450D01*
X2159295*
X2159750Y1359763*
X2159750D02*
X2160205Y1360388D01*
X2170659Y1365075D02*
X2170205Y1365700D01*
X2169523Y1366013*
X2169523D02*
X2168614D01*
X2168614D02*
X2167932Y1365700D01*
X2167477Y1365075*
Y1364450*
X2167705Y1363825*
X2167932Y1363513*
X2167932D02*
X2168386Y1363200D01*
X2169750Y1362575*
X2170205Y1362263*
X2170205D02*
X2170432Y1361950D01*
X2170659Y1361325*
Y1360388*
X2170659D02*
X2170205Y1359763D01*
X2170205D02*
X2169523Y1359450D01*
X2168614*
X2167932Y1359763*
X2167932D02*
X2167477Y1360388D01*
X2173841Y1363825D02*
X2173386Y1363513D01*
X2173386D02*
X2172932Y1362888D01*
X2172932D02*
X2172705Y1361950D01*
Y1361325*
X2172932Y1360388*
X2172932D02*
X2173386Y1359763D01*
X2173386D02*
X2173841Y1359450D01*
X2174523*
X2174977Y1359763*
X2174977D02*
X2175432Y1360388D01*
X2175432D02*
X2175659Y1361325D01*
Y1361950*
X2175432Y1362888*
X2175432D02*
X2174977Y1363513D01*
X2174977D02*
X2174523Y1363825D01*
X2173841*
X2177705Y1366013D02*
Y1359450D01*
X2182477Y1366013D02*
Y1359450D01*
Y1362888D02*
X2182023Y1363513D01*
X2182023D02*
X2181568Y1363825D01*
X2180886*
X2180432Y1363513*
X2180432D02*
X2179977Y1362888D01*
X2179977D02*
X2179750Y1361950D01*
Y1361325*
X2179977Y1360388*
X2179977D02*
X2180432Y1359763D01*
X2180432D02*
X2180886Y1359450D01*
X2181568*
X2182023Y1359763*
X2182023D02*
X2182477Y1360388D01*
X2184523Y1361950D02*
X2187250D01*
Y1362575*
X2187023Y1363200*
X2186795Y1363513*
X2186795D02*
X2186341Y1363825D01*
X2185659*
X2185205Y1363513*
X2185205D02*
X2184750Y1362888D01*
X2184750D02*
X2184523Y1361950D01*
Y1361325*
X2184750Y1360388*
X2184750D02*
X2185205Y1359763D01*
X2185205D02*
X2185659Y1359450D01*
X2186341*
X2186795Y1359763*
X2186795D02*
X2187250Y1360388D01*
X2189295Y1363825D02*
Y1359450D01*
Y1361950D02*
X2189523Y1362888D01*
X2189523D02*
X2189977Y1363513D01*
X2189977D02*
X2190432Y1363825D01*
X2191114*
X2193159D02*
Y1359450D01*
Y1362575D02*
X2193841Y1363513D01*
X2193841D02*
X2194295Y1363825D01*
X2194977*
X2195432Y1363513*
X2195432D02*
X2195659Y1362575D01*
Y1359450*
Y1362575D02*
X2196341Y1363513D01*
X2196341D02*
X2196795Y1363825D01*
X2197477*
X2197932Y1363513*
X2197932D02*
X2198159Y1362575D01*
Y1359450*
X2202932Y1363825D02*
Y1359450D01*
Y1362888D02*
X2202477Y1363513D01*
X2202477D02*
X2202023Y1363825D01*
X2201341*
X2200886Y1363513*
X2200886D02*
X2200432Y1362888D01*
X2200432D02*
X2200205Y1361950D01*
Y1361325*
X2200432Y1360388*
X2200432D02*
X2200886Y1359763D01*
X2200886D02*
X2201341Y1359450D01*
X2202023*
X2202477Y1359763*
X2202477D02*
X2202932Y1360388D01*
X2207477Y1362888D02*
X2207250Y1363513D01*
X2207250D02*
X2206568Y1363825D01*
X2205886*
X2205205Y1363513*
X2205205D02*
X2204977Y1362888D01*
X2204977D02*
X2205205Y1362263D01*
X2205205D02*
X2205659Y1361950D01*
X2206795Y1361638*
X2206795D02*
X2207250Y1361325D01*
X2207477Y1360700*
Y1360388*
X2207477D02*
X2207250Y1359763D01*
X2207250D02*
X2206568Y1359450D01*
X2205886*
X2205205Y1359763*
X2205205D02*
X2204977Y1360388D01*
X2209523Y1366013D02*
Y1359450D01*
X2211795Y1363825D02*
X2209523Y1360700D01*
X2210432Y1361950D02*
X2212023Y1359450D01*
G54D19*
X1662250Y1849450D02*
Y1849950D01*
Y1849450D02*
X1662750D01*
X1662250D02*
Y1848950D01*
Y1849450D02*
X1661750D01*
X1663750D02*
X1668750D01*
X1662250Y1847950D02*
Y1844550D01*
Y1850950D02*
Y1855450D01*
X1656250Y1849450D02*
X1660750D01*
X1665250D02*
G75*
G03X1665250I-3000J0D01*
G01X1664250D02*
G03X1664250I-2000J0D01*
G01X2337250D02*
Y1849950D01*
Y1849450D02*
X2337750D01*
X2337250D02*
Y1848950D01*
Y1849450D02*
X2336750D01*
X2338750D02*
X2343750D01*
X2337250Y1847950D02*
Y1844550D01*
Y1850950D02*
Y1855450D01*
X2331250Y1849450D02*
X2335750D01*
X2340250D02*
G03X2340250I-3000J0D01*
G01X2339250D02*
G03X2339250I-2000J0D01*
G01X1662250Y1349450D02*
Y1349950D01*
Y1349450D02*
X1662750D01*
X1662250D02*
Y1348950D01*
Y1349450D02*
X1661750D01*
X1663750D02*
X1668750D01*
X1662250Y1347950D02*
Y1344550D01*
Y1350950D02*
Y1355450D01*
X1656250Y1349450D02*
X1660750D01*
X1665250D02*
G03X1665250I-3000J0D01*
G01X1664250D02*
G03X1664250I-2000J0D01*
G54D26*
G01X1908500Y1429450D03*
X1888815D03*
X2022250Y1759450D03*
X2041935D03*
X1817250Y1689450D03*
X1807250Y1699450D03*
X1827250D03*
Y1679450D03*
X1807250D03*
X1799750Y1654450D03*
X1789750Y1664450D03*
X1809750D03*
Y1644450D03*
X1789750D03*
X1834750Y1654450D03*
X1824750Y1664450D03*
X1844750D03*
Y1644450D03*
X1824750D03*
X1852250Y1689450D03*
X1842250Y1699450D03*
X1862250D03*
Y1679450D03*
X1842250D03*
X1856000Y1429450D03*
X1846000Y1439450D03*
X1866000D03*
Y1419450D03*
X1846000D03*
X1821000Y1429450D03*
X1811000Y1439450D03*
X1831000D03*
Y1419450D03*
X1811000D03*
X1786000Y1429450D03*
X1776000Y1439450D03*
X1796000D03*
Y1419450D03*
X1776000D03*
X2124750Y1571950D03*
X2114750Y1581950D03*
X2134750D03*
Y1561950D03*
X2114750D03*
X2124750Y1429450D03*
X2114750Y1439450D03*
X2134750D03*
Y1419450D03*
X2114750D03*
X1887250Y1689450D03*
X1877250Y1699450D03*
X1897250D03*
Y1679450D03*
X1877250D03*
G54D45*
G54D91*
X2042300Y1564450D03*
Y1569450D03*
Y1574450D03*
Y1579450D03*
X2019700D03*
Y1574450D03*
Y1569450D03*
Y1564450D03*
G54D135*
X1814750Y1589450D03*
G54D161*
X1924750Y1433200D03*
X2002250Y1750250D03*
X1819750Y1456950D03*
X1784750D03*
X1817250Y1621950D03*
X1799750D03*
G54D163*
X2007014Y1519588D03*
X2005045D03*
X2003077D03*
X2001108D03*
X1999140D03*
X1997171D03*
X1995203D03*
X1993234D03*
X1991266D03*
X1989297D03*
X1987329D03*
X1985360D03*
X1983392D03*
X1981423D03*
X1979455D03*
X1977486D03*
Y1474312D03*
X1979455D03*
X1981423D03*
X1983392D03*
X1985360D03*
X1987329D03*
X1989297D03*
X1991266D03*
X1993234D03*
X1995203D03*
X1997171D03*
X1999140D03*
X2001108D03*
X2003077D03*
X2005045D03*
X2007014D03*
Y1662088D03*
X2005045D03*
X2003077D03*
X2001108D03*
X1999140D03*
X1997171D03*
X1995203D03*
X1993234D03*
X1991266D03*
X1989297D03*
X1987329D03*
X1985360D03*
X1983392D03*
X1981423D03*
X1979455D03*
X1977486D03*
Y1616812D03*
X1979455D03*
X1981423D03*
X1983392D03*
X1985360D03*
X1987329D03*
X1989297D03*
X1991266D03*
X1993234D03*
X1995203D03*
X1997171D03*
X1999140D03*
X2001108D03*
X2003077D03*
X2005045D03*
X2007014D03*
G54D164*
X1969612Y1511714D03*
Y1509745D03*
Y1507777D03*
Y1505808D03*
Y1503840D03*
Y1501871D03*
Y1499903D03*
Y1497934D03*
Y1495966D03*
Y1493997D03*
Y1492029D03*
Y1490060D03*
Y1488092D03*
Y1486123D03*
Y1484155D03*
Y1482186D03*
X2014888D03*
Y1484155D03*
Y1486123D03*
Y1488092D03*
Y1490060D03*
Y1492029D03*
Y1493997D03*
Y1495966D03*
Y1497934D03*
Y1499903D03*
Y1501871D03*
Y1503840D03*
Y1505808D03*
Y1507777D03*
Y1509745D03*
Y1511714D03*
X1969612Y1654214D03*
Y1652245D03*
Y1650277D03*
Y1648308D03*
Y1646340D03*
Y1644371D03*
Y1642403D03*
Y1640434D03*
Y1638466D03*
Y1636497D03*
Y1634529D03*
Y1632560D03*
Y1630592D03*
Y1628623D03*
Y1626655D03*
Y1624686D03*
X2014888D03*
Y1626655D03*
Y1628623D03*
Y1630592D03*
Y1632560D03*
Y1634529D03*
Y1636497D03*
Y1638466D03*
Y1640434D03*
Y1642403D03*
Y1644371D03*
Y1646340D03*
Y1648308D03*
Y1650277D03*
Y1652245D03*
Y1654214D03*
G54D165*
X2086453Y1584450D03*
X2080547D03*
X2086453Y1599450D03*
X2080547D03*
X2086453Y1440700D03*
X2080547D03*
X1922703Y1475700D03*
X1916797D03*
X2086453Y1500700D03*
X2080547D03*
X2086453Y1515700D03*
X2080547D03*
X1987203Y1706950D03*
X1981297D03*
X2086453Y1644450D03*
X2080547D03*
X2086453Y1455700D03*
X2080547D03*
X2086453Y1470700D03*
X2080547D03*
X2086453Y1485700D03*
X2080547D03*
X2086453Y1530700D03*
X2080547D03*
X2086453Y1545700D03*
X2080547D03*
X2086453Y1614450D03*
X2080547D03*
X2086453Y1659450D03*
X2080547D03*
X1952703Y1463200D03*
X1946797D03*
X1952703Y1470700D03*
X1946797D03*
X2086453Y1674450D03*
X2080547D03*
X2086453Y1629450D03*
X2080547D03*
X2086453Y1681950D03*
X2080547D03*
X2086453Y1689450D03*
X2080547D03*
X2005203Y1574450D03*
X1999297D03*
X2086453Y1478200D03*
X2080547D03*
X2086453Y1538200D03*
X2080547D03*
X2086453Y1636950D03*
X2080547D03*
X2086453Y1508200D03*
X2080547D03*
X2086453Y1553200D03*
X2080547D03*
X2086453Y1651950D03*
X2080547D03*
X2086453Y1591950D03*
X2080547D03*
X2086453Y1606950D03*
X2080547D03*
X2086453Y1621950D03*
X2080547D03*
X2086453Y1493200D03*
X2080547D03*
X2086453Y1696950D03*
X2080547D03*
X2086453Y1666950D03*
X2080547D03*
X2086453Y1523200D03*
X2080547D03*
X2086453Y1463200D03*
X2080547D03*
X2086453Y1448200D03*
X2080547D03*
G54D167*
X1727250Y1774450D03*
Y1424450D03*
G54D168*
X1923500Y1730247D03*
Y1736153D03*
Y1722403D03*
Y1716497D03*
X1946000Y1722403D03*
Y1716497D03*
X2012250Y1573997D03*
Y1579903D03*
X1946000Y1581153D03*
Y1575247D03*
Y1587747D03*
Y1593653D03*
X1953500Y1587747D03*
Y1593653D03*
Y1581153D03*
Y1575247D03*
X1747250Y1430247D03*
Y1436153D03*
X1931000Y1730247D03*
Y1736153D03*
Y1722403D03*
Y1716497D03*
X1938500Y1730247D03*
Y1736153D03*
Y1722403D03*
Y1716497D03*
X1835281Y1617294D03*
X1839219D03*
Y1628909D03*
X1835281D03*
X2051000Y1571497D03*
Y1577403D03*
X1946000Y1730247D03*
Y1736153D03*
X2073500Y1501497D03*
Y1507403D03*
X1961000Y1581153D03*
Y1575247D03*
Y1587747D03*
Y1593653D03*
X2073500Y1447403D03*
Y1441497D03*
Y1522403D03*
Y1516497D03*
Y1537403D03*
Y1531497D03*
Y1462403D03*
Y1456497D03*
Y1477403D03*
Y1471497D03*
Y1591153D03*
Y1585247D03*
Y1606153D03*
Y1600247D03*
Y1621153D03*
Y1615247D03*
Y1552403D03*
Y1546497D03*
Y1651153D03*
Y1645247D03*
Y1492403D03*
Y1486497D03*
Y1666153D03*
Y1660247D03*
Y1636153D03*
Y1630247D03*
Y1681153D03*
Y1675247D03*
Y1696153D03*
Y1690247D03*
G54D169*
X1987250Y1456763D03*
Y1464637D03*
X1978500Y1456763D03*
Y1464637D03*
X1987250Y1599263D03*
Y1607137D03*
X1978500Y1599263D03*
Y1607137D03*
X2059750Y1570513D03*
Y1578387D03*
X1996000Y1464637D03*
Y1456763D03*
X2004750Y1464637D03*
Y1456763D03*
Y1607137D03*
Y1599263D03*
X1996000Y1607137D03*
Y1599263D03*
G54D170*
X1987250Y1717294D03*
Y1729106D03*
X1911000Y1465356D03*
Y1453544D03*
X1926000Y1440405D03*
Y1465995D03*
X2002250Y1742245D03*
Y1716655D03*
G54D172*
X1926250Y1429600D03*
X1923250D03*
X2000750Y1753850D03*
X2003750D03*
X1821250Y1453350D03*
X1818250D03*
X1786250D03*
X1783250D03*
X1815750Y1625550D03*
X1818750D03*
X1798250D03*
X1801250D03*
G54D173*
X1811150Y1587950D03*
Y1590950D03*
G54D175*
X1816750Y1546950D03*
X1812750D03*
X1816750Y1541950D03*
X1812750D03*
X1816750Y1496950D03*
X1812750D03*
X1816750Y1491950D03*
X1812750D03*
X1816750Y1486950D03*
X1812750D03*
X1816750Y1481950D03*
X1812750D03*
X1816750Y1476950D03*
X1812750D03*
X1816750Y1471950D03*
X1812750D03*
X1816750Y1536950D03*
X1812750D03*
X1816750Y1531950D03*
X1812750D03*
X1816750Y1526950D03*
X1812750D03*
X1816750Y1521950D03*
X1812750D03*
X1816750Y1516950D03*
X1812750D03*
X1816750Y1511950D03*
X1812750D03*
X1816750Y1506950D03*
X1812750D03*
X1816750Y1501950D03*
X1812750D03*
G54D176*
X1926000Y1453200D03*
X2002250Y1729450D03*
G54D178*
X1837250Y1623200D03*
G54D179*
X1835203Y1556950D03*
Y1562856D03*
X1829297Y1556950D03*
X1835203Y1551044D03*
X1862703Y1649450D03*
Y1655356D03*
X1856797Y1649450D03*
X1862703Y1643544D03*
G74*
X0Y0D02*
M02*
