*
*
G04 PADS9.0.1 Build Number: 350951 generated Gerber (RS-274-X) file*
G04 PC Version=2.1*
*
%IN "AD7606 x2 A.pcb"*%
*
%MOIN*%
*
%FSLAX35Y35*%
*
*
*
*
G04 PC Standard Apertures*
*
*
G04 Thermal Relief Aperture macro.*
%AMTER*
1,1,$1,0,0*
1,0,$1-$2,0,0*
21,0,$3,$4,0,0,45*
21,0,$3,$4,0,0,135*
%
*
*
G04 Annular Aperture macro.*
%AMANN*
1,1,$1,0,0*
1,0,$2,0,0*
%
*
*
G04 Odd Aperture macro.*
%AMODD*
1,1,$1,0,0*
1,0,$1-0.005,0,0*
%
*
*
G04 PC Custom Aperture Macros*
*
*
*
*
*
*
G04 PC Aperture Table*
*
%ADD018C,0.01*%
%ADD019C,0.007*%
%ADD044C,0.008*%
%ADD045C,0.001*%
*
*
*
*
G04 PC Circuitry*
G04 Layer Name AD7606 x2 A.pcb - circuitry*
%LPD*%
*
*
G04 PC Custom Flashes*
G04 Layer Name AD7606 x2 A.pcb - flashes*
%LPD*%
*
*
G04 PC Circuitry*
G04 Layer Name AD7606 x2 A.pcb - circuitry*
%LPD*%
*
G54D18*
G01X1712250Y1386013D02*
Y1379450D01*
Y1386013D02*
X1713841D01*
X1713841D02*
X1714523Y1385700D01*
X1714977Y1385075*
X1715205Y1384450*
X1715432Y1383513*
X1715432D02*
Y1381950D01*
X1715205Y1381013*
X1715205D02*
X1714977Y1380388D01*
X1714977D02*
X1714523Y1379763D01*
X1714523D02*
X1713841Y1379450D01*
X1712250*
X1717477Y1383825D02*
Y1380700D01*
X1717705Y1379763*
X1717705D02*
X1718159Y1379450D01*
X1718841*
X1719295Y1379763*
X1719295D02*
X1719977Y1380700D01*
Y1383825D02*
Y1379450D01*
X1724750Y1383825D02*
Y1379450D01*
Y1382888D02*
X1724295Y1383513D01*
X1724295D02*
X1723841Y1383825D01*
X1723159*
X1722705Y1383513*
X1722705D02*
X1722250Y1382888D01*
X1722250D02*
X1722023Y1381950D01*
Y1381325*
X1722250Y1380388*
X1722250D02*
X1722705Y1379763D01*
X1722705D02*
X1723159Y1379450D01*
X1723841*
X1724295Y1379763*
X1724295D02*
X1724750Y1380388D01*
X1726795Y1386013D02*
Y1379450D01*
X1735886Y1386013D02*
X1734068Y1379450D01*
X1735886Y1386013D02*
X1737705Y1379450D01*
X1734750Y1381638D02*
X1737023D01*
X1739750Y1386013D02*
Y1379450D01*
Y1386013D02*
X1741341D01*
X1741341D02*
X1742023Y1385700D01*
X1742477Y1385075*
X1742705Y1384450*
X1742932Y1383513*
X1742932D02*
Y1381950D01*
X1742705Y1381013*
X1742705D02*
X1742477Y1380388D01*
X1742477D02*
X1742023Y1379763D01*
X1742023D02*
X1741341Y1379450D01*
X1739750*
X1748159Y1386013D02*
X1745886Y1379450D01*
X1744977Y1386013D02*
X1748159D01*
X1752932Y1385075D02*
X1752705Y1385700D01*
X1752023Y1386013*
X1752023D02*
X1751568D01*
X1751568D02*
X1750886Y1385700D01*
X1750432Y1384763*
X1750432D02*
X1750205Y1383200D01*
Y1381638*
X1750205D02*
X1750432Y1380388D01*
X1750432D02*
X1750886Y1379763D01*
X1750886D02*
X1751568Y1379450D01*
X1751795*
X1752477Y1379763*
X1752477D02*
X1752932Y1380388D01*
X1752932D02*
X1753159Y1381325D01*
Y1381638*
X1753159D02*
X1752932Y1382575D01*
X1752477Y1383200*
X1751795Y1383513*
X1751795D02*
X1751568D01*
X1751568D02*
X1750886Y1383200D01*
X1750432Y1382575*
X1750205Y1381638*
X1756568Y1386013D02*
X1755886Y1385700D01*
X1755432Y1384763*
X1755432D02*
X1755205Y1383200D01*
Y1382263*
X1755205D02*
X1755432Y1380700D01*
X1755886Y1379763*
X1755886D02*
X1756568Y1379450D01*
X1757023*
X1757705Y1379763*
X1757705D02*
X1758159Y1380700D01*
X1758386Y1382263*
X1758386D02*
Y1383200D01*
X1758159Y1384763*
X1758159D02*
X1757705Y1385700D01*
X1757023Y1386013*
X1757023D02*
X1756568D01*
X1763159Y1385075D02*
X1762932Y1385700D01*
X1762250Y1386013*
X1762250D02*
X1761795D01*
X1761795D02*
X1761114Y1385700D01*
X1760659Y1384763*
X1760659D02*
X1760432Y1383200D01*
Y1381638*
X1760432D02*
X1760659Y1380388D01*
X1760659D02*
X1761114Y1379763D01*
X1761114D02*
X1761795Y1379450D01*
X1762023*
X1762705Y1379763*
X1762705D02*
X1763159Y1380388D01*
X1763159D02*
X1763386Y1381325D01*
Y1381638*
X1763386D02*
X1763159Y1382575D01*
X1762705Y1383200*
X1762023Y1383513*
X1762023D02*
X1761795D01*
X1761795D02*
X1761114Y1383200D01*
X1760659Y1382575*
X1760432Y1381638*
X1770659Y1386013D02*
Y1379450D01*
Y1386013D02*
X1773614D01*
X1770659Y1382888D02*
X1772477D01*
X1770659Y1379450D02*
X1773614D01*
X1775659Y1386013D02*
Y1379450D01*
Y1386013D02*
X1777250D01*
X1777250D02*
X1777932Y1385700D01*
X1778386Y1385075*
X1778614Y1384450*
X1778841Y1383513*
X1778841D02*
Y1381950D01*
X1778614Y1381013*
X1778614D02*
X1778386Y1380388D01*
X1778386D02*
X1777932Y1379763D01*
X1777932D02*
X1777250Y1379450D01*
X1775659*
X1784068Y1386013D02*
X1780886Y1379450D01*
Y1386013D02*
X1784068D01*
X1780886Y1379450D02*
X1784068D01*
X1792932Y1387263D02*
X1792477Y1386638D01*
X1792477D02*
X1792023Y1385700D01*
X1791568Y1384450*
X1791341Y1382888*
X1791341D02*
Y1381638D01*
X1791341D02*
X1791568Y1380075D01*
X1792023Y1378825*
X1792477Y1377887*
X1792477D02*
X1792932Y1377262D01*
X1794977Y1386013D02*
Y1379450D01*
Y1386013D02*
X1797023D01*
X1797023D02*
X1797705Y1385700D01*
X1797932Y1385388*
X1797932D02*
X1798159Y1384763D01*
X1798159D02*
Y1384138D01*
X1798159D02*
X1797932Y1383513D01*
X1797932D02*
X1797705Y1383200D01*
X1797023Y1382888*
X1797023D02*
X1794977D01*
X1796568D02*
X1798159Y1379450D01*
X1800205Y1381950D02*
X1802932D01*
Y1382575*
X1802705Y1383200*
X1802477Y1383513*
X1802477D02*
X1802023Y1383825D01*
X1801341*
X1800886Y1383513*
X1800886D02*
X1800432Y1382888D01*
X1800432D02*
X1800205Y1381950D01*
Y1381325*
X1800432Y1380388*
X1800432D02*
X1800886Y1379763D01*
X1800886D02*
X1801341Y1379450D01*
X1802023*
X1802477Y1379763*
X1802477D02*
X1802932Y1380388D01*
X1804977Y1383825D02*
X1806341Y1379450D01*
X1807705Y1383825D02*
X1806341Y1379450D01*
X1809977Y1380075D02*
X1809750Y1379763D01*
X1809750D02*
X1809977Y1379450D01*
X1810205Y1379763*
X1810205D02*
X1809977Y1380075D01*
X1819295Y1386013D02*
X1817477Y1379450D01*
X1819295Y1386013D02*
X1821114Y1379450D01*
X1818159Y1381638D02*
X1820432D01*
X1823159Y1387263D02*
X1823614Y1386638D01*
X1823614D02*
X1824068Y1385700D01*
X1824523Y1384450*
X1824750Y1382888*
X1824750D02*
Y1381638D01*
X1824750D02*
X1824523Y1380075D01*
X1824068Y1378825*
X1823614Y1377887*
X1823614D02*
X1823159Y1377262D01*
X1832023Y1382263D02*
X1836114D01*
X1846795Y1384450D02*
X1846568Y1385075D01*
X1846114Y1385700*
X1845659Y1386013*
X1845659D02*
X1844750D01*
X1844750D02*
X1844295Y1385700D01*
X1843841Y1385075*
X1843614Y1384450*
X1843386Y1383513*
X1843386D02*
Y1381950D01*
X1843614Y1381013*
X1843614D02*
X1843841Y1380388D01*
X1843841D02*
X1844295Y1379763D01*
X1844295D02*
X1844750Y1379450D01*
X1845659*
X1846114Y1379763*
X1846114D02*
X1846568Y1380388D01*
X1846568D02*
X1846795Y1381013D01*
X1849977Y1383825D02*
X1849523Y1383513D01*
X1849523D02*
X1849068Y1382888D01*
X1849068D02*
X1848841Y1381950D01*
Y1381325*
X1849068Y1380388*
X1849068D02*
X1849523Y1379763D01*
X1849523D02*
X1849977Y1379450D01*
X1850659*
X1851114Y1379763*
X1851114D02*
X1851568Y1380388D01*
X1851568D02*
X1851795Y1381325D01*
Y1381950*
X1851568Y1382888*
X1851568D02*
X1851114Y1383513D01*
X1851114D02*
X1850659Y1383825D01*
X1849977*
X1853841D02*
Y1379450D01*
Y1382575D02*
X1854523Y1383513D01*
X1854523D02*
X1854977Y1383825D01*
X1855659*
X1856114Y1383513*
X1856114D02*
X1856341Y1382575D01*
Y1379450*
Y1382575D02*
X1857023Y1383513D01*
X1857023D02*
X1857477Y1383825D01*
X1858159*
X1858614Y1383513*
X1858614D02*
X1858841Y1382575D01*
Y1379450*
X1860886Y1383825D02*
Y1377262D01*
Y1382888D02*
X1861341Y1383513D01*
X1861341D02*
X1861795Y1383825D01*
X1862477*
X1862932Y1383513*
X1862932D02*
X1863386Y1382888D01*
X1863386D02*
X1863614Y1381950D01*
Y1381325*
X1863386Y1380388*
X1863386D02*
X1862932Y1379763D01*
X1862932D02*
X1862477Y1379450D01*
X1861795*
X1861341Y1379763*
X1861341D02*
X1860886Y1380388D01*
X1866795Y1383825D02*
X1866341Y1383513D01*
X1866341D02*
X1865886Y1382888D01*
X1865886D02*
X1865659Y1381950D01*
Y1381325*
X1865886Y1380388*
X1865886D02*
X1866341Y1379763D01*
X1866341D02*
X1866795Y1379450D01*
X1867477*
X1867932Y1379763*
X1867932D02*
X1868386Y1380388D01*
X1868386D02*
X1868614Y1381325D01*
Y1381950*
X1868386Y1382888*
X1868386D02*
X1867932Y1383513D01*
X1867932D02*
X1867477Y1383825D01*
X1866795*
X1870659D02*
Y1379450D01*
Y1382575D02*
X1871341Y1383513D01*
X1871341D02*
X1871795Y1383825D01*
X1872477*
X1872932Y1383513*
X1872932D02*
X1873159Y1382575D01*
Y1379450*
X1875205Y1381950D02*
X1877932D01*
Y1382575*
X1877705Y1383200*
X1877477Y1383513*
X1877477D02*
X1877023Y1383825D01*
X1876341*
X1875886Y1383513*
X1875886D02*
X1875432Y1382888D01*
X1875432D02*
X1875205Y1381950D01*
Y1381325*
X1875432Y1380388*
X1875432D02*
X1875886Y1379763D01*
X1875886D02*
X1876341Y1379450D01*
X1877023*
X1877477Y1379763*
X1877477D02*
X1877932Y1380388D01*
X1879977Y1383825D02*
Y1379450D01*
Y1382575D02*
X1880659Y1383513D01*
X1880659D02*
X1881114Y1383825D01*
X1881795*
X1882250Y1383513*
X1882250D02*
X1882477Y1382575D01*
Y1379450*
X1885205Y1386013D02*
Y1380700D01*
X1885432Y1379763*
X1885432D02*
X1885886Y1379450D01*
X1886341*
X1884523Y1383825D02*
X1886114D01*
X1896795Y1385075D02*
X1896341Y1385700D01*
X1895659Y1386013*
X1895659D02*
X1894750D01*
X1894750D02*
X1894068Y1385700D01*
X1893614Y1385075*
Y1384450*
X1893841Y1383825*
X1894068Y1383513*
X1894068D02*
X1894523Y1383200D01*
X1895886Y1382575*
X1896341Y1382263*
X1896341D02*
X1896568Y1381950D01*
X1896795Y1381325*
Y1380388*
X1896795D02*
X1896341Y1379763D01*
X1896341D02*
X1895659Y1379450D01*
X1894750*
X1894068Y1379763*
X1894068D02*
X1893614Y1380388D01*
X1898841Y1386013D02*
X1899068Y1385700D01*
X1899295Y1386013*
X1899295D02*
X1899068Y1386325D01*
X1898841Y1386013*
X1899068Y1383825D02*
Y1379450D01*
X1904068Y1386013D02*
Y1379450D01*
Y1382888D02*
X1903614Y1383513D01*
X1903614D02*
X1903159Y1383825D01*
X1902477*
X1902023Y1383513*
X1902023D02*
X1901568Y1382888D01*
X1901568D02*
X1901341Y1381950D01*
Y1381325*
X1901568Y1380388*
X1901568D02*
X1902023Y1379763D01*
X1902023D02*
X1902477Y1379450D01*
X1903159*
X1903614Y1379763*
X1903614D02*
X1904068Y1380388D01*
X1906114Y1381950D02*
X1908841D01*
Y1382575*
X1908614Y1383200*
X1908386Y1383513*
X1908386D02*
X1907932Y1383825D01*
X1907250*
X1906795Y1383513*
X1906795D02*
X1906341Y1382888D01*
X1906341D02*
X1906114Y1381950D01*
Y1381325*
X1906341Y1380388*
X1906341D02*
X1906795Y1379763D01*
X1906795D02*
X1907250Y1379450D01*
X1907932*
X1908386Y1379763*
X1908386D02*
X1908841Y1380388D01*
X1916114Y1386013D02*
X1917932Y1379450D01*
X1919750Y1386013D02*
X1917932Y1379450D01*
X1921795Y1386013D02*
X1922023Y1385700D01*
X1922250Y1386013*
X1922250D02*
X1922023Y1386325D01*
X1921795Y1386013*
X1922023Y1383825D02*
Y1379450D01*
X1924295Y1381950D02*
X1927023D01*
Y1382575*
X1926795Y1383200*
X1926568Y1383513*
X1926568D02*
X1926114Y1383825D01*
X1925432*
X1924977Y1383513*
X1924977D02*
X1924523Y1382888D01*
X1924523D02*
X1924295Y1381950D01*
Y1381325*
X1924523Y1380388*
X1924523D02*
X1924977Y1379763D01*
X1924977D02*
X1925432Y1379450D01*
X1926114*
X1926568Y1379763*
X1926568D02*
X1927023Y1380388D01*
X1929068Y1383825D02*
X1929977Y1379450D01*
X1930886Y1383825D02*
X1929977Y1379450D01*
X1930886Y1383825D02*
X1931795Y1379450D01*
X1932705Y1383825D02*
X1931795Y1379450D01*
X1975432Y1372575D02*
X1974977Y1373200D01*
X1974295Y1373513*
X1974295D02*
X1973386D01*
X1973386D02*
X1972705Y1373200D01*
X1972250Y1372575*
Y1371950*
X1972477Y1371325*
X1972705Y1371013*
X1972705D02*
X1973159Y1370700D01*
X1974523Y1370075*
X1974977Y1369763*
X1974977D02*
X1975205Y1369450D01*
X1975432Y1368825*
Y1367888*
X1975432D02*
X1974977Y1367263D01*
X1974977D02*
X1974295Y1366950D01*
X1973386*
X1972705Y1367263*
X1972705D02*
X1972250Y1367888D01*
X1978614Y1371325D02*
X1978159Y1371013D01*
X1978159D02*
X1977705Y1370388D01*
X1977705D02*
X1977477Y1369450D01*
Y1368825*
X1977705Y1367888*
X1977705D02*
X1978159Y1367263D01*
X1978159D02*
X1978614Y1366950D01*
X1979295*
X1979750Y1367263*
X1979750D02*
X1980205Y1367888D01*
X1980205D02*
X1980432Y1368825D01*
Y1369450*
X1980205Y1370388*
X1980205D02*
X1979750Y1371013D01*
X1979750D02*
X1979295Y1371325D01*
X1978614*
X1982477Y1373513D02*
Y1366950D01*
X1987250Y1373513D02*
Y1366950D01*
Y1370388D02*
X1986795Y1371013D01*
X1986795D02*
X1986341Y1371325D01*
X1985659*
X1985205Y1371013*
X1985205D02*
X1984750Y1370388D01*
X1984750D02*
X1984523Y1369450D01*
Y1368825*
X1984750Y1367888*
X1984750D02*
X1985205Y1367263D01*
X1985205D02*
X1985659Y1366950D01*
X1986341*
X1986795Y1367263*
X1986795D02*
X1987250Y1367888D01*
X1989295Y1369450D02*
X1992023D01*
Y1370075*
X1991795Y1370700*
X1991568Y1371013*
X1991568D02*
X1991114Y1371325D01*
X1990432*
X1989977Y1371013*
X1989977D02*
X1989523Y1370388D01*
X1989523D02*
X1989295Y1369450D01*
Y1368825*
X1989523Y1367888*
X1989523D02*
X1989977Y1367263D01*
X1989977D02*
X1990432Y1366950D01*
X1991114*
X1991568Y1367263*
X1991568D02*
X1992023Y1367888D01*
X1994068Y1371325D02*
Y1366950D01*
Y1369450D02*
X1994295Y1370388D01*
X1994295D02*
X1994750Y1371013D01*
X1994750D02*
X1995205Y1371325D01*
X1995886*
X2006341Y1372575D02*
X2005886Y1373200D01*
X2005205Y1373513*
X2005205D02*
X2004295D01*
X2004295D02*
X2003614Y1373200D01*
X2003159Y1372575*
Y1371950*
X2003386Y1371325*
X2003614Y1371013*
X2003614D02*
X2004068Y1370700D01*
X2005432Y1370075*
X2005886Y1369763*
X2005886D02*
X2006114Y1369450D01*
X2006341Y1368825*
Y1367888*
X2006341D02*
X2005886Y1367263D01*
X2005886D02*
X2005205Y1366950D01*
X2004295*
X2003614Y1367263*
X2003614D02*
X2003159Y1367888D01*
X2008386Y1373513D02*
X2008614Y1373200D01*
X2008841Y1373513*
X2008841D02*
X2008614Y1373825D01*
X2008386Y1373513*
X2008614Y1371325D02*
Y1366950D01*
X2013614Y1373513D02*
Y1366950D01*
Y1370388D02*
X2013159Y1371013D01*
X2013159D02*
X2012705Y1371325D01*
X2012023*
X2011568Y1371013*
X2011568D02*
X2011114Y1370388D01*
X2011114D02*
X2010886Y1369450D01*
Y1368825*
X2011114Y1367888*
X2011114D02*
X2011568Y1367263D01*
X2011568D02*
X2012023Y1366950D01*
X2012705*
X2013159Y1367263*
X2013159D02*
X2013614Y1367888D01*
X2015659Y1369450D02*
X2018386D01*
Y1370075*
X2018159Y1370700*
X2017932Y1371013*
X2017932D02*
X2017477Y1371325D01*
X2016795*
X2016341Y1371013*
X2016341D02*
X2015886Y1370388D01*
X2015886D02*
X2015659Y1369450D01*
Y1368825*
X2015886Y1367888*
X2015886D02*
X2016341Y1367263D01*
X2016341D02*
X2016795Y1366950D01*
X2017477*
X2017932Y1367263*
X2017932D02*
X2018386Y1367888D01*
X2028841Y1372575D02*
X2028386Y1373200D01*
X2027705Y1373513*
X2027705D02*
X2026795D01*
X2026795D02*
X2026114Y1373200D01*
X2025659Y1372575*
Y1371950*
X2025886Y1371325*
X2026114Y1371013*
X2026114D02*
X2026568Y1370700D01*
X2027932Y1370075*
X2028386Y1369763*
X2028386D02*
X2028614Y1369450D01*
X2028841Y1368825*
Y1367888*
X2028841D02*
X2028386Y1367263D01*
X2028386D02*
X2027705Y1366950D01*
X2026795*
X2026114Y1367263*
X2026114D02*
X2025659Y1367888D01*
X2030886Y1373513D02*
X2031114Y1373200D01*
X2031341Y1373513*
X2031341D02*
X2031114Y1373825D01*
X2030886Y1373513*
X2031114Y1371325D02*
Y1366950D01*
X2033386Y1373513D02*
Y1366950D01*
X2035432Y1373513D02*
Y1366950D01*
X2037705Y1371325D02*
X2035432Y1368200D01*
X2036341Y1369450D02*
X2037932Y1366950D01*
X2042477Y1370388D02*
X2042250Y1371013D01*
X2042250D02*
X2041568Y1371325D01*
X2040886*
X2040205Y1371013*
X2040205D02*
X2039977Y1370388D01*
X2039977D02*
X2040205Y1369763D01*
X2040205D02*
X2040659Y1369450D01*
X2041795Y1369138*
X2041795D02*
X2042250Y1368825D01*
X2042477Y1368200*
Y1367888*
X2042477D02*
X2042250Y1367263D01*
X2042250D02*
X2041568Y1366950D01*
X2040886*
X2040205Y1367263*
X2040205D02*
X2039977Y1367888D01*
X2047250Y1370388D02*
X2046795Y1371013D01*
X2046795D02*
X2046341Y1371325D01*
X2045659*
X2045205Y1371013*
X2045205D02*
X2044750Y1370388D01*
X2044750D02*
X2044523Y1369450D01*
Y1368825*
X2044750Y1367888*
X2044750D02*
X2045205Y1367263D01*
X2045205D02*
X2045659Y1366950D01*
X2046341*
X2046795Y1367263*
X2046795D02*
X2047250Y1367888D01*
X2049295Y1371325D02*
Y1366950D01*
Y1369450D02*
X2049523Y1370388D01*
X2049523D02*
X2049977Y1371013D01*
X2049977D02*
X2050432Y1371325D01*
X2051114*
X2053159Y1369450D02*
X2055886D01*
Y1370075*
X2055659Y1370700*
X2055432Y1371013*
X2055432D02*
X2054977Y1371325D01*
X2054295*
X2053841Y1371013*
X2053841D02*
X2053386Y1370388D01*
X2053386D02*
X2053159Y1369450D01*
Y1368825*
X2053386Y1367888*
X2053386D02*
X2053841Y1367263D01*
X2053841D02*
X2054295Y1366950D01*
X2054977*
X2055432Y1367263*
X2055432D02*
X2055886Y1367888D01*
X2057932Y1369450D02*
X2060659D01*
Y1370075*
X2060432Y1370700*
X2060205Y1371013*
X2060205D02*
X2059750Y1371325D01*
X2059068*
X2058614Y1371013*
X2058614D02*
X2058159Y1370388D01*
X2058159D02*
X2057932Y1369450D01*
Y1368825*
X2058159Y1367888*
X2058159D02*
X2058614Y1367263D01*
X2058614D02*
X2059068Y1366950D01*
X2059750*
X2060205Y1367263*
X2060205D02*
X2060659Y1367888D01*
X2062705Y1371325D02*
Y1366950D01*
Y1370075D02*
X2063386Y1371013D01*
X2063386D02*
X2063841Y1371325D01*
X2064523*
X2064977Y1371013*
X2064977D02*
X2065205Y1370075D01*
Y1366950*
X1714750Y1399450D02*
X2189750D01*
Y1799450*
X1714750*
Y1399450*
G54D19*
X1662250Y1849450D02*
Y1849950D01*
Y1849450D02*
X1662750D01*
X1662250D02*
Y1848950D01*
Y1849450D02*
X1661750D01*
X1663750D02*
X1668750D01*
X1662250Y1847950D02*
Y1844550D01*
Y1850950D02*
Y1855450D01*
X1656250Y1849450D02*
X1660750D01*
X1665250D02*
G75*
G03X1665250I-3000J0D01*
G01X1664250D02*
G03X1664250I-2000J0D01*
G01X2337250D02*
Y1849950D01*
Y1849450D02*
X2337750D01*
X2337250D02*
Y1848950D01*
Y1849450D02*
X2336750D01*
X2338750D02*
X2343750D01*
X2337250Y1847950D02*
Y1844550D01*
Y1850950D02*
Y1855450D01*
X2331250Y1849450D02*
X2335750D01*
X2340250D02*
G03X2340250I-3000J0D01*
G01X2339250D02*
G03X2339250I-2000J0D01*
G01X1662250Y1349450D02*
Y1349950D01*
Y1349450D02*
X1662750D01*
X1662250D02*
Y1348950D01*
Y1349450D02*
X1661750D01*
X1663750D02*
X1668750D01*
X1662250Y1347950D02*
Y1344550D01*
Y1350950D02*
Y1355450D01*
X1656250Y1349450D02*
X1660750D01*
X1665250D02*
G03X1665250I-3000J0D01*
G01X1664250D02*
G03X1664250I-2000J0D01*
G54D44*
G01X1991096Y1486250D02*
Y1480954D01*
X1984404*
Y1486250*
X1991096Y1488650D02*
Y1493946D01*
X1984404*
Y1488650*
X2009346Y1473250D02*
Y1467954D01*
X2002654*
Y1473250*
X2009346Y1475650D02*
Y1480946D01*
X2002654*
Y1475650*
X2003404Y1663650D02*
Y1668946D01*
X2010096*
Y1663650*
X2003404Y1661250D02*
Y1655954D01*
X2010096*
Y1661250*
X1967404Y1497650D02*
Y1502946D01*
X1974096*
Y1497650*
X1967404Y1495250D02*
Y1489954D01*
X1974096*
Y1495250*
X1969904Y1640650D02*
Y1645946D01*
X1976596*
Y1640650*
X1969904Y1638250D02*
Y1632954D01*
X1976596*
Y1638250*
X1990596Y1628250D02*
Y1622954D01*
X1983904*
Y1628250*
X1990596Y1630650D02*
Y1635946D01*
X1983904*
Y1630650*
X1984346Y1628250D02*
Y1622954D01*
X1977654*
Y1628250*
X1984346Y1630650D02*
Y1635946D01*
X1977654*
Y1630650*
X2002904Y1521150D02*
Y1526446D01*
X2009596*
Y1521150*
X2002904Y1518750D02*
Y1513454D01*
X2009596*
Y1518750*
X2012096Y1618250D02*
Y1612954D01*
X2005404*
Y1618250*
X2012096Y1620650D02*
Y1625946D01*
X2005404*
Y1620650*
X1984596Y1486250D02*
Y1480954D01*
X1977904*
Y1486250*
X1984596Y1488650D02*
Y1493946D01*
X1977904*
Y1488650*
X1989766Y1473516D02*
X1990203Y1473357D01*
X1990641Y1473039*
X1990859Y1472720*
Y1472084*
X1990641Y1471766*
X1990203Y1471448*
X1989766Y1471289*
X1989109Y1471130*
X1988016*
X1987359Y1471289*
X1986922Y1471448*
X1986484Y1471766*
X1986266Y1472084*
Y1472720*
X1986484Y1473039*
X1986922Y1473357*
X1987359Y1473516*
X1990859Y1476539D02*
X1987797Y1474948D01*
Y1477334*
X1990859Y1476539D02*
X1986266D01*
X2015684Y1479216D02*
X2015843Y1479653D01*
X2016161Y1480091*
X2016480Y1480309*
X2017116*
X2017434Y1480091*
X2017752Y1479653*
X2017911Y1479216*
X2018070Y1478559*
Y1477466*
X2017911Y1476809*
X2017752Y1476372*
X2017434Y1475934*
X2017116Y1475716*
X2016480*
X2016161Y1475934*
X2015843Y1476372*
X2015684Y1476809*
X2012184Y1480309D02*
X2013775D01*
X2013934Y1478341*
X2013775Y1478559*
X2013298Y1478778*
X2012820*
X2012343Y1478559*
X2012025Y1478122*
X2011866Y1477466*
X2012025Y1477028*
X2012184Y1476372*
X2012502Y1475934*
X2012980Y1475716*
X2013457*
X2013934Y1475934*
X2014093Y1476153*
X2014252Y1476591*
X2018218Y1664216D02*
X2018377Y1664653D01*
X2018695Y1665091*
X2019014Y1665309*
X2019650*
X2019968Y1665091*
X2020286Y1664653*
X2020445Y1664216*
X2020605Y1663559*
Y1662466*
X2020445Y1661809*
X2020286Y1661372*
X2019968Y1660934*
X2019650Y1660716*
X2019014*
X2018695Y1660934*
X2018377Y1661372*
X2018218Y1661809*
X2016786Y1664434D02*
X2016468Y1664653D01*
X2015991Y1665309*
Y1660716*
X2014400Y1664216D02*
Y1664434D01*
X2014241Y1664872*
X2014082Y1665091*
X2013764Y1665309*
X2013127*
X2012809Y1665091*
X2012650Y1664872*
X2012491Y1664434*
Y1663997*
X2012650Y1663559*
X2012968Y1662903*
X2014559Y1660716*
X2012332*
X1964105Y1497216D02*
X1964264Y1497653D01*
X1964582Y1498091*
X1964900Y1498309*
X1965536*
X1965855Y1498091*
X1966173Y1497653*
X1966332Y1497216*
X1966491Y1496559*
Y1495466*
X1966332Y1494809*
X1966173Y1494372*
X1965855Y1493934*
X1965536Y1493716*
X1964900*
X1964582Y1493934*
X1964264Y1494372*
X1964105Y1494809*
X1960445Y1498309D02*
X1962036Y1493716D01*
X1962673Y1498309D02*
X1960445D01*
X1966139Y1640716D02*
X1966298Y1641153D01*
X1966616Y1641591*
X1966934Y1641809*
X1967570*
X1967889Y1641591*
X1968207Y1641153*
X1968366Y1640716*
X1968525Y1640059*
Y1638966*
X1968366Y1638309*
X1968207Y1637872*
X1967889Y1637434*
X1967570Y1637216*
X1966934*
X1966616Y1637434*
X1966298Y1637872*
X1966139Y1638309*
X1964707Y1640934D02*
X1964389Y1641153D01*
X1963911Y1641809*
Y1637216*
X1960570Y1641153D02*
X1960730Y1641591D01*
X1961207Y1641809*
X1961525*
X1962002Y1641591*
X1962320Y1640934*
X1962480Y1639841*
Y1638747*
X1962320Y1637872*
X1962002Y1637434*
X1961525Y1637216*
X1961366*
X1960889Y1637434*
X1960570Y1637872*
X1960411Y1638528*
Y1638747*
X1960570Y1639403*
X1960889Y1639841*
X1961366Y1640059*
X1961525*
X1962002Y1639841*
X1962320Y1639403*
X1962480Y1638747*
X1988516Y1614982D02*
X1988953Y1614823D01*
X1989391Y1614505*
X1989609Y1614186*
Y1613550*
X1989391Y1613232*
X1988953Y1612914*
X1988516Y1612755*
X1987859Y1612595*
X1986766*
X1986109Y1612755*
X1985672Y1612914*
X1985234Y1613232*
X1985016Y1613550*
Y1614186*
X1985234Y1614505*
X1985672Y1614823*
X1986109Y1614982*
X1988734Y1616414D02*
X1988953Y1616732D01*
X1989609Y1617209*
X1985016*
X1989609Y1618959D02*
Y1620709D01*
X1987859Y1619755*
Y1620232*
X1987641Y1620550*
X1987422Y1620709*
X1986766Y1620868*
X1986328*
X1985672Y1620709*
X1985234Y1620391*
X1985016Y1619914*
Y1619436*
X1985234Y1618959*
X1985453Y1618800*
X1985891Y1618641*
X1982266Y1614402D02*
X1982703Y1614243D01*
X1983141Y1613925*
X1983359Y1613607*
Y1612970*
X1983141Y1612652*
X1982703Y1612334*
X1982266Y1612175*
X1981609Y1612016*
X1980516*
X1979859Y1612175*
X1979422Y1612334*
X1978984Y1612652*
X1978766Y1612970*
Y1613607*
X1978984Y1613925*
X1979422Y1614243*
X1979859Y1614402*
X1982484Y1615834D02*
X1982703Y1616152D01*
X1983359Y1616630*
X1978766*
X1983359Y1620130D02*
Y1618539D01*
X1981391Y1618380*
X1981609Y1618539*
X1981828Y1619016*
Y1619493*
X1981609Y1619970*
X1981172Y1620289*
X1980516Y1620448*
X1980078Y1620289*
X1979422Y1620130*
X1978984Y1619811*
X1978766Y1619334*
Y1618857*
X1978984Y1618380*
X1979203Y1618220*
X1979641Y1618061*
X2015105Y1521716D02*
X2015264Y1522153D01*
X2015582Y1522591*
X2015900Y1522809*
X2016536*
X2016855Y1522591*
X2017173Y1522153*
X2017332Y1521716*
X2017491Y1521059*
Y1519966*
X2017332Y1519309*
X2017173Y1518872*
X2016855Y1518434*
X2016536Y1518216*
X2015900*
X2015582Y1518434*
X2015264Y1518872*
X2015105Y1519309*
X2013355Y1522809D02*
X2011605D01*
X2012559Y1521059*
X2012082*
X2011764Y1520841*
X2011605Y1520622*
X2011445Y1519966*
Y1519528*
X2011605Y1518872*
X2011923Y1518434*
X2012400Y1518216*
X2012877*
X2013355Y1518434*
X2013514Y1518653*
X2013673Y1519091*
X2020298Y1621216D02*
X2020457Y1621653D01*
X2020775Y1622091*
X2021093Y1622309*
X2021730*
X2022048Y1622091*
X2022366Y1621653*
X2022525Y1621216*
X2022684Y1620559*
Y1619466*
X2022525Y1618809*
X2022366Y1618372*
X2022048Y1617934*
X2021730Y1617716*
X2021093*
X2020775Y1617934*
X2020457Y1618372*
X2020298Y1618809*
X2018866Y1621434D02*
X2018548Y1621653D01*
X2018070Y1622309*
Y1617716*
X2015048Y1622309D02*
X2016639Y1619247D01*
X2014252*
X2015048Y1622309D02*
Y1617716D01*
X1982016Y1472425D02*
X1982453Y1472266D01*
X1982891Y1471948*
X1983109Y1471630*
Y1470993*
X1982891Y1470675*
X1982453Y1470357*
X1982016Y1470198*
X1981359Y1470039*
X1980266*
X1979609Y1470198*
X1979172Y1470357*
X1978734Y1470675*
X1978516Y1470993*
Y1471630*
X1978734Y1471948*
X1979172Y1472266*
X1979609Y1472425*
X1982453Y1475766D02*
X1982891Y1475607D01*
X1983109Y1475130*
Y1474811*
X1982891Y1474334*
X1982234Y1474016*
X1981141Y1473857*
X1980047*
X1979172Y1474016*
X1978734Y1474334*
X1978516Y1474811*
Y1474970*
X1978734Y1475448*
X1979172Y1475766*
X1979828Y1475925*
X1980047*
X1980703Y1475766*
X1981141Y1475448*
X1981359Y1474970*
Y1474811*
X1981141Y1474334*
X1980703Y1474016*
X1980047Y1473857*
G54D45*
G74*
X0Y0D02*
M02*
