*
*
G04 PADS9.0.1 Build Number: 350951 generated Gerber (RS-274-X) file*
G04 PC Version=2.1*
*
%IN "AD7606 x2 A.pcb"*%
*
%MOIN*%
*
%FSLAX35Y35*%
*
*
*
*
G04 PC Standard Apertures*
*
*
G04 Thermal Relief Aperture macro.*
%AMTER*
1,1,$1,0,0*
1,0,$1-$2,0,0*
21,0,$3,$4,0,0,45*
21,0,$3,$4,0,0,135*
%
*
*
G04 Annular Aperture macro.*
%AMANN*
1,1,$1,0,0*
1,0,$2,0,0*
%
*
*
G04 Odd Aperture macro.*
%AMODD*
1,1,$1,0,0*
1,0,$1-0.005,0,0*
%
*
*
G04 PC Custom Aperture Macros*
*
*
*
*
*
*
G04 PC Aperture Table*
*
%ADD016C,0.012*%
%ADD018C,0.01*%
%ADD019C,0.007*%
%ADD043C,0.02*%
%ADD044C,0.008*%
%ADD045C,0.001*%
%ADD104C,0.009*%
*
*
*
*
G04 PC Circuitry*
G04 Layer Name AD7606 x2 A.pcb - circuitry*
%LPD*%
*
*
G04 PC Custom Flashes*
G04 Layer Name AD7606 x2 A.pcb - flashes*
%LPD*%
*
*
G04 PC Circuitry*
G04 Layer Name AD7606 x2 A.pcb - circuitry*
%LPD*%
*
G54D16*
G01X1953250Y1780825D02*
G75*
G03X1953250I-6000J0D01*
G01X1960250D02*
G03X1960250I-13000J0D01*
G01X1943390Y1780375D02*
X1945690Y1778145D01*
X1950200Y1783705*
X1943250Y1780325D02*
X1945830Y1777035D01*
X1950200Y1783495*
G54D18*
X2009750Y1785450D02*
X2008295Y1780200D01*
X2009750Y1785450D02*
X2011205Y1780200D01*
X2008841Y1781950D02*
X2010659D01*
X2012841Y1785450D02*
X2014295Y1780200D01*
X2015750Y1785450D02*
X2014295Y1780200D01*
X2020114Y1784200D02*
X2019932Y1784700D01*
X2019568Y1785200*
X2019205Y1785450*
X2018477*
X2018114Y1785200*
X2017750Y1784700*
X2017568Y1784200*
X2017386Y1783450*
Y1782200*
X2017568Y1781450*
X2017750Y1780950*
X2018114Y1780450*
X2018477Y1780200*
X2019205*
X2019568Y1780450*
X2019932Y1780950*
X2020114Y1781450*
X2024477Y1784200D02*
X2024295Y1784700D01*
X2023932Y1785200*
X2023568Y1785450*
X2022841*
X2022477Y1785200*
X2022114Y1784700*
X2021932Y1784200*
X2021750Y1783450*
Y1782200*
X2021932Y1781450*
X2022114Y1780950*
X2022477Y1780450*
X2022841Y1780200*
X2023568*
X2023932Y1780450*
X2024295Y1780950*
X2024477Y1781450*
X2041068Y1784200D02*
X2040886Y1784700D01*
X2040523Y1785200*
X2040159Y1785450*
X2039432*
X2039068Y1785200*
X2038705Y1784700*
X2038523Y1784200*
X2038341Y1783450*
Y1782200*
X2038523Y1781450*
X2038705Y1780950*
X2039068Y1780450*
X2039432Y1780200*
X2040159*
X2040523Y1780450*
X2040886Y1780950*
X2041068Y1781450*
Y1782200*
X2040159D02*
X2041068D01*
X2042705Y1785450D02*
Y1780200D01*
Y1785450D02*
X2045250Y1780200D01*
Y1785450D02*
Y1780200D01*
X2046886Y1785450D02*
Y1780200D01*
Y1785450D02*
X2048159D01*
X2048705Y1785200*
X2049068Y1784700*
X2049250Y1784200*
X2049432Y1783450*
Y1782200*
X2049250Y1781450*
X2049068Y1780950*
X2048705Y1780450*
X2048159Y1780200*
X2046886*
X1881068Y1411700D02*
X1880886Y1412200D01*
X1880523Y1412700*
X1880159Y1412950*
X1879432*
X1879068Y1412700*
X1878705Y1412200*
X1878523Y1411700*
X1878341Y1410950*
Y1409700*
X1878523Y1408950*
X1878705Y1408450*
X1879068Y1407950*
X1879432Y1407700*
X1880159*
X1880523Y1407950*
X1880886Y1408450*
X1881068Y1408950*
Y1409700*
X1880159D02*
X1881068D01*
X1882705Y1412950D02*
Y1407700D01*
Y1412950D02*
X1885250Y1407700D01*
Y1412950D02*
Y1407700D01*
X1886886Y1412950D02*
Y1407700D01*
Y1412950D02*
X1888159D01*
X1888705Y1412700*
X1889068Y1412200*
X1889250Y1411700*
X1889432Y1410950*
Y1409700*
X1889250Y1408950*
X1889068Y1408450*
X1888705Y1407950*
X1888159Y1407700*
X1886886*
X1898159Y1412950D02*
X1899614Y1407700D01*
X1901068Y1412950D02*
X1899614Y1407700D01*
X1902705Y1412950D02*
Y1407700D01*
Y1412950D02*
X1903977D01*
X1904523Y1412700*
X1904886Y1412200*
X1905068Y1411700*
X1905250Y1410950*
Y1409700*
X1905068Y1408950*
X1904886Y1408450*
X1904523Y1407950*
X1903977Y1407700*
X1902705*
X1906886Y1412950D02*
Y1407700D01*
Y1412950D02*
X1908523D01*
X1909068Y1412700*
X1909250Y1412450*
X1909432Y1411950*
Y1411450*
X1909250Y1410950*
X1909068Y1410700*
X1908523Y1410450*
X1906886*
X1908159D02*
X1909432Y1407700D01*
X1911068Y1412950D02*
Y1407700D01*
X1912705Y1412950D02*
X1914159Y1407700D01*
X1915614Y1412950D02*
X1914159Y1407700D01*
X1917250Y1412950D02*
Y1407700D01*
Y1412950D02*
X1919614D01*
X1917250Y1410450D02*
X1918705D01*
X1917250Y1407700D02*
X1919614D01*
X1767250Y1734888D02*
Y1728325D01*
Y1734888D02*
X1769295D01*
X1769295D02*
X1769977Y1734575D01*
X1770205Y1734263*
X1770205D02*
X1770432Y1733638D01*
X1770432D02*
Y1733013D01*
X1770432D02*
X1770205Y1732388D01*
X1770205D02*
X1769977Y1732075D01*
X1769295Y1731763*
X1769295D02*
X1767250D01*
X1768841D02*
X1770432Y1728325D01*
X1772477Y1730825D02*
X1775205D01*
Y1731450*
X1774977Y1732075*
X1774750Y1732388*
X1774750D02*
X1774295Y1732700D01*
X1773614*
X1773159Y1732388*
X1773159D02*
X1772705Y1731763D01*
X1772705D02*
X1772477Y1730825D01*
Y1730200*
X1772705Y1729263*
X1772705D02*
X1773159Y1728638D01*
X1773159D02*
X1773614Y1728325D01*
X1774295*
X1774750Y1728638*
X1774750D02*
X1775205Y1729263D01*
X1777250Y1732700D02*
X1778614Y1728325D01*
X1779977Y1732700D02*
X1778614Y1728325D01*
X1782250Y1728950D02*
X1782023Y1728638D01*
X1782023D02*
X1782250Y1728325D01*
X1782477Y1728638*
X1782477D02*
X1782250Y1728950D01*
X1791568Y1734888D02*
X1789750Y1728325D01*
X1791568Y1734888D02*
X1793386Y1728325D01*
X1790432Y1730513D02*
X1792705D01*
X1712250Y1387388D02*
Y1380825D01*
Y1387388D02*
X1713841D01*
X1713841D02*
X1714523Y1387075D01*
X1714977Y1386450*
X1715205Y1385825*
X1715432Y1384888*
X1715432D02*
Y1383325D01*
X1715205Y1382388*
X1715205D02*
X1714977Y1381763D01*
X1714977D02*
X1714523Y1381138D01*
X1714523D02*
X1713841Y1380825D01*
X1712250*
X1717477Y1385200D02*
Y1382075D01*
X1717705Y1381138*
X1717705D02*
X1718159Y1380825D01*
X1718841*
X1719295Y1381138*
X1719295D02*
X1719977Y1382075D01*
Y1385200D02*
Y1380825D01*
X1724750Y1385200D02*
Y1380825D01*
Y1384263D02*
X1724295Y1384888D01*
X1724295D02*
X1723841Y1385200D01*
X1723159*
X1722705Y1384888*
X1722705D02*
X1722250Y1384263D01*
X1722250D02*
X1722023Y1383325D01*
Y1382700*
X1722250Y1381763*
X1722250D02*
X1722705Y1381138D01*
X1722705D02*
X1723159Y1380825D01*
X1723841*
X1724295Y1381138*
X1724295D02*
X1724750Y1381763D01*
X1726795Y1387388D02*
Y1380825D01*
X1735886Y1387388D02*
X1734068Y1380825D01*
X1735886Y1387388D02*
X1737705Y1380825D01*
X1734750Y1383013D02*
X1737023D01*
X1739750Y1387388D02*
Y1380825D01*
Y1387388D02*
X1741341D01*
X1741341D02*
X1742023Y1387075D01*
X1742477Y1386450*
X1742705Y1385825*
X1742932Y1384888*
X1742932D02*
Y1383325D01*
X1742705Y1382388*
X1742705D02*
X1742477Y1381763D01*
X1742477D02*
X1742023Y1381138D01*
X1742023D02*
X1741341Y1380825D01*
X1739750*
X1748159Y1387388D02*
X1745886Y1380825D01*
X1744977Y1387388D02*
X1748159D01*
X1752932Y1386450D02*
X1752705Y1387075D01*
X1752023Y1387388*
X1752023D02*
X1751568D01*
X1751568D02*
X1750886Y1387075D01*
X1750432Y1386138*
X1750432D02*
X1750205Y1384575D01*
Y1383013*
X1750205D02*
X1750432Y1381763D01*
X1750432D02*
X1750886Y1381138D01*
X1750886D02*
X1751568Y1380825D01*
X1751795*
X1752477Y1381138*
X1752477D02*
X1752932Y1381763D01*
X1752932D02*
X1753159Y1382700D01*
Y1383013*
X1753159D02*
X1752932Y1383950D01*
X1752477Y1384575*
X1751795Y1384888*
X1751795D02*
X1751568D01*
X1751568D02*
X1750886Y1384575D01*
X1750432Y1383950*
X1750205Y1383013*
X1756568Y1387388D02*
X1755886Y1387075D01*
X1755432Y1386138*
X1755432D02*
X1755205Y1384575D01*
Y1383638*
X1755205D02*
X1755432Y1382075D01*
X1755886Y1381138*
X1755886D02*
X1756568Y1380825D01*
X1757023*
X1757705Y1381138*
X1757705D02*
X1758159Y1382075D01*
X1758386Y1383638*
X1758386D02*
Y1384575D01*
X1758159Y1386138*
X1758159D02*
X1757705Y1387075D01*
X1757023Y1387388*
X1757023D02*
X1756568D01*
X1763159Y1386450D02*
X1762932Y1387075D01*
X1762250Y1387388*
X1762250D02*
X1761795D01*
X1761795D02*
X1761114Y1387075D01*
X1760659Y1386138*
X1760659D02*
X1760432Y1384575D01*
Y1383013*
X1760432D02*
X1760659Y1381763D01*
X1760659D02*
X1761114Y1381138D01*
X1761114D02*
X1761795Y1380825D01*
X1762023*
X1762705Y1381138*
X1762705D02*
X1763159Y1381763D01*
X1763159D02*
X1763386Y1382700D01*
Y1383013*
X1763386D02*
X1763159Y1383950D01*
X1762705Y1384575*
X1762023Y1384888*
X1762023D02*
X1761795D01*
X1761795D02*
X1761114Y1384575D01*
X1760659Y1383950*
X1760432Y1383013*
X1770659Y1387388D02*
Y1380825D01*
Y1387388D02*
X1773614D01*
X1770659Y1384263D02*
X1772477D01*
X1770659Y1380825D02*
X1773614D01*
X1775659Y1387388D02*
Y1380825D01*
Y1387388D02*
X1777250D01*
X1777250D02*
X1777932Y1387075D01*
X1778386Y1386450*
X1778614Y1385825*
X1778841Y1384888*
X1778841D02*
Y1383325D01*
X1778614Y1382388*
X1778614D02*
X1778386Y1381763D01*
X1778386D02*
X1777932Y1381138D01*
X1777932D02*
X1777250Y1380825D01*
X1775659*
X1784068Y1387388D02*
X1780886Y1380825D01*
Y1387388D02*
X1784068D01*
X1780886Y1380825D02*
X1784068D01*
X1792932Y1388638D02*
X1792477Y1388013D01*
X1792477D02*
X1792023Y1387075D01*
X1791568Y1385825*
X1791341Y1384263*
X1791341D02*
Y1383013D01*
X1791341D02*
X1791568Y1381450D01*
X1792023Y1380200*
X1792477Y1379262*
X1792477D02*
X1792932Y1378637D01*
X1794977Y1387388D02*
Y1380825D01*
Y1387388D02*
X1797023D01*
X1797023D02*
X1797705Y1387075D01*
X1797932Y1386763*
X1797932D02*
X1798159Y1386138D01*
X1798159D02*
Y1385513D01*
X1798159D02*
X1797932Y1384888D01*
X1797932D02*
X1797705Y1384575D01*
X1797023Y1384263*
X1797023D02*
X1794977D01*
X1796568D02*
X1798159Y1380825D01*
X1800205Y1383325D02*
X1802932D01*
Y1383950*
X1802705Y1384575*
X1802477Y1384888*
X1802477D02*
X1802023Y1385200D01*
X1801341*
X1800886Y1384888*
X1800886D02*
X1800432Y1384263D01*
X1800432D02*
X1800205Y1383325D01*
Y1382700*
X1800432Y1381763*
X1800432D02*
X1800886Y1381138D01*
X1800886D02*
X1801341Y1380825D01*
X1802023*
X1802477Y1381138*
X1802477D02*
X1802932Y1381763D01*
X1804977Y1385200D02*
X1806341Y1380825D01*
X1807705Y1385200D02*
X1806341Y1380825D01*
X1809977Y1381450D02*
X1809750Y1381138D01*
X1809750D02*
X1809977Y1380825D01*
X1810205Y1381138*
X1810205D02*
X1809977Y1381450D01*
X1819295Y1387388D02*
X1817477Y1380825D01*
X1819295Y1387388D02*
X1821114Y1380825D01*
X1818159Y1383013D02*
X1820432D01*
X1823159Y1388638D02*
X1823614Y1388013D01*
X1823614D02*
X1824068Y1387075D01*
X1824523Y1385825*
X1824750Y1384263*
X1824750D02*
Y1383013D01*
X1824750D02*
X1824523Y1381450D01*
X1824068Y1380200*
X1823614Y1379262*
X1823614D02*
X1823159Y1378637D01*
X1832023Y1383638D02*
X1836114D01*
X1846795Y1385825D02*
X1846568Y1386450D01*
X1846114Y1387075*
X1845659Y1387388*
X1845659D02*
X1844750D01*
X1844750D02*
X1844295Y1387075D01*
X1843841Y1386450*
X1843614Y1385825*
X1843386Y1384888*
X1843386D02*
Y1383325D01*
X1843614Y1382388*
X1843614D02*
X1843841Y1381763D01*
X1843841D02*
X1844295Y1381138D01*
X1844295D02*
X1844750Y1380825D01*
X1845659*
X1846114Y1381138*
X1846114D02*
X1846568Y1381763D01*
X1846568D02*
X1846795Y1382388D01*
X1849977Y1385200D02*
X1849523Y1384888D01*
X1849523D02*
X1849068Y1384263D01*
X1849068D02*
X1848841Y1383325D01*
Y1382700*
X1849068Y1381763*
X1849068D02*
X1849523Y1381138D01*
X1849523D02*
X1849977Y1380825D01*
X1850659*
X1851114Y1381138*
X1851114D02*
X1851568Y1381763D01*
X1851568D02*
X1851795Y1382700D01*
Y1383325*
X1851568Y1384263*
X1851568D02*
X1851114Y1384888D01*
X1851114D02*
X1850659Y1385200D01*
X1849977*
X1853841D02*
Y1380825D01*
Y1383950D02*
X1854523Y1384888D01*
X1854523D02*
X1854977Y1385200D01*
X1855659*
X1856114Y1384888*
X1856114D02*
X1856341Y1383950D01*
Y1380825*
Y1383950D02*
X1857023Y1384888D01*
X1857023D02*
X1857477Y1385200D01*
X1858159*
X1858614Y1384888*
X1858614D02*
X1858841Y1383950D01*
Y1380825*
X1860886Y1385200D02*
Y1378637D01*
Y1384263D02*
X1861341Y1384888D01*
X1861341D02*
X1861795Y1385200D01*
X1862477*
X1862932Y1384888*
X1862932D02*
X1863386Y1384263D01*
X1863386D02*
X1863614Y1383325D01*
Y1382700*
X1863386Y1381763*
X1863386D02*
X1862932Y1381138D01*
X1862932D02*
X1862477Y1380825D01*
X1861795*
X1861341Y1381138*
X1861341D02*
X1860886Y1381763D01*
X1866795Y1385200D02*
X1866341Y1384888D01*
X1866341D02*
X1865886Y1384263D01*
X1865886D02*
X1865659Y1383325D01*
Y1382700*
X1865886Y1381763*
X1865886D02*
X1866341Y1381138D01*
X1866341D02*
X1866795Y1380825D01*
X1867477*
X1867932Y1381138*
X1867932D02*
X1868386Y1381763D01*
X1868386D02*
X1868614Y1382700D01*
Y1383325*
X1868386Y1384263*
X1868386D02*
X1867932Y1384888D01*
X1867932D02*
X1867477Y1385200D01*
X1866795*
X1870659D02*
Y1380825D01*
Y1383950D02*
X1871341Y1384888D01*
X1871341D02*
X1871795Y1385200D01*
X1872477*
X1872932Y1384888*
X1872932D02*
X1873159Y1383950D01*
Y1380825*
X1875205Y1383325D02*
X1877932D01*
Y1383950*
X1877705Y1384575*
X1877477Y1384888*
X1877477D02*
X1877023Y1385200D01*
X1876341*
X1875886Y1384888*
X1875886D02*
X1875432Y1384263D01*
X1875432D02*
X1875205Y1383325D01*
Y1382700*
X1875432Y1381763*
X1875432D02*
X1875886Y1381138D01*
X1875886D02*
X1876341Y1380825D01*
X1877023*
X1877477Y1381138*
X1877477D02*
X1877932Y1381763D01*
X1879977Y1385200D02*
Y1380825D01*
Y1383950D02*
X1880659Y1384888D01*
X1880659D02*
X1881114Y1385200D01*
X1881795*
X1882250Y1384888*
X1882250D02*
X1882477Y1383950D01*
Y1380825*
X1885205Y1387388D02*
Y1382075D01*
X1885432Y1381138*
X1885432D02*
X1885886Y1380825D01*
X1886341*
X1884523Y1385200D02*
X1886114D01*
X1896795Y1386450D02*
X1896341Y1387075D01*
X1895659Y1387388*
X1895659D02*
X1894750D01*
X1894750D02*
X1894068Y1387075D01*
X1893614Y1386450*
Y1385825*
X1893841Y1385200*
X1894068Y1384888*
X1894068D02*
X1894523Y1384575D01*
X1895886Y1383950*
X1896341Y1383638*
X1896341D02*
X1896568Y1383325D01*
X1896795Y1382700*
Y1381763*
X1896795D02*
X1896341Y1381138D01*
X1896341D02*
X1895659Y1380825D01*
X1894750*
X1894068Y1381138*
X1894068D02*
X1893614Y1381763D01*
X1898841Y1387388D02*
X1899068Y1387075D01*
X1899295Y1387388*
X1899295D02*
X1899068Y1387700D01*
X1898841Y1387388*
X1899068Y1385200D02*
Y1380825D01*
X1904068Y1387388D02*
Y1380825D01*
Y1384263D02*
X1903614Y1384888D01*
X1903614D02*
X1903159Y1385200D01*
X1902477*
X1902023Y1384888*
X1902023D02*
X1901568Y1384263D01*
X1901568D02*
X1901341Y1383325D01*
Y1382700*
X1901568Y1381763*
X1901568D02*
X1902023Y1381138D01*
X1902023D02*
X1902477Y1380825D01*
X1903159*
X1903614Y1381138*
X1903614D02*
X1904068Y1381763D01*
X1906114Y1383325D02*
X1908841D01*
Y1383950*
X1908614Y1384575*
X1908386Y1384888*
X1908386D02*
X1907932Y1385200D01*
X1907250*
X1906795Y1384888*
X1906795D02*
X1906341Y1384263D01*
X1906341D02*
X1906114Y1383325D01*
Y1382700*
X1906341Y1381763*
X1906341D02*
X1906795Y1381138D01*
X1906795D02*
X1907250Y1380825D01*
X1907932*
X1908386Y1381138*
X1908386D02*
X1908841Y1381763D01*
X1916114Y1387388D02*
X1917932Y1380825D01*
X1919750Y1387388D02*
X1917932Y1380825D01*
X1921795Y1387388D02*
X1922023Y1387075D01*
X1922250Y1387388*
X1922250D02*
X1922023Y1387700D01*
X1921795Y1387388*
X1922023Y1385200D02*
Y1380825D01*
X1924295Y1383325D02*
X1927023D01*
Y1383950*
X1926795Y1384575*
X1926568Y1384888*
X1926568D02*
X1926114Y1385200D01*
X1925432*
X1924977Y1384888*
X1924977D02*
X1924523Y1384263D01*
X1924523D02*
X1924295Y1383325D01*
Y1382700*
X1924523Y1381763*
X1924523D02*
X1924977Y1381138D01*
X1924977D02*
X1925432Y1380825D01*
X1926114*
X1926568Y1381138*
X1926568D02*
X1927023Y1381763D01*
X1929068Y1385200D02*
X1929977Y1380825D01*
X1930886Y1385200D02*
X1929977Y1380825D01*
X1930886Y1385200D02*
X1931795Y1380825D01*
X1932705Y1385200D02*
X1931795Y1380825D01*
X1974409Y1348325D02*
X1974182Y1348950D01*
X1973727Y1349575*
X1973273Y1349888*
X1973273D02*
X1972364D01*
X1972364D02*
X1971909Y1349575D01*
X1971455Y1348950*
X1971227Y1348325*
X1971000Y1347388*
X1971000D02*
Y1345825D01*
X1971227Y1344888*
X1971227D02*
X1971455Y1344263D01*
X1971455D02*
X1971909Y1343638D01*
X1971909D02*
X1972364Y1343325D01*
X1973273*
X1973727Y1343638*
X1973727D02*
X1974182Y1344263D01*
X1974182D02*
X1974409Y1344888D01*
X1977591Y1347700D02*
X1977136Y1347388D01*
X1977136D02*
X1976682Y1346763D01*
X1976682D02*
X1976455Y1345825D01*
Y1345200*
X1976682Y1344263*
X1976682D02*
X1977136Y1343638D01*
X1977136D02*
X1977591Y1343325D01*
X1978273*
X1978727Y1343638*
X1978727D02*
X1979182Y1344263D01*
X1979182D02*
X1979409Y1345200D01*
Y1345825*
X1979182Y1346763*
X1979182D02*
X1978727Y1347388D01*
X1978727D02*
X1978273Y1347700D01*
X1977591*
X1981455D02*
Y1343325D01*
Y1346450D02*
X1982136Y1347388D01*
X1982136D02*
X1982591Y1347700D01*
X1983273*
X1983727Y1347388*
X1983727D02*
X1983955Y1346450D01*
Y1343325*
Y1346450D02*
X1984636Y1347388D01*
X1984636D02*
X1985091Y1347700D01*
X1985773*
X1986227Y1347388*
X1986227D02*
X1986455Y1346450D01*
Y1343325*
X1988500Y1347700D02*
Y1341137D01*
Y1346763D02*
X1988955Y1347388D01*
X1988955D02*
X1989409Y1347700D01*
X1990091*
X1990545Y1347388*
X1990545D02*
X1991000Y1346763D01*
X1991000D02*
X1991227Y1345825D01*
Y1345200*
X1991000Y1344263*
X1991000D02*
X1990545Y1343638D01*
X1990545D02*
X1990091Y1343325D01*
X1989409*
X1988955Y1343638*
X1988955D02*
X1988500Y1344263D01*
X1994409Y1347700D02*
X1993955Y1347388D01*
X1993955D02*
X1993500Y1346763D01*
X1993500D02*
X1993273Y1345825D01*
Y1345200*
X1993500Y1344263*
X1993500D02*
X1993955Y1343638D01*
X1993955D02*
X1994409Y1343325D01*
X1995091*
X1995545Y1343638*
X1995545D02*
X1996000Y1344263D01*
X1996000D02*
X1996227Y1345200D01*
Y1345825*
X1996000Y1346763*
X1996000D02*
X1995545Y1347388D01*
X1995545D02*
X1995091Y1347700D01*
X1994409*
X1998273D02*
Y1343325D01*
Y1346450D02*
X1998955Y1347388D01*
X1998955D02*
X1999409Y1347700D01*
X2000091*
X2000545Y1347388*
X2000545D02*
X2000773Y1346450D01*
Y1343325*
X2002818Y1345825D02*
X2005545D01*
Y1346450*
X2005318Y1347075*
X2005091Y1347388*
X2005091D02*
X2004636Y1347700D01*
X2003955*
X2003500Y1347388*
X2003500D02*
X2003045Y1346763D01*
X2003045D02*
X2002818Y1345825D01*
Y1345200*
X2003045Y1344263*
X2003045D02*
X2003500Y1343638D01*
X2003500D02*
X2003955Y1343325D01*
X2004636*
X2005091Y1343638*
X2005091D02*
X2005545Y1344263D01*
X2007591Y1347700D02*
Y1343325D01*
Y1346450D02*
X2008273Y1347388D01*
X2008273D02*
X2008727Y1347700D01*
X2009409*
X2009864Y1347388*
X2009864D02*
X2010091Y1346450D01*
Y1343325*
X2012818Y1349888D02*
Y1344575D01*
X2013045Y1343638*
X2013045D02*
X2013500Y1343325D01*
X2013955*
X2012136Y1347700D02*
X2013727D01*
X2024409Y1348950D02*
X2023955Y1349575D01*
X2023273Y1349888*
X2023273D02*
X2022364D01*
X2022364D02*
X2021682Y1349575D01*
X2021227Y1348950*
Y1348325*
X2021455Y1347700*
X2021682Y1347388*
X2021682D02*
X2022136Y1347075D01*
X2023500Y1346450*
X2023955Y1346138*
X2023955D02*
X2024182Y1345825D01*
X2024409Y1345200*
Y1344263*
X2024409D02*
X2023955Y1343638D01*
X2023955D02*
X2023273Y1343325D01*
X2022364*
X2021682Y1343638*
X2021682D02*
X2021227Y1344263D01*
X2026455Y1349888D02*
X2026682Y1349575D01*
X2026909Y1349888*
X2026909D02*
X2026682Y1350200D01*
X2026455Y1349888*
X2026682Y1347700D02*
Y1343325D01*
X2031682Y1349888D02*
Y1343325D01*
Y1346763D02*
X2031227Y1347388D01*
X2031227D02*
X2030773Y1347700D01*
X2030091*
X2029636Y1347388*
X2029636D02*
X2029182Y1346763D01*
X2029182D02*
X2028955Y1345825D01*
Y1345200*
X2029182Y1344263*
X2029182D02*
X2029636Y1343638D01*
X2029636D02*
X2030091Y1343325D01*
X2030773*
X2031227Y1343638*
X2031227D02*
X2031682Y1344263D01*
X2033727Y1345825D02*
X2036455D01*
Y1346450*
X2036227Y1347075*
X2036000Y1347388*
X2036000D02*
X2035545Y1347700D01*
X2034864*
X2034409Y1347388*
X2034409D02*
X2033955Y1346763D01*
X2033955D02*
X2033727Y1345825D01*
Y1345200*
X2033955Y1344263*
X2033955D02*
X2034409Y1343638D01*
X2034409D02*
X2034864Y1343325D01*
X2035545*
X2036000Y1343638*
X2036000D02*
X2036455Y1344263D01*
X2046909Y1348950D02*
X2046455Y1349575D01*
X2045773Y1349888*
X2045773D02*
X2044864D01*
X2044864D02*
X2044182Y1349575D01*
X2043727Y1348950*
Y1348325*
X2043955Y1347700*
X2044182Y1347388*
X2044182D02*
X2044636Y1347075D01*
X2046000Y1346450*
X2046455Y1346138*
X2046455D02*
X2046682Y1345825D01*
X2046909Y1345200*
Y1344263*
X2046909D02*
X2046455Y1343638D01*
X2046455D02*
X2045773Y1343325D01*
X2044864*
X2044182Y1343638*
X2044182D02*
X2043727Y1344263D01*
X2048955Y1349888D02*
X2049182Y1349575D01*
X2049409Y1349888*
X2049409D02*
X2049182Y1350200D01*
X2048955Y1349888*
X2049182Y1347700D02*
Y1343325D01*
X2051455Y1349888D02*
Y1343325D01*
X2053500Y1349888D02*
Y1343325D01*
X2055773Y1347700D02*
X2053500Y1344575D01*
X2054409Y1345825D02*
X2056000Y1343325D01*
X2060545Y1346763D02*
X2060318Y1347388D01*
X2060318D02*
X2059636Y1347700D01*
X2058955*
X2058273Y1347388*
X2058273D02*
X2058045Y1346763D01*
X2058045D02*
X2058273Y1346138D01*
X2058273D02*
X2058727Y1345825D01*
X2059864Y1345513*
X2059864D02*
X2060318Y1345200D01*
X2060545Y1344575*
Y1344263*
X2060545D02*
X2060318Y1343638D01*
X2060318D02*
X2059636Y1343325D01*
X2058955*
X2058273Y1343638*
X2058273D02*
X2058045Y1344263D01*
X2065318Y1346763D02*
X2064864Y1347388D01*
X2064864D02*
X2064409Y1347700D01*
X2063727*
X2063273Y1347388*
X2063273D02*
X2062818Y1346763D01*
X2062818D02*
X2062591Y1345825D01*
Y1345200*
X2062818Y1344263*
X2062818D02*
X2063273Y1343638D01*
X2063273D02*
X2063727Y1343325D01*
X2064409*
X2064864Y1343638*
X2064864D02*
X2065318Y1344263D01*
X2067364Y1347700D02*
Y1343325D01*
Y1345825D02*
X2067591Y1346763D01*
X2067591D02*
X2068045Y1347388D01*
X2068045D02*
X2068500Y1347700D01*
X2069182*
X2071227Y1345825D02*
X2073955D01*
Y1346450*
X2073727Y1347075*
X2073500Y1347388*
X2073500D02*
X2073045Y1347700D01*
X2072364*
X2071909Y1347388*
X2071909D02*
X2071455Y1346763D01*
X2071455D02*
X2071227Y1345825D01*
Y1345200*
X2071455Y1344263*
X2071455D02*
X2071909Y1343638D01*
X2071909D02*
X2072364Y1343325D01*
X2073045*
X2073500Y1343638*
X2073500D02*
X2073955Y1344263D01*
X2076000Y1345825D02*
X2078727D01*
Y1346450*
X2078500Y1347075*
X2078273Y1347388*
X2078273D02*
X2077818Y1347700D01*
X2077136*
X2076682Y1347388*
X2076682D02*
X2076227Y1346763D01*
X2076227D02*
X2076000Y1345825D01*
Y1345200*
X2076227Y1344263*
X2076227D02*
X2076682Y1343638D01*
X2076682D02*
X2077136Y1343325D01*
X2077818*
X2078273Y1343638*
X2078273D02*
X2078727Y1344263D01*
X2080773Y1347700D02*
Y1343325D01*
Y1346450D02*
X2081455Y1347388D01*
X2081455D02*
X2081909Y1347700D01*
X2082591*
X2083045Y1347388*
X2083045D02*
X2083273Y1346450D01*
Y1343325*
X2147625Y1609689D02*
X2152875Y1608234D01*
X2147625Y1609689D02*
X2152875Y1611143D01*
X2151125Y1608780D02*
Y1610598D01*
X2147625Y1612780D02*
X2152875D01*
X2147625D02*
Y1614052D01*
X2147875Y1614598*
X2148375Y1614961*
X2148875Y1615143*
X2149625Y1615325*
X2150875*
X2151625Y1615143*
X2152125Y1614961*
X2152625Y1614598*
X2152875Y1614052*
Y1612780*
X2148875Y1619689D02*
X2148375Y1619507D01*
X2147875Y1619143*
X2147625Y1618780*
Y1618052*
X2147875Y1617689*
X2148375Y1617325*
X2148875Y1617143*
X2149625Y1616961*
X2150875*
X2151625Y1617143*
X2152125Y1617325*
X2152625Y1617689*
X2152875Y1618052*
Y1618780*
X2152625Y1619143*
X2152125Y1619507*
X2151625Y1619689*
X2147625Y1625507D02*
X2152875D01*
X2149375Y1627143D02*
X2152875D01*
X2150375D02*
X2149625Y1627689D01*
X2149375Y1628052*
Y1628598*
X2149625Y1628961*
X2150375Y1629143*
X2152875*
X2149375Y1630780D02*
X2154625D01*
X2150125D02*
X2149625Y1631143D01*
X2149375Y1631507*
Y1632052*
X2149625Y1632416*
X2150125Y1632780*
X2150875Y1632961*
X2151375*
X2152125Y1632780*
X2152625Y1632416*
X2152875Y1632052*
Y1631507*
X2152625Y1631143*
X2152125Y1630780*
X2149375Y1634598D02*
X2151875D01*
X2152625Y1634780*
X2152875Y1635143*
Y1635689*
X2152625Y1636052*
X2151875Y1636598*
X2149375D02*
X2152875D01*
X2147625Y1638780D02*
X2151875D01*
X2152625Y1638961*
X2152875Y1639325*
Y1639689*
X2149375Y1638234D02*
Y1639507D01*
X2150125Y1643325D02*
X2149625Y1643143D01*
X2149375Y1642598*
Y1642052*
X2149625Y1641507*
X2150125Y1641325*
X2150625Y1641507*
X2150875Y1641870*
X2151125Y1642780*
X2151375Y1643143*
X2151875Y1643325*
X2152125*
X2152625Y1643143*
X2152875Y1642598*
Y1642052*
X2152625Y1641507*
X2152125Y1641325*
X2146625Y1650416D02*
X2147125Y1650052D01*
X2147875Y1649689*
X2148875Y1649325*
X2150125Y1649143*
X2151125*
X2152375Y1649325*
X2153375Y1649689*
X2154125Y1650052*
X2154625Y1650416*
X2147625Y1652052D02*
X2151375D01*
X2152125Y1652234*
X2152625Y1652598*
X2152875Y1653143*
Y1653507*
X2152625Y1654052*
X2152125Y1654416*
X2151375Y1654598*
X2147625*
X2148875Y1656416D02*
X2148625D01*
X2148125Y1656598*
X2147875Y1656780*
X2147625Y1657143*
Y1657870*
X2147875Y1658234*
X2148125Y1658416*
X2148625Y1658598*
X2149125*
X2149625Y1658416*
X2150375Y1658052*
X2152875Y1656234*
Y1658780*
X2146625Y1660416D02*
X2147125Y1660780D01*
X2147875Y1661143*
X2148875Y1661507*
X2150125Y1661689*
X2151125*
X2152375Y1661507*
X2153375Y1661143*
X2154125Y1660780*
X2154625Y1660416*
X2147625Y1470507D02*
X2152875Y1469052D01*
X2147625Y1470507D02*
X2152875Y1471961D01*
X2151125Y1469598D02*
Y1471416D01*
X2147625Y1473598D02*
X2152875D01*
X2147625D02*
Y1474870D01*
X2147875Y1475416*
X2148375Y1475780*
X2148875Y1475961*
X2149625Y1476143*
X2150875*
X2151625Y1475961*
X2152125Y1475780*
X2152625Y1475416*
X2152875Y1474870*
Y1473598*
X2148875Y1480507D02*
X2148375Y1480325D01*
X2147875Y1479961*
X2147625Y1479598*
Y1478870*
X2147875Y1478507*
X2148375Y1478143*
X2148875Y1477961*
X2149625Y1477780*
X2150875*
X2151625Y1477961*
X2152125Y1478143*
X2152625Y1478507*
X2152875Y1478870*
Y1479598*
X2152625Y1479961*
X2152125Y1480325*
X2151625Y1480507*
X2147625Y1486325D02*
X2152875D01*
X2149375Y1487961D02*
X2152875D01*
X2150375D02*
X2149625Y1488507D01*
X2149375Y1488870*
Y1489416*
X2149625Y1489780*
X2150375Y1489961*
X2152875*
X2149375Y1491598D02*
X2154625D01*
X2150125D02*
X2149625Y1491961D01*
X2149375Y1492325*
Y1492870*
X2149625Y1493234*
X2150125Y1493598*
X2150875Y1493780*
X2151375*
X2152125Y1493598*
X2152625Y1493234*
X2152875Y1492870*
Y1492325*
X2152625Y1491961*
X2152125Y1491598*
X2149375Y1495416D02*
X2151875D01*
X2152625Y1495598*
X2152875Y1495961*
Y1496507*
X2152625Y1496870*
X2151875Y1497416*
X2149375D02*
X2152875D01*
X2147625Y1499598D02*
X2151875D01*
X2152625Y1499780*
X2152875Y1500143*
Y1500507*
X2149375Y1499052D02*
Y1500325D01*
X2150125Y1504143D02*
X2149625Y1503961D01*
X2149375Y1503416*
Y1502870*
X2149625Y1502325*
X2150125Y1502143*
X2150625Y1502325*
X2150875Y1502689*
X2151125Y1503598*
X2151375Y1503961*
X2151875Y1504143*
X2152125*
X2152625Y1503961*
X2152875Y1503416*
Y1502870*
X2152625Y1502325*
X2152125Y1502143*
X2146625Y1511234D02*
X2147125Y1510870D01*
X2147875Y1510507*
X2148875Y1510143*
X2150125Y1509961*
X2151125*
X2152375Y1510143*
X2153375Y1510507*
X2154125Y1510870*
X2154625Y1511234*
X2147625Y1512870D02*
X2151375D01*
X2152125Y1513052*
X2152625Y1513416*
X2152875Y1513961*
Y1514325*
X2152625Y1514870*
X2152125Y1515234*
X2151375Y1515416*
X2147625*
X2148625Y1517052D02*
X2148375Y1517416D01*
X2147625Y1517961*
X2152875*
X2146625Y1519598D02*
X2147125Y1519961D01*
X2147875Y1520325*
X2148875Y1520689*
X2150125Y1520870*
X2151125*
X2152375Y1520689*
X2153375Y1520325*
X2154125Y1519961*
X2154625Y1519598*
X2108523Y1605981D02*
X2110341Y1599419D01*
X2112159Y1605981D02*
X2110341Y1599419D01*
X2114205Y1604731D02*
X2114659Y1605044D01*
X2115341Y1605981*
Y1599419*
X2106477Y1615981D02*
X2108295Y1609419D01*
X2110114Y1615981D02*
X2108295Y1609419D01*
X2112386Y1614419D02*
Y1614731D01*
X2112614Y1615356*
X2112841Y1615669*
X2113295Y1615981*
X2114205*
X2114659Y1615669*
X2114886Y1615356*
X2115114Y1614731*
Y1614106*
X2114886Y1613481*
X2114432Y1612544*
X2112159Y1609419*
X2115341*
X2106477Y1625981D02*
X2108295Y1619419D01*
X2110114Y1625981D02*
X2108295Y1619419D01*
X2112614Y1625981D02*
X2115114D01*
X2113750Y1623481*
X2114432*
X2114886Y1623169*
X2115114Y1622856*
X2115341Y1621919*
Y1621294*
X2115114Y1620356*
X2114659Y1619731*
X2113977Y1619419*
X2113295*
X2112614Y1619731*
X2112386Y1620044*
X2112159Y1620669*
X2106250Y1635981D02*
X2108068Y1629419D01*
X2109886Y1635981D02*
X2108068Y1629419D01*
X2114205Y1635981D02*
X2111932Y1631606D01*
X2115341*
X2114205Y1635981D02*
Y1629419D01*
X2106250Y1645981D02*
X2108068Y1639419D01*
X2109886Y1645981D02*
X2108068Y1639419D01*
X2114886Y1645981D02*
X2112614D01*
X2112386Y1643169*
X2112614Y1643481*
X2113295Y1643794*
X2113977*
X2114659Y1643481*
X2115114Y1642856*
X2115341Y1641919*
X2115114Y1641294*
X2114886Y1640356*
X2114432Y1639731*
X2113750Y1639419*
X2113068*
X2112386Y1639731*
X2112159Y1640044*
X2111932Y1640669*
X2106705Y1655981D02*
X2108523Y1649419D01*
X2110341Y1655981D02*
X2108523Y1649419D01*
X2115114Y1655044D02*
X2114886Y1655669D01*
X2114205Y1655981*
X2113750*
X2113068Y1655669*
X2112614Y1654731*
X2112386Y1653169*
Y1651606*
X2112614Y1650356*
X2113068Y1649731*
X2113750Y1649419*
X2113977*
X2114659Y1649731*
X2115114Y1650356*
X2115341Y1651294*
Y1651606*
X2115114Y1652544*
X2114659Y1653169*
X2113977Y1653481*
X2113750*
X2113068Y1653169*
X2112614Y1652544*
X2112386Y1651606*
X2106477Y1665981D02*
X2108295Y1659419D01*
X2110114Y1665981D02*
X2108295Y1659419D01*
X2115341Y1665981D02*
X2113068Y1659419D01*
X2112159Y1665981D02*
X2115341D01*
X2106477Y1675981D02*
X2108295Y1669419D01*
X2110114Y1675981D02*
X2108295Y1669419D01*
X2113295Y1675981D02*
X2112614Y1675669D01*
X2112386Y1675044*
Y1674419*
X2112614Y1673794*
X2113068Y1673481*
X2113977Y1673169*
X2114659Y1672856*
X2115114Y1672231*
X2115341Y1671606*
Y1670669*
X2115114Y1670044*
X2114886Y1669731*
X2114205Y1669419*
X2113295*
X2112614Y1669731*
X2112386Y1670044*
X2112159Y1670669*
Y1671606*
X2112386Y1672231*
X2112841Y1672856*
X2113523Y1673169*
X2114432Y1673481*
X2114886Y1673794*
X2115114Y1674419*
Y1675044*
X2114886Y1675669*
X2114205Y1675981*
X2113295*
X2106477Y1533481D02*
X2108295Y1526919D01*
X2110114Y1533481D02*
X2108295Y1526919D01*
X2113295Y1533481D02*
X2112614Y1533169D01*
X2112386Y1532544*
Y1531919*
X2112614Y1531294*
X2113068Y1530981*
X2113977Y1530669*
X2114659Y1530356*
X2115114Y1529731*
X2115341Y1529106*
Y1528169*
X2115114Y1527544*
X2114886Y1527231*
X2114205Y1526919*
X2113295*
X2112614Y1527231*
X2112386Y1527544*
X2112159Y1528169*
Y1529106*
X2112386Y1529731*
X2112841Y1530356*
X2113523Y1530669*
X2114432Y1530981*
X2114886Y1531294*
X2115114Y1531919*
Y1532544*
X2114886Y1533169*
X2114205Y1533481*
X2113295*
X2106477Y1523481D02*
X2108295Y1516919D01*
X2110114Y1523481D02*
X2108295Y1516919D01*
X2115341Y1523481D02*
X2113068Y1516919D01*
X2112159Y1523481D02*
X2115341D01*
X2106705Y1513481D02*
X2108523Y1506919D01*
X2110341Y1513481D02*
X2108523Y1506919D01*
X2115114Y1512544D02*
X2114886Y1513169D01*
X2114205Y1513481*
X2113750*
X2113068Y1513169*
X2112614Y1512231*
X2112386Y1510669*
Y1509106*
X2112614Y1507856*
X2113068Y1507231*
X2113750Y1506919*
X2113977*
X2114659Y1507231*
X2115114Y1507856*
X2115341Y1508794*
Y1509106*
X2115114Y1510044*
X2114659Y1510669*
X2113977Y1510981*
X2113750*
X2113068Y1510669*
X2112614Y1510044*
X2112386Y1509106*
X2106250Y1503481D02*
X2108068Y1496919D01*
X2109886Y1503481D02*
X2108068Y1496919D01*
X2114886Y1503481D02*
X2112614D01*
X2112386Y1500669*
X2112614Y1500981*
X2113295Y1501294*
X2113977*
X2114659Y1500981*
X2115114Y1500356*
X2115341Y1499419*
X2115114Y1498794*
X2114886Y1497856*
X2114432Y1497231*
X2113750Y1496919*
X2113068*
X2112386Y1497231*
X2112159Y1497544*
X2111932Y1498169*
X2106250Y1493481D02*
X2108068Y1486919D01*
X2109886Y1493481D02*
X2108068Y1486919D01*
X2114205Y1493481D02*
X2111932Y1489106D01*
X2115341*
X2114205Y1493481D02*
Y1486919D01*
X2106477Y1483481D02*
X2108295Y1476919D01*
X2110114Y1483481D02*
X2108295Y1476919D01*
X2112614Y1483481D02*
X2115114D01*
X2113750Y1480981*
X2114432*
X2114886Y1480669*
X2115114Y1480356*
X2115341Y1479419*
Y1478794*
X2115114Y1477856*
X2114659Y1477231*
X2113977Y1476919*
X2113295*
X2112614Y1477231*
X2112386Y1477544*
X2112159Y1478169*
X2106477Y1473481D02*
X2108295Y1466919D01*
X2110114Y1473481D02*
X2108295Y1466919D01*
X2112386Y1471919D02*
Y1472231D01*
X2112614Y1472856*
X2112841Y1473169*
X2113295Y1473481*
X2114205*
X2114659Y1473169*
X2114886Y1472856*
X2115114Y1472231*
Y1471606*
X2114886Y1470981*
X2114432Y1470044*
X2112159Y1466919*
X2115341*
X2108523Y1463481D02*
X2110341Y1456919D01*
X2112159Y1463481D02*
X2110341Y1456919D01*
X2114205Y1462231D02*
X2114659Y1462544D01*
X2115341Y1463481*
Y1456919*
X1714750Y1400825D02*
X2189750D01*
Y1800825*
X1714750*
Y1400825*
G54D19*
X1662250Y1850825D02*
Y1851325D01*
Y1850825D02*
X1662750D01*
X1662250D02*
Y1850325D01*
Y1850825D02*
X1661750D01*
X1663750D02*
X1668750D01*
X1662250Y1849325D02*
Y1845925D01*
Y1852325D02*
Y1856825D01*
X1656250Y1850825D02*
X1660750D01*
X1665250D02*
G03X1665250I-3000J0D01*
G01X1664250D02*
G03X1664250I-2000J0D01*
G01X2337250D02*
Y1851325D01*
Y1850825D02*
X2337750D01*
X2337250D02*
Y1850325D01*
Y1850825D02*
X2336750D01*
X2338750D02*
X2343750D01*
X2337250Y1849325D02*
Y1845925D01*
Y1852325D02*
Y1856825D01*
X2331250Y1850825D02*
X2335750D01*
X2340250D02*
G03X2340250I-3000J0D01*
G01X2339250D02*
G03X2339250I-2000J0D01*
G01X1662250Y1350825D02*
Y1351325D01*
Y1350825D02*
X1662750D01*
X1662250D02*
Y1350325D01*
Y1350825D02*
X1661750D01*
X1663750D02*
X1668750D01*
X1662250Y1349325D02*
Y1345925D01*
Y1352325D02*
Y1356825D01*
X1656250Y1350825D02*
X1660750D01*
X1665250D02*
G03X1665250I-3000J0D01*
G01X1664250D02*
G03X1664250I-2000J0D01*
G54D43*
G01X1767250Y1756138D02*
Y1743012D01*
Y1756138D02*
X1770432D01*
X1770432D02*
X1771795Y1755513D01*
X1771795D02*
X1772705Y1754263D01*
X1772705D02*
X1773159Y1753013D01*
X1773159D02*
X1773614Y1751138D01*
X1773614D02*
Y1748012D01*
X1773614D02*
X1773159Y1746137D01*
X1773159D02*
X1772705Y1744887D01*
X1772705D02*
X1771795Y1743637D01*
X1771795D02*
X1770432Y1743012D01*
X1770432D02*
X1767250D01*
X1777705Y1751763D02*
Y1745512D01*
X1777705D02*
X1778159Y1743637D01*
X1778159D02*
X1779068Y1743012D01*
X1779068D02*
X1780432D01*
X1780432D02*
X1781341Y1743637D01*
X1781341D02*
X1782705Y1745512D01*
Y1751763D02*
Y1743012D01*
X1792250Y1751763D02*
Y1743012D01*
Y1749887D02*
X1791341Y1751138D01*
X1791341D02*
X1790432Y1751763D01*
X1790432D02*
X1789068D01*
X1789068D02*
X1788159Y1751138D01*
X1788159D02*
X1787250Y1749887D01*
X1787250D02*
X1786795Y1748012D01*
X1786795D02*
Y1746762D01*
X1786795D02*
X1787250Y1744887D01*
X1787250D02*
X1788159Y1743637D01*
X1788159D02*
X1789068Y1743012D01*
X1789068D02*
X1790432D01*
X1790432D02*
X1791341Y1743637D01*
X1791341D02*
X1792250Y1744887D01*
X1796341Y1756138D02*
Y1743012D01*
X1814523Y1756138D02*
X1810886Y1743012D01*
X1814523Y1756138D02*
X1818159Y1743012D01*
X1812250Y1747387D02*
X1816795D01*
X1822250Y1756138D02*
Y1743012D01*
Y1756138D02*
X1825432D01*
X1825432D02*
X1826795Y1755513D01*
X1826795D02*
X1827705Y1754263D01*
X1827705D02*
X1828159Y1753013D01*
X1828159D02*
X1828614Y1751138D01*
X1828614D02*
Y1748012D01*
X1828614D02*
X1828159Y1746137D01*
X1828159D02*
X1827705Y1744887D01*
X1827705D02*
X1826795Y1743637D01*
X1826795D02*
X1825432Y1743012D01*
X1825432D02*
X1822250D01*
X1839068Y1756138D02*
X1834523Y1743012D01*
X1832705Y1756138D02*
X1839068D01*
X1848614Y1754263D02*
X1848159Y1755513D01*
X1848159D02*
X1846795Y1756138D01*
X1846795D02*
X1845886D01*
X1845886D02*
X1844523Y1755513D01*
X1844523D02*
X1843614Y1753638D01*
X1843614D02*
X1843159Y1750512D01*
X1843159D02*
Y1747387D01*
X1843159D02*
X1843614Y1744887D01*
X1843614D02*
X1844523Y1743637D01*
X1844523D02*
X1845886Y1743012D01*
X1845886D02*
X1846341D01*
X1846341D02*
X1847705Y1743637D01*
X1847705D02*
X1848614Y1744887D01*
X1848614D02*
X1849068Y1746762D01*
X1849068D02*
Y1747387D01*
X1849068D02*
X1848614Y1749262D01*
X1848614D02*
X1847705Y1750512D01*
X1847705D02*
X1846341Y1751138D01*
X1846341D02*
X1845886D01*
X1845886D02*
X1844523Y1750512D01*
X1844523D02*
X1843614Y1749262D01*
X1843614D02*
X1843159Y1747387D01*
X1855886Y1756138D02*
X1854523Y1755513D01*
X1854523D02*
X1853614Y1753638D01*
X1853614D02*
X1853159Y1750512D01*
X1853159D02*
Y1748637D01*
X1853159D02*
X1853614Y1745512D01*
X1853614D02*
X1854523Y1743637D01*
X1854523D02*
X1855886Y1743012D01*
X1855886D02*
X1856795D01*
X1856795D02*
X1858159Y1743637D01*
X1858159D02*
X1859068Y1745512D01*
X1859068D02*
X1859523Y1748637D01*
X1859523D02*
Y1750512D01*
X1859523D02*
X1859068Y1753638D01*
X1859068D02*
X1858159Y1755513D01*
X1858159D02*
X1856795Y1756138D01*
X1856795D02*
X1855886D01*
X1869068Y1754263D02*
X1868614Y1755513D01*
X1868614D02*
X1867250Y1756138D01*
X1867250D02*
X1866341D01*
X1866341D02*
X1864977Y1755513D01*
X1864977D02*
X1864068Y1753638D01*
X1864068D02*
X1863614Y1750512D01*
X1863614D02*
Y1747387D01*
X1863614D02*
X1864068Y1744887D01*
X1864068D02*
X1864977Y1743637D01*
X1864977D02*
X1866341Y1743012D01*
X1866341D02*
X1866795D01*
X1866795D02*
X1868159Y1743637D01*
X1868159D02*
X1869068Y1744887D01*
X1869068D02*
X1869523Y1746762D01*
X1869523D02*
Y1747387D01*
X1869523D02*
X1869068Y1749262D01*
X1869068D02*
X1868159Y1750512D01*
X1868159D02*
X1866795Y1751138D01*
X1866795D02*
X1866341D01*
X1866341D02*
X1864977Y1750512D01*
X1864977D02*
X1864068Y1749262D01*
X1864068D02*
X1863614Y1747387D01*
X1884068Y1756138D02*
Y1743012D01*
Y1756138D02*
X1889977D01*
X1884068Y1749887D02*
X1887705D01*
X1884068Y1743012D02*
X1889977D01*
X1894068Y1756138D02*
Y1743012D01*
Y1756138D02*
X1897250D01*
X1897250D02*
X1898614Y1755513D01*
X1898614D02*
X1899523Y1754263D01*
X1899523D02*
X1899977Y1753013D01*
X1899977D02*
X1900432Y1751138D01*
X1900432D02*
Y1748012D01*
X1900432D02*
X1899977Y1746137D01*
X1899977D02*
X1899523Y1744887D01*
X1899523D02*
X1898614Y1743637D01*
X1898614D02*
X1897250Y1743012D01*
X1897250D02*
X1894068D01*
X1910886Y1756138D02*
X1904523Y1743012D01*
Y1756138D02*
X1910886D01*
X1904523Y1743012D02*
X1910886D01*
G54D44*
X2013904Y1515057D02*
Y1517026D01*
X2010951Y1519979*
X2008982*
X1975518D02*
X1970596D01*
Y1515057*
Y1481593D02*
Y1476671D01*
X1975518*
X2008982D02*
X2013904D01*
Y1481593*
X2007998Y1513089D02*
G03X2007998I-984J0D01*
G01X1840750Y1612325D02*
X1848750D01*
Y1604325*
X1840750*
Y1612325*
X1994140Y1735402D02*
X1980360D01*
Y1715323*
X1981935Y1713748*
X1992565*
X1994140Y1715323*
Y1735402*
X1737250Y1415825D02*
X1709750D01*
Y1425825*
X1687250*
Y1775825*
X1709750*
Y1785825*
X1737250*
Y1768325*
X1732250Y1765825*
Y1435825*
X1737250Y1433325*
Y1415825*
X2084700Y1582479D02*
X2089996D01*
Y1589171*
X2084700*
X2082300Y1582479D02*
X2077004D01*
Y1589171*
X2082300*
X2084700Y1597479D02*
X2089996D01*
Y1604171*
X2084700*
X2082300Y1597479D02*
X2077004D01*
Y1604171*
X2082300*
X1982919Y1460575D02*
Y1454201D01*
X1991581*
Y1460575*
X1982919Y1463575D02*
Y1469949D01*
X1991581*
Y1463575*
X1974169Y1460575D02*
Y1454201D01*
X1982831*
Y1460575*
X1974169Y1463575D02*
Y1469949D01*
X1982831*
Y1463575*
X2084700Y1438729D02*
X2089996D01*
Y1445421*
X2084700*
X2082300Y1438729D02*
X2077004D01*
Y1445421*
X2082300*
X1920154Y1733375D02*
Y1728079D01*
X1926846*
Y1733375*
X1920154Y1735775D02*
Y1741071D01*
X1926846*
Y1735775*
X1770750Y1589825D02*
X1778750D01*
Y1581825*
X1770750*
Y1589825*
X1877000Y1538575D02*
X1885000D01*
Y1530575*
X1877000*
Y1538575*
X1957000Y1533575D02*
X1965000D01*
Y1525575*
X1957000*
Y1533575*
X1918343Y1415825D02*
X1878972D01*
Y1445825*
X1918343*
Y1415825*
X1904110Y1449998D02*
X1917890D01*
Y1470077*
X1916315Y1471652*
X1905685*
X1904110Y1470077*
Y1449998*
X1920950Y1473729D02*
X1926246D01*
Y1480421*
X1920950*
X1918550Y1473729D02*
X1913254D01*
Y1480421*
X1918550*
X1848250Y1628575D02*
X1856250D01*
Y1620575*
X1848250*
Y1628575*
X1921000Y1436575D02*
Y1424075D01*
X1928500*
Y1436575*
X1921000*
X1926877Y1425247D02*
X1927786Y1428528D01*
X1926877Y1425247D02*
X1925968Y1428528D01*
X1927445Y1427434D02*
X1926309D01*
X1924673Y1425247D02*
Y1428528D01*
Y1425247D02*
X1923650D01*
X1923309Y1425403*
X1923195Y1425559*
X1923082Y1425872*
Y1426184*
X1923195Y1426497*
X1923309Y1426653*
X1923650Y1426809*
X1924673D02*
X1923650D01*
X1923309Y1426966*
X1923195Y1427122*
X1923082Y1427434*
Y1427903*
X1923195Y1428216*
X1923309Y1428372*
X1923650Y1428528*
X1924673*
X1770750Y1579825D02*
X1778750D01*
Y1571825*
X1770750*
Y1579825*
X1926846Y1722025D02*
Y1727321D01*
X1920154*
Y1722025*
X1926846Y1719625D02*
Y1714329D01*
X1920154*
Y1719625*
X2012407Y1775825D02*
X2051778D01*
Y1745825*
X2012407*
Y1775825*
X1839500Y1562325D02*
X1847500D01*
Y1554325*
X1839500*
Y1562325*
X2084700Y1498729D02*
X2089996D01*
Y1505421*
X2084700*
X2082300Y1498729D02*
X2077004D01*
Y1505421*
X2082300*
X2084700Y1513729D02*
X2089996D01*
Y1520421*
X2084700*
X2082300Y1513729D02*
X2077004D01*
Y1520421*
X2082300*
X1985450Y1704979D02*
X1990746D01*
Y1711671*
X1985450*
X1983050Y1704979D02*
X1977754D01*
Y1711671*
X1983050*
X2084700Y1642479D02*
X2089996D01*
Y1649171*
X2084700*
X2082300Y1642479D02*
X2077004D01*
Y1649171*
X2082300*
X2084700Y1453729D02*
X2089996D01*
Y1460421*
X2084700*
X2082300Y1453729D02*
X2077004D01*
Y1460421*
X2082300*
X1949346Y1722025D02*
Y1727321D01*
X1942654*
Y1722025*
X1949346Y1719625D02*
Y1714329D01*
X1942654*
Y1719625*
X2084700Y1468729D02*
X2089996D01*
Y1475421*
X2084700*
X2082300Y1468729D02*
X2077004D01*
Y1475421*
X2082300*
X2084700Y1483729D02*
X2089996D01*
Y1490421*
X2084700*
X2082300Y1483729D02*
X2077004D01*
Y1490421*
X2082300*
X2084700Y1528729D02*
X2089996D01*
Y1535421*
X2084700*
X2082300Y1528729D02*
X2077004D01*
Y1535421*
X2082300*
X2084700Y1543729D02*
X2089996D01*
Y1550421*
X2084700*
X2082300Y1543729D02*
X2077004D01*
Y1550421*
X2082300*
X2084700Y1612479D02*
X2089996D01*
Y1619171*
X2084700*
X2082300Y1612479D02*
X2077004D01*
Y1619171*
X2082300*
X2008904Y1577125D02*
Y1571829D01*
X2015596*
Y1577125*
X2008904Y1579525D02*
Y1584821D01*
X2015596*
Y1579525*
X2006000Y1749625D02*
Y1762125D01*
X1998500*
Y1749625*
X2006000*
X2000123Y1760953D02*
X1999214Y1757672D01*
X2000123Y1760953D02*
X2001032Y1757672D01*
X1999555Y1758766D02*
X2000691D01*
X2002327Y1760953D02*
Y1757672D01*
Y1760953D02*
X2003350D01*
X2003691Y1760797*
X2003805Y1760641*
X2003918Y1760328*
Y1760016*
X2003805Y1759703*
X2003691Y1759547*
X2003350Y1759391*
X2002327D02*
X2003350D01*
X2003691Y1759234*
X2003805Y1759078*
X2003918Y1758766*
Y1758297*
X2003805Y1757984*
X2003691Y1757828*
X2003350Y1757672*
X2002327*
X2084700Y1657479D02*
X2089996D01*
Y1664171*
X2084700*
X2082300Y1657479D02*
X2077004D01*
Y1664171*
X2082300*
X1816000Y1460325D02*
Y1447825D01*
X1823500*
Y1460325*
X1816000*
X1821877Y1448997D02*
X1822786Y1452278D01*
X1821877Y1448997D02*
X1820968Y1452278D01*
X1822445Y1451184D02*
X1821309D01*
X1819673Y1448997D02*
Y1452278D01*
Y1448997D02*
X1818650D01*
X1818309Y1449153*
X1818195Y1449309*
X1818082Y1449622*
Y1449934*
X1818195Y1450247*
X1818309Y1450403*
X1818650Y1450559*
X1819673D02*
X1818650D01*
X1818309Y1450716*
X1818195Y1450872*
X1818082Y1451184*
Y1451653*
X1818195Y1451966*
X1818309Y1452122*
X1818650Y1452278*
X1819673*
X1949346Y1580775D02*
Y1586071D01*
X1942654*
Y1580775*
X1949346Y1578375D02*
Y1573079D01*
X1942654*
Y1578375*
X1781000Y1460325D02*
Y1447825D01*
X1788500*
Y1460325*
X1781000*
X1786877Y1448997D02*
X1787786Y1452278D01*
X1786877Y1448997D02*
X1785968Y1452278D01*
X1787445Y1451184D02*
X1786309D01*
X1784673Y1448997D02*
Y1452278D01*
Y1448997D02*
X1783650D01*
X1783309Y1449153*
X1783195Y1449309*
X1783082Y1449622*
Y1449934*
X1783195Y1450247*
X1783309Y1450403*
X1783650Y1450559*
X1784673D02*
X1783650D01*
X1783309Y1450716*
X1783195Y1450872*
X1783082Y1451184*
Y1451653*
X1783195Y1451966*
X1783309Y1452122*
X1783650Y1452278*
X1784673*
X1942654Y1590875D02*
Y1585579D01*
X1949346*
Y1590875*
X1942654Y1593275D02*
Y1598571D01*
X1949346*
Y1593275*
X1950154Y1590875D02*
Y1585579D01*
X1956846*
Y1590875*
X1950154Y1593275D02*
Y1598571D01*
X1956846*
Y1593275*
Y1580775D02*
Y1586071D01*
X1950154*
Y1580775*
X1956846Y1578375D02*
Y1573079D01*
X1950154*
Y1578375*
X1821000Y1621325D02*
Y1633825D01*
X1813500*
Y1621325*
X1821000*
X1815123Y1632653D02*
X1814214Y1629372D01*
X1815123Y1632653D02*
X1816032Y1629372D01*
X1814555Y1630466D02*
X1815691D01*
X1817327Y1632653D02*
Y1629372D01*
Y1632653D02*
X1818350D01*
X1818691Y1632497*
X1818805Y1632341*
X1818918Y1632028*
Y1631716*
X1818805Y1631403*
X1818691Y1631247*
X1818350Y1631091*
X1817327D02*
X1818350D01*
X1818691Y1630934*
X1818805Y1630778*
X1818918Y1630466*
Y1629997*
X1818805Y1629684*
X1818691Y1629528*
X1818350Y1629372*
X1817327*
X1803500Y1621325D02*
Y1633825D01*
X1796000*
Y1621325*
X1803500*
X1797623Y1632653D02*
X1796714Y1629372D01*
X1797623Y1632653D02*
X1798532Y1629372D01*
X1797055Y1630466D02*
X1798191D01*
X1799827Y1632653D02*
Y1629372D01*
Y1632653D02*
X1800850D01*
X1801191Y1632497*
X1801305Y1632341*
X1801418Y1632028*
Y1631716*
X1801305Y1631403*
X1801191Y1631247*
X1800850Y1631091*
X1799827D02*
X1800850D01*
X1801191Y1630934*
X1801305Y1630778*
X1801418Y1630466*
Y1629997*
X1801305Y1629684*
X1801191Y1629528*
X1800850Y1629372*
X1799827*
X1816750Y1594575D02*
X1804250D01*
Y1587075*
X1816750*
Y1594575*
X1805422Y1588698D02*
X1808703Y1587789D01*
X1805422Y1588698D02*
X1808703Y1589607D01*
X1807609Y1588130D02*
Y1589266D01*
X1805422Y1590902D02*
X1808703D01*
X1805422D02*
Y1591925D01*
X1805578Y1592266*
X1805734Y1592380*
X1806047Y1592493*
X1806359*
X1806672Y1592380*
X1806828Y1592266*
X1806984Y1591925*
Y1590902D02*
Y1591925D01*
X1807141Y1592266*
X1807297Y1592380*
X1807609Y1592493*
X1808078*
X1808391Y1592380*
X1808547Y1592266*
X1808703Y1591925*
Y1590902*
X1813250Y1619825D02*
X1821250D01*
Y1611825*
X1813250*
Y1619825*
X1818250Y1594825D02*
X1826250D01*
Y1586825*
X1818250*
Y1594825*
X1743904Y1433375D02*
Y1428079D01*
X1750596*
Y1433375*
X1743904Y1435775D02*
Y1441071D01*
X1750596*
Y1435775*
X1950950Y1461229D02*
X1956246D01*
Y1467921*
X1950950*
X1948550Y1461229D02*
X1943254D01*
Y1467921*
X1948550*
X1950950Y1468729D02*
X1956246D01*
Y1475421*
X1950950*
X1948550Y1468729D02*
X1943254D01*
Y1475421*
X1948550*
X1927654Y1733375D02*
Y1728079D01*
X1934346*
Y1733375*
X1927654Y1735775D02*
Y1741071D01*
X1934346*
Y1735775*
Y1722025D02*
Y1727321D01*
X1927654*
Y1722025*
X1934346Y1719625D02*
Y1714329D01*
X1927654*
Y1719625*
X1935154Y1733375D02*
Y1728079D01*
X1941846*
Y1733375*
X1935154Y1735775D02*
Y1741071D01*
X1941846*
Y1735775*
Y1722025D02*
Y1727321D01*
X1935154*
Y1722025*
X1941846Y1719625D02*
Y1714329D01*
X1935154*
Y1719625*
X1818600Y1550175D02*
X1810900D01*
Y1546475*
X1818600*
Y1550175*
Y1545175D02*
X1810900D01*
Y1541475*
X1818600*
Y1545175*
Y1500175D02*
X1810900D01*
Y1496475*
X1818600*
Y1500175*
Y1495175D02*
X1810900D01*
Y1491475*
X1818600*
Y1495175*
Y1490175D02*
X1810900D01*
Y1486475*
X1818600*
Y1490175*
Y1485175D02*
X1810900D01*
Y1481475*
X1818600*
Y1485175*
Y1480175D02*
X1810900D01*
Y1476475*
X1818600*
Y1480175*
Y1475175D02*
X1810900D01*
Y1471475*
X1818600*
Y1475175*
Y1540175D02*
X1810900D01*
Y1536475*
X1818600*
Y1540175*
Y1535175D02*
X1810900D01*
Y1531475*
X1818600*
Y1535175*
Y1530175D02*
X1810900D01*
Y1526475*
X1818600*
Y1530175*
Y1525175D02*
X1810900D01*
Y1521475*
X1818600*
Y1525175*
Y1520175D02*
X1810900D01*
Y1516475*
X1818600*
Y1520175*
Y1515175D02*
X1810900D01*
Y1511475*
X1818600*
Y1515175*
Y1510175D02*
X1810900D01*
Y1506475*
X1818600*
Y1510175*
Y1505175D02*
X1810900D01*
Y1501475*
X1818600*
Y1505175*
X1931512Y1437252D02*
Y1471898D01*
X1920488*
Y1437252*
X1931512*
X1996738Y1748148D02*
Y1713502D01*
X2007762*
Y1748148*
X1996738*
X1802250Y1705825D02*
X1832250D01*
Y1675825*
X1802250*
Y1705825*
X1784750Y1670825D02*
X1814750D01*
Y1640825*
X1784750*
Y1670825*
X1819750D02*
X1849750D01*
Y1640825*
X1819750*
Y1670825*
X1837250Y1705825D02*
X1867250D01*
Y1675825*
X1837250*
Y1705825*
X1841000Y1445825D02*
X1871000D01*
Y1415825*
X1841000*
Y1445825*
X1806000D02*
X1836000D01*
Y1415825*
X1806000*
Y1445825*
X1771000D02*
X1801000D01*
Y1415825*
X1771000*
Y1445825*
X2109750Y1588325D02*
X2139750D01*
Y1558325*
X2109750*
Y1588325*
Y1445825D02*
X2139750D01*
Y1415825*
X2109750*
Y1445825*
X1831577Y1623169D02*
X1830486Y1619231D01*
X1831577Y1623169D02*
X1832668Y1619231D01*
X1830895Y1620544D02*
X1832259D01*
X1841123Y1623169D02*
Y1619231D01*
Y1623169D02*
X1842350D01*
X1842759Y1622981*
X1842895Y1622794*
X1843032Y1622419*
Y1622044*
X1842895Y1621669*
X1842759Y1621481*
X1842350Y1621294*
X1841123D02*
X1842350D01*
X1842759Y1621106*
X1842895Y1620919*
X1843032Y1620544*
Y1619981*
X1842895Y1619606*
X1842759Y1619419*
X1842350Y1619231*
X1841123*
X1843100Y1628231D02*
X1842964Y1628606D01*
X1842691Y1628981*
X1842418Y1629169*
X1841873*
X1841600Y1628981*
X1841327Y1628606*
X1841191Y1628231*
X1841055Y1627669*
Y1626731*
X1841191Y1626169*
X1841327Y1625794*
X1841600Y1625419*
X1841873Y1625231*
X1842418*
X1842691Y1625419*
X1842964Y1625794*
X1843100Y1626169*
X1830623Y1629169D02*
Y1625231D01*
Y1629169D02*
X1831577D01*
X1831986Y1628981*
X1832259Y1628606*
X1832395Y1628231*
X1832532Y1627669*
Y1626731*
X1832395Y1626169*
X1832259Y1625794*
X1831986Y1625419*
X1831577Y1625231*
X1830623*
X1832329Y1631465D02*
Y1633433D01*
X1842171*
Y1631465*
X1832329Y1617685D02*
Y1615717D01*
X1842171*
Y1617685*
X1831077Y1565919D02*
X1829986Y1561981D01*
X1831077Y1565919D02*
X1832168Y1561981D01*
X1830395Y1563294D02*
X1831759D01*
X1832100Y1553481D02*
X1831964Y1553856D01*
X1831691Y1554231*
X1831418Y1554419*
X1830873*
X1830600Y1554231*
X1830327Y1553856*
X1830191Y1553481*
X1830055Y1552919*
Y1551981*
X1830191Y1551419*
X1830327Y1551044*
X1830600Y1550669*
X1830873Y1550481*
X1831418*
X1831691Y1550669*
X1831964Y1551044*
X1832100Y1551419*
X1824623Y1560419D02*
Y1556481D01*
Y1560419D02*
X1825850D01*
X1826259Y1560231*
X1826395Y1560044*
X1826532Y1559669*
Y1559294*
X1826395Y1558919*
X1826259Y1558731*
X1825850Y1558544*
X1824623D02*
X1825850D01*
X1826259Y1558356*
X1826395Y1558169*
X1826532Y1557794*
Y1557231*
X1826395Y1556856*
X1826259Y1556669*
X1825850Y1556481*
X1824623*
X1838156Y1551435D02*
Y1549467D01*
X1828313*
Y1551435*
X1838156Y1565215D02*
Y1567183D01*
X1828313*
Y1565215*
X2013904Y1657557D02*
Y1659526D01*
X2010951Y1662479*
X2008982*
X1975518D02*
X1970596D01*
Y1657557*
Y1624093D02*
Y1619171D01*
X1975518*
X2008982D02*
X2013904D01*
Y1624093*
X2007998Y1655589D02*
G03X2007998I-984J0D01*
G01X2035750Y1565575D02*
G03X2035750I-1250J0D01*
G01X2037500Y1563825D02*
Y1582825D01*
X2024500*
Y1563825*
X2037500*
X2047654Y1574625D02*
Y1569329D01*
X2054346*
Y1574625*
X2047654Y1577025D02*
Y1582321D01*
X2054346*
Y1577025*
X1982919Y1603075D02*
Y1596701D01*
X1991581*
Y1603075*
X1982919Y1606075D02*
Y1612449D01*
X1991581*
Y1606075*
X1942654Y1733375D02*
Y1728079D01*
X1949346*
Y1733375*
X1942654Y1735775D02*
Y1741071D01*
X1949346*
Y1735775*
X2084700Y1672479D02*
X2089996D01*
Y1679171*
X2084700*
X2082300Y1672479D02*
X2077004D01*
Y1679171*
X2082300*
X2084700Y1627479D02*
X2089996D01*
Y1634171*
X2084700*
X2082300Y1627479D02*
X2077004D01*
Y1634171*
X2082300*
X2084700Y1679979D02*
X2089996D01*
Y1686671*
X2084700*
X2082300Y1679979D02*
X2077004D01*
Y1686671*
X2082300*
X2084700Y1687479D02*
X2089996D01*
Y1694171*
X2084700*
X2082300Y1687479D02*
X2077004D01*
Y1694171*
X2082300*
X2003450Y1572479D02*
X2008746D01*
Y1579171*
X2003450*
X2001050Y1572479D02*
X1995754D01*
Y1579171*
X2001050*
X1872250Y1705825D02*
X1902250D01*
Y1675825*
X1872250*
Y1705825*
X1858577Y1658419D02*
X1857486Y1654481D01*
X1858577Y1658419D02*
X1859668Y1654481D01*
X1857895Y1655794D02*
X1859259D01*
X1859600Y1645981D02*
X1859464Y1646356D01*
X1859191Y1646731*
X1858918Y1646919*
X1858373*
X1858100Y1646731*
X1857827Y1646356*
X1857691Y1645981*
X1857555Y1645419*
Y1644481*
X1857691Y1643919*
X1857827Y1643544*
X1858100Y1643169*
X1858373Y1642981*
X1858918*
X1859191Y1643169*
X1859464Y1643544*
X1859600Y1643919*
X1852123Y1652919D02*
Y1648981D01*
Y1652919D02*
X1853350D01*
X1853759Y1652731*
X1853895Y1652544*
X1854032Y1652169*
Y1651794*
X1853895Y1651419*
X1853759Y1651231*
X1853350Y1651044*
X1852123D02*
X1853350D01*
X1853759Y1650856*
X1853895Y1650669*
X1854032Y1650294*
Y1649731*
X1853895Y1649356*
X1853759Y1649169*
X1853350Y1648981*
X1852123*
X1865656Y1643935D02*
Y1641967D01*
X1855813*
Y1643935*
X1865656Y1657715D02*
Y1659683D01*
X1855813*
Y1657715*
X1944500Y1669825D02*
X1952500D01*
Y1661825*
X1944500*
Y1669825*
X1954500D02*
X1962500D01*
Y1661825*
X1954500*
Y1669825*
X1868250Y1654825D02*
X1876250D01*
Y1646825*
X1868250*
Y1654825*
X2070154Y1504625D02*
Y1499329D01*
X2076846*
Y1504625*
X2070154Y1507025D02*
Y1512321D01*
X2076846*
Y1507025*
X2084700Y1476229D02*
X2089996D01*
Y1482921*
X2084700*
X2082300Y1476229D02*
X2077004D01*
Y1482921*
X2082300*
X2084700Y1536229D02*
X2089996D01*
Y1542921*
X2084700*
X2082300Y1536229D02*
X2077004D01*
Y1542921*
X2082300*
X2084700Y1634979D02*
X2089996D01*
Y1641671*
X2084700*
X2082300Y1634979D02*
X2077004D01*
Y1641671*
X2082300*
X2084700Y1506229D02*
X2089996D01*
Y1512921*
X2084700*
X2082300Y1506229D02*
X2077004D01*
Y1512921*
X2082300*
X2084700Y1551229D02*
X2089996D01*
Y1557921*
X2084700*
X2082300Y1551229D02*
X2077004D01*
Y1557921*
X2082300*
X2084700Y1649979D02*
X2089996D01*
Y1656671*
X2084700*
X2082300Y1649979D02*
X2077004D01*
Y1656671*
X2082300*
X2084700Y1589979D02*
X2089996D01*
Y1596671*
X2084700*
X2082300Y1589979D02*
X2077004D01*
Y1596671*
X2082300*
X2084700Y1604979D02*
X2089996D01*
Y1611671*
X2084700*
X2082300Y1604979D02*
X2077004D01*
Y1611671*
X2082300*
X2084700Y1619979D02*
X2089996D01*
Y1626671*
X2084700*
X2082300Y1619979D02*
X2077004D01*
Y1626671*
X2082300*
X2084700Y1491229D02*
X2089996D01*
Y1497921*
X2084700*
X2082300Y1491229D02*
X2077004D01*
Y1497921*
X2082300*
X2084700Y1694979D02*
X2089996D01*
Y1701671*
X2084700*
X2082300Y1694979D02*
X2077004D01*
Y1701671*
X2082300*
X2084700Y1664979D02*
X2089996D01*
Y1671671*
X2084700*
X2082300Y1664979D02*
X2077004D01*
Y1671671*
X2082300*
X2084700Y1521229D02*
X2089996D01*
Y1527921*
X2084700*
X2082300Y1521229D02*
X2077004D01*
Y1527921*
X2082300*
X1964346Y1580775D02*
Y1586071D01*
X1957654*
Y1580775*
X1964346Y1578375D02*
Y1573079D01*
X1957654*
Y1578375*
Y1590875D02*
Y1585579D01*
X1964346*
Y1590875*
X1957654Y1593275D02*
Y1598571D01*
X1964346*
Y1593275*
X2084700Y1461229D02*
X2089996D01*
Y1467921*
X2084700*
X2082300Y1461229D02*
X2077004D01*
Y1467921*
X2082300*
X2084700Y1446229D02*
X2089996D01*
Y1452921*
X2084700*
X2082300Y1446229D02*
X2077004D01*
Y1452921*
X2082300*
X2119750Y1455825D02*
Y1535825D01*
X2139750*
Y1458825*
X2136750Y1455825*
X2119750*
Y1598325D02*
Y1678325D01*
X2139750*
Y1601325*
X2136750Y1598325*
X2119750*
X2076846Y1447025D02*
Y1452321D01*
X2070154*
Y1447025*
X2076846Y1444625D02*
Y1439329D01*
X2070154*
Y1444625*
X2076846Y1522025D02*
Y1527321D01*
X2070154*
Y1522025*
X2076846Y1519625D02*
Y1514329D01*
X2070154*
Y1519625*
X2076846Y1537025D02*
Y1542321D01*
X2070154*
Y1537025*
X2076846Y1534625D02*
Y1529329D01*
X2070154*
Y1534625*
X2076846Y1462025D02*
Y1467321D01*
X2070154*
Y1462025*
X2076846Y1459625D02*
Y1454329D01*
X2070154*
Y1459625*
X2076846Y1477025D02*
Y1482321D01*
X2070154*
Y1477025*
X2076846Y1474625D02*
Y1469329D01*
X2070154*
Y1474625*
X2076846Y1590775D02*
Y1596071D01*
X2070154*
Y1590775*
X2076846Y1588375D02*
Y1583079D01*
X2070154*
Y1588375*
X2076846Y1605775D02*
Y1611071D01*
X2070154*
Y1605775*
X2076846Y1603375D02*
Y1598079D01*
X2070154*
Y1603375*
X2076846Y1620775D02*
Y1626071D01*
X2070154*
Y1620775*
X2076846Y1618375D02*
Y1613079D01*
X2070154*
Y1618375*
X2076846Y1552025D02*
Y1557321D01*
X2070154*
Y1552025*
X2076846Y1549625D02*
Y1544329D01*
X2070154*
Y1549625*
X2076846Y1650775D02*
Y1656071D01*
X2070154*
Y1650775*
X2076846Y1648375D02*
Y1643079D01*
X2070154*
Y1648375*
X2076846Y1492025D02*
Y1497321D01*
X2070154*
Y1492025*
X2076846Y1489625D02*
Y1484329D01*
X2070154*
Y1489625*
X2076846Y1665775D02*
Y1671071D01*
X2070154*
Y1665775*
X2076846Y1663375D02*
Y1658079D01*
X2070154*
Y1663375*
X2076846Y1635775D02*
Y1641071D01*
X2070154*
Y1635775*
X2076846Y1633375D02*
Y1628079D01*
X2070154*
Y1633375*
X2076846Y1680775D02*
Y1686071D01*
X2070154*
Y1680775*
X2076846Y1678375D02*
Y1673079D01*
X2070154*
Y1678375*
X2076846Y1695775D02*
Y1701071D01*
X2070154*
Y1695775*
X2076846Y1693375D02*
Y1688079D01*
X2070154*
Y1693375*
X1974169Y1603075D02*
Y1596701D01*
X1982831*
Y1603075*
X1974169Y1606075D02*
Y1612449D01*
X1982831*
Y1606075*
X2055419Y1574325D02*
Y1567951D01*
X2064081*
Y1574325*
X2055419Y1577325D02*
Y1583699D01*
X2064081*
Y1577325*
X2000331Y1463575D02*
Y1469949D01*
X1991669*
Y1463575*
X2000331Y1460575D02*
Y1454201D01*
X1991669*
Y1460575*
X2009081Y1463575D02*
Y1469949D01*
X2000419*
Y1463575*
X2009081Y1460575D02*
Y1454201D01*
X2000419*
Y1460575*
X2009081Y1606075D02*
Y1612449D01*
X2000419*
Y1606075*
X2009081Y1603075D02*
Y1596701D01*
X2000419*
Y1603075*
X2000331Y1606075D02*
Y1612449D01*
X1991669*
Y1606075*
X2000331Y1603075D02*
Y1596701D01*
X1991669*
Y1603075*
X2020555Y1503934D02*
Y1500653D01*
X2020714Y1499997*
X2021032Y1499559*
X2021509Y1499341*
X2021827*
X2022305Y1499559*
X2022623Y1499997*
X2022782Y1500653*
Y1503934*
X2024214Y1503059D02*
X2024532Y1503278D01*
X2025009Y1503934*
Y1499341*
X1851305Y1610184D02*
X1850986Y1609966D01*
X1850668Y1609528*
X1850509Y1609091*
X1850350Y1608434*
Y1607341*
X1850509Y1606684*
X1850668Y1606247*
X1850986Y1605809*
X1851305Y1605591*
X1851941*
X1852259Y1605809*
X1852577Y1606247*
X1852736Y1606684*
X1852895Y1607341*
Y1608434*
X1852736Y1609091*
X1852577Y1609528*
X1852259Y1609966*
X1851941Y1610184*
X1851305*
X1856555Y1609528D02*
X1856236Y1609966D01*
X1855759Y1610184*
X1855123*
X1854645Y1609966*
X1854327Y1609528*
Y1609091*
X1854486Y1608653*
X1854645Y1608434*
X1854964Y1608216*
X1855918Y1607778*
X1856236Y1607559*
X1856395Y1607341*
X1856555Y1606903*
Y1606247*
X1856236Y1605809*
X1855759Y1605591*
X1855123*
X1854645Y1605809*
X1854327Y1606247*
X1858145Y1609091D02*
Y1609309D01*
X1858305Y1609747*
X1858464Y1609966*
X1858782Y1610184*
X1859418*
X1859736Y1609966*
X1859895Y1609747*
X1860055Y1609309*
Y1608872*
X1859895Y1608434*
X1859577Y1607778*
X1857986Y1605591*
X1860214*
X1973984Y1721391D02*
X1973547Y1721232D01*
X1973109Y1720914*
X1972891Y1720595*
Y1719959*
X1973109Y1719641*
X1973547Y1719323*
X1973984Y1719164*
X1974641Y1719005*
X1975734*
X1976391Y1719164*
X1976828Y1719323*
X1977266Y1719641*
X1977484Y1719959*
Y1720595*
X1977266Y1720914*
X1976828Y1721232*
X1976391Y1721391*
X1973984Y1722982D02*
X1973766D01*
X1973328Y1723141*
X1973109Y1723300*
X1972891Y1723618*
Y1724255*
X1973109Y1724573*
X1973328Y1724732*
X1973766Y1724891*
X1974203*
X1974641Y1724732*
X1975297Y1724414*
X1977484Y1722823*
Y1725050*
X1973984Y1726641D02*
X1973766D01*
X1973328Y1726800*
X1973109Y1726959*
X1972891Y1727277*
Y1727914*
X1973109Y1728232*
X1973328Y1728391*
X1973766Y1728550*
X1974203*
X1974641Y1728391*
X1975297Y1728073*
X1977484Y1726482*
Y1728709*
X1728714Y1795184D02*
Y1791684D01*
X1728555Y1791028*
X1728395Y1790809*
X1728077Y1790591*
X1727759*
X1727441Y1790809*
X1727282Y1791028*
X1727123Y1791684*
Y1792122*
X1730145Y1794309D02*
X1730464Y1794528D01*
X1730941Y1795184*
Y1790591*
X2091268Y1587684D02*
Y1583091D01*
Y1587684D02*
X2092700D01*
X2093177Y1587466*
X2093336Y1587247*
X2093495Y1586809*
Y1586372*
X2093336Y1585934*
X2093177Y1585716*
X2092700Y1585497*
X2091268*
X2092382D02*
X2093495Y1583091D01*
X2095086Y1586591D02*
Y1586809D01*
X2095245Y1587247*
X2095405Y1587466*
X2095723Y1587684*
X2096359*
X2096677Y1587466*
X2096836Y1587247*
X2096995Y1586809*
Y1586372*
X2096836Y1585934*
X2096518Y1585278*
X2094927Y1583091*
X2097155*
X2098905Y1587684D02*
X2100655D01*
X2099700Y1585934*
X2100177*
X2100495Y1585716*
X2100655Y1585497*
X2100814Y1584841*
Y1584403*
X2100655Y1583747*
X2100336Y1583309*
X2099859Y1583091*
X2099382*
X2098905Y1583309*
X2098745Y1583528*
X2098586Y1583966*
X2092250Y1602684D02*
Y1598091D01*
Y1602684D02*
X2093682D01*
X2094159Y1602466*
X2094318Y1602247*
X2094477Y1601809*
Y1601372*
X2094318Y1600934*
X2094159Y1600716*
X2093682Y1600497*
X2092250*
X2093364D02*
X2094477Y1598091D01*
X2096068Y1601591D02*
Y1601809D01*
X2096227Y1602247*
X2096386Y1602466*
X2096705Y1602684*
X2097341*
X2097659Y1602466*
X2097818Y1602247*
X2097977Y1601809*
Y1601372*
X2097818Y1600934*
X2097500Y1600278*
X2095909Y1598091*
X2098136*
X2101795Y1602684D02*
X2100205Y1598091D01*
X2099568Y1602684D02*
X2101795D01*
X1985984Y1447470D02*
X1985547Y1447311D01*
X1985109Y1446993*
X1984891Y1446675*
Y1446039*
X1985109Y1445720*
X1985547Y1445402*
X1985984Y1445243*
X1986641Y1445084*
X1987734*
X1988391Y1445243*
X1988828Y1445402*
X1989266Y1445720*
X1989484Y1446039*
Y1446675*
X1989266Y1446993*
X1988828Y1447311*
X1988391Y1447470*
X1985984Y1449061D02*
X1985766D01*
X1985328Y1449220*
X1985109Y1449380*
X1984891Y1449698*
Y1450334*
X1985109Y1450652*
X1985328Y1450811*
X1985766Y1450970*
X1986203*
X1986641Y1450811*
X1987297Y1450493*
X1989484Y1448902*
Y1451130*
X1977484Y1448186D02*
X1977047Y1448027D01*
X1976609Y1447709*
X1976391Y1447391*
Y1446755*
X1976609Y1446436*
X1977047Y1446118*
X1977484Y1445959*
X1978141Y1445800*
X1979234*
X1979891Y1445959*
X1980328Y1446118*
X1980766Y1446436*
X1980984Y1446755*
Y1447391*
X1980766Y1447709*
X1980328Y1448027*
X1979891Y1448186*
X1977266Y1449618D02*
X1977047Y1449936D01*
X1976391Y1450414*
X1980984*
X2092475Y1443934D02*
Y1439341D01*
Y1443934D02*
X2093907D01*
X2094384Y1443716*
X2094543Y1443497*
X2094702Y1443059*
Y1442622*
X2094543Y1442184*
X2094384Y1441966*
X2093907Y1441747*
X2092475*
X2093589D02*
X2094702Y1439341D01*
X2096293Y1442841D02*
Y1443059D01*
X2096452Y1443497*
X2096611Y1443716*
X2096930Y1443934*
X2097566*
X2097884Y1443716*
X2098043Y1443497*
X2098202Y1443059*
Y1442622*
X2098043Y1442184*
X2097725Y1441528*
X2096134Y1439341*
X2098361*
X2099793Y1443059D02*
X2100111Y1443278D01*
X2100589Y1443934*
Y1439341*
X1921641Y1744664D02*
X1926234D01*
X1921641D02*
Y1746095D01*
X1921859Y1746573*
X1922078Y1746732*
X1922516Y1746891*
X1922953*
X1923391Y1746732*
X1923609Y1746573*
X1923828Y1746095*
Y1744664*
Y1745777D02*
X1926234Y1746891D01*
X1921641Y1750550D02*
X1926234Y1748959D01*
X1921641Y1748323D02*
Y1750550D01*
X1780770Y1588934D02*
X1780452Y1588716D01*
X1780134Y1588278*
X1779975Y1587841*
X1779816Y1587184*
Y1586091*
X1779975Y1585434*
X1780134Y1584997*
X1780452Y1584559*
X1780770Y1584341*
X1781407*
X1781725Y1584559*
X1782043Y1584997*
X1782202Y1585434*
X1782361Y1586091*
Y1587184*
X1782202Y1587841*
X1782043Y1588278*
X1781725Y1588716*
X1781407Y1588934*
X1780770*
X1786020Y1588278D02*
X1785702Y1588716D01*
X1785225Y1588934*
X1784589*
X1784111Y1588716*
X1783793Y1588278*
Y1587841*
X1783952Y1587403*
X1784111Y1587184*
X1784430Y1586966*
X1785384Y1586528*
X1785702Y1586309*
X1785861Y1586091*
X1786020Y1585653*
Y1584997*
X1785702Y1584559*
X1785225Y1584341*
X1784589*
X1784111Y1584559*
X1783793Y1584997*
X1787452Y1588059D02*
X1787770Y1588278D01*
X1788248Y1588934*
Y1584341*
X1873520Y1546434D02*
Y1541841D01*
Y1546434D02*
X1874952D01*
X1875430Y1546216*
X1875589Y1545997*
X1875748Y1545559*
Y1545122*
X1875589Y1544684*
X1875430Y1544466*
X1874952Y1544247*
X1873520D02*
X1874952D01*
X1875430Y1544028*
X1875589Y1543809*
X1875748Y1543372*
Y1542716*
X1875589Y1542278*
X1875430Y1542059*
X1874952Y1541841*
X1873520*
X1877180Y1546434D02*
Y1543153D01*
X1877339Y1542497*
X1877657Y1542059*
X1878134Y1541841*
X1878452*
X1878930Y1542059*
X1879248Y1542497*
X1879407Y1543153*
Y1546434*
X1883066Y1545778D02*
X1882748Y1546216D01*
X1882270Y1546434*
X1881634*
X1881157Y1546216*
X1880839Y1545778*
Y1545341*
X1880998Y1544903*
X1881157Y1544684*
X1881475Y1544466*
X1882430Y1544028*
X1882748Y1543809*
X1882907Y1543591*
X1883066Y1543153*
Y1542497*
X1882748Y1542059*
X1882270Y1541841*
X1881634*
X1881157Y1542059*
X1880839Y1542497*
X1884498Y1546434D02*
X1885770Y1544247D01*
Y1541841*
X1887043Y1546434D02*
X1885770Y1544247D01*
X1926123Y1532684D02*
Y1528091D01*
Y1532684D02*
X1928191D01*
X1926123Y1530497D02*
X1927395D01*
X1929623Y1532684D02*
Y1528091D01*
Y1532684D02*
X1931055D01*
X1931532Y1532466*
X1931691Y1532247*
X1931850Y1531809*
Y1531372*
X1931691Y1530934*
X1931532Y1530716*
X1931055Y1530497*
X1929623*
X1930736D02*
X1931850Y1528091D01*
X1935509Y1532028D02*
X1935191Y1532466D01*
X1934714Y1532684*
X1934077*
X1933600Y1532466*
X1933282Y1532028*
Y1531591*
X1933441Y1531153*
X1933600Y1530934*
X1933918Y1530716*
X1934873Y1530278*
X1935191Y1530059*
X1935350Y1529841*
X1935509Y1529403*
Y1528747*
X1935191Y1528309*
X1934714Y1528091*
X1934077*
X1933600Y1528309*
X1933282Y1528747*
X1938055Y1532684D02*
Y1528091D01*
X1936941Y1532684D02*
X1939168D01*
X1940600D02*
Y1528091D01*
Y1532684D02*
X1941714D01*
X1942191Y1532466*
X1942509Y1532028*
X1942668Y1531591*
X1942827Y1530934*
Y1529841*
X1942668Y1529184*
X1942509Y1528747*
X1942191Y1528309*
X1941714Y1528091*
X1940600*
X1945532Y1532684D02*
X1944259Y1528091D01*
X1945532Y1532684D02*
X1946805Y1528091D01*
X1944736Y1529622D02*
X1946327D01*
X1949350Y1532684D02*
Y1528091D01*
X1948236Y1532684D02*
X1950464D01*
X1953168D02*
X1951895Y1528091D01*
X1953168Y1532684D02*
X1954441Y1528091D01*
X1952373Y1529622D02*
X1953964D01*
X1880418Y1452684D02*
Y1449184D01*
X1880259Y1448528*
X1880100Y1448309*
X1879782Y1448091*
X1879464*
X1879145Y1448309*
X1878986Y1448528*
X1878827Y1449184*
Y1449622*
X1883918Y1452684D02*
X1882327D01*
X1882168Y1450716*
X1882327Y1450934*
X1882805Y1451153*
X1883282*
X1883759Y1450934*
X1884077Y1450497*
X1884236Y1449841*
X1884077Y1449403*
X1883918Y1448747*
X1883600Y1448309*
X1883123Y1448091*
X1882645*
X1882168Y1448309*
X1882009Y1448528*
X1881850Y1448966*
X1897734Y1457561D02*
X1897297Y1457402D01*
X1896859Y1457084*
X1896641Y1456766*
Y1456130*
X1896859Y1455811*
X1897297Y1455493*
X1897734Y1455334*
X1898391Y1455175*
X1899484*
X1900141Y1455334*
X1900578Y1455493*
X1901016Y1455811*
X1901234Y1456130*
Y1456766*
X1901016Y1457084*
X1900578Y1457402*
X1900141Y1457561*
X1897734Y1459152D02*
X1897516D01*
X1897078Y1459311*
X1896859Y1459470*
X1896641Y1459789*
Y1460425*
X1896859Y1460743*
X1897078Y1460902*
X1897516Y1461061*
X1897953*
X1898391Y1460902*
X1899047Y1460584*
X1901234Y1458993*
Y1461220*
X1896641Y1464243D02*
X1899703Y1462652D01*
Y1465039*
X1896641Y1464243D02*
X1901234D01*
X1915236Y1486591D02*
X1915077Y1487028D01*
X1914759Y1487466*
X1914441Y1487684*
X1913805*
X1913486Y1487466*
X1913168Y1487028*
X1913009Y1486591*
X1912850Y1485934*
Y1484841*
X1913009Y1484184*
X1913168Y1483747*
X1913486Y1483309*
X1913805Y1483091*
X1914441*
X1914759Y1483309*
X1915077Y1483747*
X1915236Y1484184*
X1916827Y1486591D02*
Y1486809D01*
X1916986Y1487247*
X1917145Y1487466*
X1917464Y1487684*
X1918100*
X1918418Y1487466*
X1918577Y1487247*
X1918736Y1486809*
Y1486372*
X1918577Y1485934*
X1918259Y1485278*
X1916668Y1483091*
X1918895*
X1922395Y1487684D02*
X1920805D01*
X1920645Y1485716*
X1920805Y1485934*
X1921282Y1486153*
X1921759*
X1922236Y1485934*
X1922555Y1485497*
X1922714Y1484841*
X1922555Y1484403*
X1922395Y1483747*
X1922077Y1483309*
X1921600Y1483091*
X1921123*
X1920645Y1483309*
X1920486Y1483528*
X1920327Y1483966*
X1857691Y1626216D02*
X1860077Y1621841D01*
X1861986Y1626434D02*
Y1621841D01*
Y1626434D02*
X1863418D01*
X1863895Y1626216*
X1864055Y1625997*
X1864214Y1625559*
Y1625122*
X1864055Y1624684*
X1863895Y1624466*
X1863418Y1624247*
X1861986*
X1863100D02*
X1864214Y1621841D01*
X1865645Y1626434D02*
Y1621841D01*
Y1626434D02*
X1866759D01*
X1867236Y1626216*
X1867555Y1625778*
X1867714Y1625341*
X1867873Y1624684*
Y1623591*
X1867714Y1622934*
X1867555Y1622497*
X1867236Y1622059*
X1866759Y1621841*
X1865645*
X1931047Y1425357D02*
X1930609Y1425039D01*
X1930391Y1424561*
Y1423925*
X1930609Y1423448*
X1931047Y1423130*
X1931484*
X1931922Y1423289*
X1932141Y1423448*
X1932359Y1423766*
X1932797Y1424720*
X1933016Y1425039*
X1933234Y1425198*
X1933672Y1425357*
X1934328*
X1934766Y1425039*
X1934984Y1424561*
Y1423925*
X1934766Y1423448*
X1934328Y1423130*
X1930391Y1426789D02*
X1934984D01*
Y1428698*
X1931266Y1430130D02*
X1931047Y1430448D01*
X1930391Y1430925*
X1934984*
X1930391Y1433311D02*
X1930609Y1432834D01*
X1931266Y1432516*
X1932359Y1432357*
X1933016*
X1934109Y1432516*
X1934766Y1432834*
X1934984Y1433311*
Y1433630*
X1934766Y1434107*
X1934109Y1434425*
X1933016Y1434584*
X1932359*
X1931266Y1434425*
X1930609Y1434107*
X1930391Y1433630*
Y1433311*
X1781305Y1577684D02*
X1780986Y1577466D01*
X1780668Y1577028*
X1780509Y1576591*
X1780350Y1575934*
Y1574841*
X1780509Y1574184*
X1780668Y1573747*
X1780986Y1573309*
X1781305Y1573091*
X1781941*
X1782259Y1573309*
X1782577Y1573747*
X1782736Y1574184*
X1782895Y1574841*
Y1575934*
X1782736Y1576591*
X1782577Y1577028*
X1782259Y1577466*
X1781941Y1577684*
X1781305*
X1786555Y1577028D02*
X1786236Y1577466D01*
X1785759Y1577684*
X1785123*
X1784645Y1577466*
X1784327Y1577028*
Y1576591*
X1784486Y1576153*
X1784645Y1575934*
X1784964Y1575716*
X1785918Y1575278*
X1786236Y1575059*
X1786395Y1574841*
X1786555Y1574403*
Y1573747*
X1786236Y1573309*
X1785759Y1573091*
X1785123*
X1784645Y1573309*
X1784327Y1573747*
X1788941Y1577684D02*
X1788464Y1577466D01*
X1788145Y1576809*
X1787986Y1575716*
Y1575059*
X1788145Y1573966*
X1788464Y1573309*
X1788941Y1573091*
X1789259*
X1789736Y1573309*
X1790055Y1573966*
X1790214Y1575059*
Y1575716*
X1790055Y1576809*
X1789736Y1577466*
X1789259Y1577684*
X1788941*
X1921641Y1705914D02*
X1926234D01*
X1921641D02*
Y1707345D01*
X1921859Y1707823*
X1922078Y1707982*
X1922516Y1708141*
X1922953*
X1923391Y1707982*
X1923609Y1707823*
X1923828Y1707345*
Y1705914*
Y1707027D02*
X1926234Y1708141D01*
X1921641Y1710368D02*
X1921859Y1709891D01*
X1922297Y1709732*
X1922734*
X1923172Y1709891*
X1923391Y1710209*
X1923609Y1710845*
X1923828Y1711323*
X1924266Y1711641*
X1924703Y1711800*
X1925359*
X1925797Y1711641*
X1926016Y1711482*
X1926234Y1711005*
Y1710368*
X1926016Y1709891*
X1925797Y1709732*
X1925359Y1709573*
X1924703*
X1924266Y1709732*
X1923828Y1710050*
X1923609Y1710527*
X1923391Y1711164*
X1923172Y1711482*
X1922734Y1711641*
X1922297*
X1921859Y1711482*
X1921641Y1711005*
Y1710368*
X2055577Y1773934D02*
Y1770434D01*
X2055418Y1769778*
X2055259Y1769559*
X2054941Y1769341*
X2054623*
X2054305Y1769559*
X2054145Y1769778*
X2053986Y1770434*
Y1770872*
X2058918Y1773278D02*
X2058759Y1773716D01*
X2058282Y1773934*
X2057964*
X2057486Y1773716*
X2057168Y1773059*
X2057009Y1771966*
Y1770872*
X2057168Y1769997*
X2057486Y1769559*
X2057964Y1769341*
X2058123*
X2058600Y1769559*
X2058918Y1769997*
X2059077Y1770653*
Y1770872*
X2058918Y1771528*
X2058600Y1771966*
X2058123Y1772184*
X2057964*
X2057486Y1771966*
X2057168Y1771528*
X2057009Y1770872*
X1843861Y1568716D02*
X1846248Y1564341D01*
X1850543Y1567841D02*
X1850384Y1568278D01*
X1850066Y1568716*
X1849748Y1568934*
X1849111*
X1848793Y1568716*
X1848475Y1568278*
X1848316Y1567841*
X1848157Y1567184*
Y1566091*
X1848316Y1565434*
X1848475Y1564997*
X1848793Y1564559*
X1849111Y1564341*
X1849748*
X1850066Y1564559*
X1850384Y1564997*
X1850543Y1565434*
X1854202Y1568278D02*
X1853884Y1568716D01*
X1853407Y1568934*
X1852770*
X1852293Y1568716*
X1851975Y1568278*
Y1567841*
X1852134Y1567403*
X1852293Y1567184*
X1852611Y1566966*
X1853566Y1566528*
X1853884Y1566309*
X1854043Y1566091*
X1854202Y1565653*
Y1564997*
X1853884Y1564559*
X1853407Y1564341*
X1852770*
X1852293Y1564559*
X1851975Y1564997*
X2089259Y1503934D02*
Y1499341D01*
Y1503934D02*
X2090691D01*
X2091168Y1503716*
X2091327Y1503497*
X2091486Y1503059*
Y1502622*
X2091327Y1502184*
X2091168Y1501966*
X2090691Y1501747*
X2089259*
X2090373D02*
X2091486Y1499341D01*
X2093236Y1503934D02*
X2094986D01*
X2094032Y1502184*
X2094509*
X2094827Y1501966*
X2094986Y1501747*
X2095145Y1501091*
Y1500653*
X2094986Y1499997*
X2094668Y1499559*
X2094191Y1499341*
X2093714*
X2093236Y1499559*
X2093077Y1499778*
X2092918Y1500216*
X2098805Y1503934D02*
X2097214Y1499341D01*
X2096577Y1503934D02*
X2098805D01*
X2091145Y1518934D02*
Y1514341D01*
Y1518934D02*
X2092577D01*
X2093055Y1518716*
X2093214Y1518497*
X2093373Y1518059*
Y1517622*
X2093214Y1517184*
X2093055Y1516966*
X2092577Y1516747*
X2091145*
X2092259D02*
X2093373Y1514341D01*
X2096395Y1518934D02*
X2094805Y1515872D01*
X2097191*
X2096395Y1518934D02*
Y1514341D01*
X2098623Y1518059D02*
X2098941Y1518278D01*
X2099418Y1518934*
Y1514341*
X1968066Y1709591D02*
X1967907Y1710028D01*
X1967589Y1710466*
X1967270Y1710684*
X1966634*
X1966316Y1710466*
X1965998Y1710028*
X1965839Y1709591*
X1965680Y1708934*
Y1707841*
X1965839Y1707184*
X1965998Y1706747*
X1966316Y1706309*
X1966634Y1706091*
X1967270*
X1967589Y1706309*
X1967907Y1706747*
X1968066Y1707184*
X1969657Y1709591D02*
Y1709809D01*
X1969816Y1710247*
X1969975Y1710466*
X1970293Y1710684*
X1970930*
X1971248Y1710466*
X1971407Y1710247*
X1971566Y1709809*
Y1709372*
X1971407Y1708934*
X1971089Y1708278*
X1969498Y1706091*
X1971725*
X1973475Y1710684D02*
X1975225D01*
X1974270Y1708934*
X1974748*
X1975066Y1708716*
X1975225Y1708497*
X1975384Y1707841*
Y1707403*
X1975225Y1706747*
X1974907Y1706309*
X1974430Y1706091*
X1973952*
X1973475Y1706309*
X1973316Y1706528*
X1973157Y1706966*
X2092250Y1647684D02*
Y1643091D01*
Y1647684D02*
X2093682D01*
X2094159Y1647466*
X2094318Y1647247*
X2094477Y1646809*
Y1646372*
X2094318Y1645934*
X2094159Y1645716*
X2093682Y1645497*
X2092250*
X2093364D02*
X2094477Y1643091D01*
X2096227Y1647684D02*
X2097977D01*
X2097023Y1645934*
X2097500*
X2097818Y1645716*
X2097977Y1645497*
X2098136Y1644841*
Y1644403*
X2097977Y1643747*
X2097659Y1643309*
X2097182Y1643091*
X2096705*
X2096227Y1643309*
X2096068Y1643528*
X2095909Y1643966*
X2101636Y1646153D02*
X2101477Y1645497D01*
X2101159Y1645059*
X2100682Y1644841*
X2100523*
X2100045Y1645059*
X2099727Y1645497*
X2099568Y1646153*
Y1646372*
X2099727Y1647028*
X2100045Y1647466*
X2100523Y1647684*
X2100682*
X2101159Y1647466*
X2101477Y1647028*
X2101636Y1646153*
Y1645059*
X2101477Y1643966*
X2101159Y1643309*
X2100682Y1643091*
X2100364*
X2099886Y1643309*
X2099727Y1643747*
X2090430Y1458934D02*
Y1454341D01*
Y1458934D02*
X2091861D01*
X2092339Y1458716*
X2092498Y1458497*
X2092657Y1458059*
Y1457622*
X2092498Y1457184*
X2092339Y1456966*
X2091861Y1456747*
X2090430*
X2091543D02*
X2092657Y1454341D01*
X2094248Y1457841D02*
Y1458059D01*
X2094407Y1458497*
X2094566Y1458716*
X2094884Y1458934*
X2095520*
X2095839Y1458716*
X2095998Y1458497*
X2096157Y1458059*
Y1457622*
X2095998Y1457184*
X2095680Y1456528*
X2094089Y1454341*
X2096316*
X2099816Y1458934D02*
X2098225D01*
X2098066Y1456966*
X2098225Y1457184*
X2098702Y1457403*
X2099180*
X2099657Y1457184*
X2099975Y1456747*
X2100134Y1456091*
X2099975Y1455653*
X2099816Y1454997*
X2099498Y1454559*
X2099020Y1454341*
X2098543*
X2098066Y1454559*
X2097907Y1454778*
X2097748Y1455216*
X1942891Y1703550D02*
X1947484D01*
X1942891D02*
Y1704982D01*
X1943109Y1705459*
X1943328Y1705618*
X1943766Y1705777*
X1944203*
X1944641Y1705618*
X1944859Y1705459*
X1945078Y1704982*
Y1703550*
Y1704664D02*
X1947484Y1705777D01*
X1943766Y1707209D02*
X1943547Y1707527D01*
X1942891Y1708005*
X1947484*
X1942891Y1711664D02*
X1947484Y1710073D01*
X1942891Y1709436D02*
Y1711664D01*
X2090589Y1473934D02*
Y1469341D01*
Y1473934D02*
X2092020D01*
X2092498Y1473716*
X2092657Y1473497*
X2092816Y1473059*
Y1472622*
X2092657Y1472184*
X2092498Y1471966*
X2092020Y1471747*
X2090589*
X2091702D02*
X2092816Y1469341D01*
X2094407Y1472841D02*
Y1473059D01*
X2094566Y1473497*
X2094725Y1473716*
X2095043Y1473934*
X2095680*
X2095998Y1473716*
X2096157Y1473497*
X2096316Y1473059*
Y1472622*
X2096157Y1472184*
X2095839Y1471528*
X2094248Y1469341*
X2096475*
X2099975Y1472403D02*
X2099816Y1471747D01*
X2099498Y1471309*
X2099020Y1471091*
X2098861*
X2098384Y1471309*
X2098066Y1471747*
X2097907Y1472403*
Y1472622*
X2098066Y1473278*
X2098384Y1473716*
X2098861Y1473934*
X2099020*
X2099498Y1473716*
X2099816Y1473278*
X2099975Y1472403*
Y1471309*
X2099816Y1470216*
X2099498Y1469559*
X2099020Y1469341*
X2098702*
X2098225Y1469559*
X2098066Y1469997*
X2090509Y1488934D02*
Y1484341D01*
Y1488934D02*
X2091941D01*
X2092418Y1488716*
X2092577Y1488497*
X2092736Y1488059*
Y1487622*
X2092577Y1487184*
X2092418Y1486966*
X2091941Y1486747*
X2090509*
X2091623D02*
X2092736Y1484341D01*
X2094486Y1488934D02*
X2096236D01*
X2095282Y1487184*
X2095759*
X2096077Y1486966*
X2096236Y1486747*
X2096395Y1486091*
Y1485653*
X2096236Y1484997*
X2095918Y1484559*
X2095441Y1484341*
X2094964*
X2094486Y1484559*
X2094327Y1484778*
X2094168Y1485216*
X2098145Y1488934D02*
X2099895D01*
X2098941Y1487184*
X2099418*
X2099736Y1486966*
X2099895Y1486747*
X2100055Y1486091*
Y1485653*
X2099895Y1484997*
X2099577Y1484559*
X2099100Y1484341*
X2098623*
X2098145Y1484559*
X2097986Y1484778*
X2097827Y1485216*
X2090350Y1533934D02*
Y1529341D01*
Y1533934D02*
X2091782D01*
X2092259Y1533716*
X2092418Y1533497*
X2092577Y1533059*
Y1532622*
X2092418Y1532184*
X2092259Y1531966*
X2091782Y1531747*
X2090350*
X2091464D02*
X2092577Y1529341D01*
X2095600Y1533934D02*
X2094009Y1530872D01*
X2096395*
X2095600Y1533934D02*
Y1529341D01*
X2099895Y1533934D02*
X2098305D01*
X2098145Y1531966*
X2098305Y1532184*
X2098782Y1532403*
X2099259*
X2099736Y1532184*
X2100055Y1531747*
X2100214Y1531091*
X2100055Y1530653*
X2099895Y1529997*
X2099577Y1529559*
X2099100Y1529341*
X2098623*
X2098145Y1529559*
X2097986Y1529778*
X2097827Y1530216*
X2090509Y1548934D02*
Y1544341D01*
Y1548934D02*
X2091941D01*
X2092418Y1548716*
X2092577Y1548497*
X2092736Y1548059*
Y1547622*
X2092577Y1547184*
X2092418Y1546966*
X2091941Y1546747*
X2090509*
X2091623D02*
X2092736Y1544341D01*
X2095759Y1548934D02*
X2094168Y1545872D01*
X2096555*
X2095759Y1548934D02*
Y1544341D01*
X2100055Y1547403D02*
X2099895Y1546747D01*
X2099577Y1546309*
X2099100Y1546091*
X2098941*
X2098464Y1546309*
X2098145Y1546747*
X2097986Y1547403*
Y1547622*
X2098145Y1548278*
X2098464Y1548716*
X2098941Y1548934*
X2099100*
X2099577Y1548716*
X2099895Y1548278*
X2100055Y1547403*
Y1546309*
X2099895Y1545216*
X2099577Y1544559*
X2099100Y1544341*
X2098782*
X2098305Y1544559*
X2098145Y1544997*
X2092250Y1617684D02*
Y1613091D01*
Y1617684D02*
X2093682D01*
X2094159Y1617466*
X2094318Y1617247*
X2094477Y1616809*
Y1616372*
X2094318Y1615934*
X2094159Y1615716*
X2093682Y1615497*
X2092250*
X2093364D02*
X2094477Y1613091D01*
X2096227Y1617684D02*
X2097977D01*
X2097023Y1615934*
X2097500*
X2097818Y1615716*
X2097977Y1615497*
X2098136Y1614841*
Y1614403*
X2097977Y1613747*
X2097659Y1613309*
X2097182Y1613091*
X2096705*
X2096227Y1613309*
X2096068Y1613528*
X2095909Y1613966*
X2099568Y1616809D02*
X2099886Y1617028D01*
X2100364Y1617684*
Y1613091*
X2011484Y1562107D02*
X2011047Y1561948D01*
X2010609Y1561630*
X2010391Y1561311*
Y1560675*
X2010609Y1560357*
X2011047Y1560039*
X2011484Y1559880*
X2012141Y1559720*
X2013234*
X2013891Y1559880*
X2014328Y1560039*
X2014766Y1560357*
X2014984Y1560675*
Y1561311*
X2014766Y1561630*
X2014328Y1561948*
X2013891Y1562107*
X2011484Y1563698D02*
X2011266D01*
X2010828Y1563857*
X2010609Y1564016*
X2010391Y1564334*
Y1564970*
X2010609Y1565289*
X2010828Y1565448*
X2011266Y1565607*
X2011703*
X2012141Y1565448*
X2012797Y1565130*
X2014984Y1563539*
Y1565766*
X2011266Y1567198D02*
X2011047Y1567516D01*
X2010391Y1567993*
X2014984*
X1999225Y1769528D02*
X1998907Y1769966D01*
X1998430Y1770184*
X1997793*
X1997316Y1769966*
X1996998Y1769528*
Y1769091*
X1997157Y1768653*
X1997316Y1768434*
X1997634Y1768216*
X1998589Y1767778*
X1998907Y1767559*
X1999066Y1767341*
X1999225Y1766903*
Y1766247*
X1998907Y1765809*
X1998430Y1765591*
X1997793*
X1997316Y1765809*
X1996998Y1766247*
X2000657Y1770184D02*
Y1765591D01*
X2002566*
X2006066Y1768653D02*
X2005907Y1767997D01*
X2005589Y1767559*
X2005111Y1767341*
X2004952*
X2004475Y1767559*
X2004157Y1767997*
X2003998Y1768653*
Y1768872*
X2004157Y1769528*
X2004475Y1769966*
X2004952Y1770184*
X2005111*
X2005589Y1769966*
X2005907Y1769528*
X2006066Y1768653*
Y1767559*
X2005907Y1766466*
X2005589Y1765809*
X2005111Y1765591*
X2004793*
X2004316Y1765809*
X2004157Y1766247*
X2092250Y1662684D02*
Y1658091D01*
Y1662684D02*
X2093682D01*
X2094159Y1662466*
X2094318Y1662247*
X2094477Y1661809*
Y1661372*
X2094318Y1660934*
X2094159Y1660716*
X2093682Y1660497*
X2092250*
X2093364D02*
X2094477Y1658091D01*
X2097500Y1662684D02*
X2095909Y1659622D01*
X2098295*
X2097500Y1662684D02*
Y1658091D01*
X2100045Y1662684D02*
X2101795D01*
X2100841Y1660934*
X2101318*
X2101636Y1660716*
X2101795Y1660497*
X2101955Y1659841*
Y1659403*
X2101795Y1658747*
X2101477Y1658309*
X2101000Y1658091*
X2100523*
X2100045Y1658309*
X2099886Y1658528*
X2099727Y1658966*
X1811047Y1451470D02*
X1810609Y1451152D01*
X1810391Y1450675*
Y1450039*
X1810609Y1449561*
X1811047Y1449243*
X1811484*
X1811922Y1449402*
X1812141Y1449561*
X1812359Y1449880*
X1812797Y1450834*
X1813016Y1451152*
X1813234Y1451311*
X1813672Y1451470*
X1814328*
X1814766Y1451152*
X1814984Y1450675*
Y1450039*
X1814766Y1449561*
X1814328Y1449243*
X1810391Y1452902D02*
X1814984D01*
Y1454811*
X1810391Y1458470D02*
X1814984Y1456880D01*
X1810391Y1456243D02*
Y1458470D01*
X1944141Y1562084D02*
X1948734D01*
X1944141D02*
Y1563516D01*
X1944359Y1563993*
X1944578Y1564152*
X1945016Y1564311*
X1945453*
X1945891Y1564152*
X1946109Y1563993*
X1946328Y1563516*
Y1562084*
Y1563198D02*
X1948734Y1564311D01*
X1944141Y1567334D02*
X1947203Y1565743D01*
Y1568130*
X1944141Y1567334D02*
X1948734D01*
X1774797Y1451470D02*
X1774359Y1451152D01*
X1774141Y1450675*
Y1450039*
X1774359Y1449561*
X1774797Y1449243*
X1775234*
X1775672Y1449402*
X1775891Y1449561*
X1776109Y1449880*
X1776547Y1450834*
X1776766Y1451152*
X1776984Y1451311*
X1777422Y1451470*
X1778078*
X1778516Y1451152*
X1778734Y1450675*
Y1450039*
X1778516Y1449561*
X1778078Y1449243*
X1774141Y1452902D02*
X1778734D01*
Y1454811*
X1774141Y1457039D02*
X1774359Y1456561D01*
X1774797Y1456402*
X1775234*
X1775672Y1456561*
X1775891Y1456880*
X1776109Y1457516*
X1776328Y1457993*
X1776766Y1458311*
X1777203Y1458470*
X1777859*
X1778297Y1458311*
X1778516Y1458152*
X1778734Y1457675*
Y1457039*
X1778516Y1456561*
X1778297Y1456402*
X1777859Y1456243*
X1777203*
X1776766Y1456402*
X1776328Y1456720*
X1776109Y1457198*
X1775891Y1457834*
X1775672Y1458152*
X1775234Y1458311*
X1774797*
X1774359Y1458152*
X1774141Y1457675*
Y1457039*
X1944141Y1600914D02*
X1948734D01*
X1944141D02*
Y1602345D01*
X1944359Y1602823*
X1944578Y1602982*
X1945016Y1603141*
X1945453*
X1945891Y1602982*
X1946109Y1602823*
X1946328Y1602345*
Y1600914*
Y1602027D02*
X1948734Y1603141D01*
X1944141Y1604891D02*
Y1606641D01*
X1945891Y1605686*
Y1606164*
X1946109Y1606482*
X1946328Y1606641*
X1946984Y1606800*
X1947422*
X1948078Y1606641*
X1948516Y1606323*
X1948734Y1605845*
Y1605368*
X1948516Y1604891*
X1948297Y1604732*
X1947859Y1604573*
X1951641Y1600914D02*
X1956234D01*
X1951641D02*
Y1602345D01*
X1951859Y1602823*
X1952078Y1602982*
X1952516Y1603141*
X1952953*
X1953391Y1602982*
X1953609Y1602823*
X1953828Y1602345*
Y1600914*
Y1602027D02*
X1956234Y1603141D01*
X1952734Y1604732D02*
X1952516D01*
X1952078Y1604891*
X1951859Y1605050*
X1951641Y1605368*
Y1606005*
X1951859Y1606323*
X1952078Y1606482*
X1952516Y1606641*
X1952953*
X1953391Y1606482*
X1954047Y1606164*
X1956234Y1604573*
Y1606800*
X1951641Y1562880D02*
X1956234D01*
X1951641D02*
Y1564311D01*
X1951859Y1564789*
X1952078Y1564948*
X1952516Y1565107*
X1952953*
X1953391Y1564948*
X1953609Y1564789*
X1953828Y1564311*
Y1562880*
Y1563993D02*
X1956234Y1565107D01*
X1952516Y1566539D02*
X1952297Y1566857D01*
X1951641Y1567334*
X1956234*
X1808547Y1626391D02*
X1808109Y1626073D01*
X1807891Y1625595*
Y1624959*
X1808109Y1624482*
X1808547Y1624164*
X1808984*
X1809422Y1624323*
X1809641Y1624482*
X1809859Y1624800*
X1810297Y1625755*
X1810516Y1626073*
X1810734Y1626232*
X1811172Y1626391*
X1811828*
X1812266Y1626073*
X1812484Y1625595*
Y1624959*
X1812266Y1624482*
X1811828Y1624164*
X1807891Y1627823D02*
X1812484D01*
Y1629732*
X1807891Y1632755D02*
X1810953Y1631164D01*
Y1633550*
X1807891Y1632755D02*
X1812484D01*
X1791047Y1625300D02*
X1790609Y1624982D01*
X1790391Y1624505*
Y1623868*
X1790609Y1623391*
X1791047Y1623073*
X1791484*
X1791922Y1623232*
X1792141Y1623391*
X1792359Y1623709*
X1792797Y1624664*
X1793016Y1624982*
X1793234Y1625141*
X1793672Y1625300*
X1794328*
X1794766Y1624982*
X1794984Y1624505*
Y1623868*
X1794766Y1623391*
X1794328Y1623073*
X1790391Y1626732D02*
X1794984D01*
Y1628641*
X1791047Y1631982D02*
X1790609Y1631823D01*
X1790391Y1631345*
Y1631027*
X1790609Y1630550*
X1791266Y1630232*
X1792359Y1630073*
X1793453*
X1794328Y1630232*
X1794766Y1630550*
X1794984Y1631027*
Y1631186*
X1794766Y1631664*
X1794328Y1631982*
X1793672Y1632141*
X1793453*
X1792797Y1631982*
X1792359Y1631664*
X1792141Y1631186*
Y1631027*
X1792359Y1630550*
X1792797Y1630232*
X1793453Y1630073*
X1806566Y1600778D02*
X1806248Y1601216D01*
X1805770Y1601434*
X1805134*
X1804657Y1601216*
X1804339Y1600778*
Y1600341*
X1804498Y1599903*
X1804657Y1599684*
X1804975Y1599466*
X1805930Y1599028*
X1806248Y1598809*
X1806407Y1598591*
X1806566Y1598153*
Y1597497*
X1806248Y1597059*
X1805770Y1596841*
X1805134*
X1804657Y1597059*
X1804339Y1597497*
X1807998Y1601434D02*
Y1596841D01*
X1809907*
X1813407Y1601434D02*
X1811816D01*
X1811657Y1599466*
X1811816Y1599684*
X1812293Y1599903*
X1812770*
X1813248Y1599684*
X1813566Y1599247*
X1813725Y1598591*
X1813566Y1598153*
X1813407Y1597497*
X1813089Y1597059*
X1812611Y1596841*
X1812134*
X1811657Y1597059*
X1811498Y1597278*
X1811339Y1597716*
X1801270Y1609091D02*
X1801111Y1609528D01*
X1800793Y1609966*
X1800475Y1610184*
X1799839*
X1799520Y1609966*
X1799202Y1609528*
X1799043Y1609091*
X1798884Y1608434*
Y1607341*
X1799043Y1606684*
X1799202Y1606247*
X1799520Y1605809*
X1799839Y1605591*
X1800475*
X1800793Y1605809*
X1801111Y1606247*
X1801270Y1606684*
X1803657Y1610184D02*
X1803339Y1609966D01*
X1803020Y1609528*
X1802861Y1609091*
X1802702Y1608434*
Y1607341*
X1802861Y1606684*
X1803020Y1606247*
X1803339Y1605809*
X1803657Y1605591*
X1804293*
X1804611Y1605809*
X1804930Y1606247*
X1805089Y1606684*
X1805248Y1607341*
Y1608434*
X1805089Y1609091*
X1804930Y1609528*
X1804611Y1609966*
X1804293Y1610184*
X1803657*
X1806680D02*
Y1605591D01*
Y1610184D02*
X1808907Y1605591D01*
Y1610184D02*
Y1605591D01*
X1810339Y1610184D02*
X1811611Y1605591D01*
X1812884Y1610184D02*
X1811611Y1605591D01*
X1816543Y1609528D02*
X1816225Y1609966D01*
X1815748Y1610184*
X1815111*
X1814634Y1609966*
X1814316Y1609528*
Y1609091*
X1814475Y1608653*
X1814634Y1608434*
X1814952Y1608216*
X1815907Y1607778*
X1816225Y1607559*
X1816384Y1607341*
X1816543Y1606903*
Y1606247*
X1816225Y1605809*
X1815748Y1605591*
X1815111*
X1814634Y1605809*
X1814316Y1606247*
X1819089Y1610184D02*
Y1605591D01*
X1817975Y1610184D02*
X1820202D01*
X1822907D02*
X1821634Y1605591D01*
X1822907Y1610184D02*
X1824180Y1605591D01*
X1822111Y1607122D02*
X1823702D01*
X1820180Y1584091D02*
X1820020Y1584528D01*
X1819702Y1584966*
X1819384Y1585184*
X1818748*
X1818430Y1584966*
X1818111Y1584528*
X1817952Y1584091*
X1817793Y1583434*
Y1582341*
X1817952Y1581684*
X1818111Y1581247*
X1818430Y1580809*
X1818748Y1580591*
X1819384*
X1819702Y1580809*
X1820020Y1581247*
X1820180Y1581684*
X1822566Y1585184D02*
X1822248Y1584966D01*
X1821930Y1584528*
X1821770Y1584091*
X1821611Y1583434*
Y1582341*
X1821770Y1581684*
X1821930Y1581247*
X1822248Y1580809*
X1822566Y1580591*
X1823202*
X1823520Y1580809*
X1823839Y1581247*
X1823998Y1581684*
X1824157Y1582341*
Y1583434*
X1823998Y1584091*
X1823839Y1584528*
X1823520Y1584966*
X1823202Y1585184*
X1822566*
X1825589D02*
Y1580591D01*
Y1585184D02*
X1827816Y1580591D01*
Y1585184D02*
Y1580591D01*
X1829248Y1585184D02*
X1830520Y1580591D01*
X1831793Y1585184D02*
X1830520Y1580591D01*
X1835452Y1584528D02*
X1835134Y1584966D01*
X1834657Y1585184*
X1834020*
X1833543Y1584966*
X1833225Y1584528*
Y1584091*
X1833384Y1583653*
X1833543Y1583434*
X1833861Y1583216*
X1834816Y1582778*
X1835134Y1582559*
X1835293Y1582341*
X1835452Y1581903*
Y1581247*
X1835134Y1580809*
X1834657Y1580591*
X1834020*
X1833543Y1580809*
X1833225Y1581247*
X1837998Y1585184D02*
Y1580591D01*
X1836884Y1585184D02*
X1839111D01*
X1840543D02*
Y1580591D01*
Y1585184D02*
X1841975D01*
X1842452Y1584966*
X1842611Y1584747*
X1842770Y1584309*
Y1583872*
X1842611Y1583434*
X1842452Y1583216*
X1841975Y1582997*
X1840543D02*
X1841975D01*
X1842452Y1582778*
X1842611Y1582559*
X1842770Y1582122*
Y1581466*
X1842611Y1581028*
X1842452Y1580809*
X1841975Y1580591*
X1840543*
X1751641Y1429800D02*
X1756234D01*
X1751641D02*
Y1431232D01*
X1751859Y1431709*
X1752078Y1431868*
X1752516Y1432027*
X1752953*
X1753391Y1431868*
X1753609Y1431709*
X1753828Y1431232*
Y1429800*
Y1430914D02*
X1756234Y1432027D01*
X1752516Y1433459D02*
X1752297Y1433777D01*
X1751641Y1434255*
X1756234*
X1751641Y1436005D02*
Y1437755D01*
X1753391Y1436800*
Y1437277*
X1753609Y1437595*
X1753828Y1437755*
X1754484Y1437914*
X1754922*
X1755578Y1437755*
X1756016Y1437436*
X1756234Y1436959*
Y1436482*
X1756016Y1436005*
X1755797Y1435845*
X1755359Y1435686*
X1946009Y1458934D02*
Y1454341D01*
Y1458934D02*
X1947441D01*
X1947918Y1458716*
X1948077Y1458497*
X1948236Y1458059*
Y1457622*
X1948077Y1457184*
X1947918Y1456966*
X1947441Y1456747*
X1946009*
X1947123D02*
X1948236Y1454341D01*
X1951736Y1458934D02*
X1950145D01*
X1949986Y1456966*
X1950145Y1457184*
X1950623Y1457403*
X1951100*
X1951577Y1457184*
X1951895Y1456747*
X1952055Y1456091*
X1951895Y1455653*
X1951736Y1454997*
X1951418Y1454559*
X1950941Y1454341*
X1950464*
X1949986Y1454559*
X1949827Y1454778*
X1949668Y1455216*
X1946168Y1482684D02*
Y1478091D01*
Y1482684D02*
X1947600D01*
X1948077Y1482466*
X1948236Y1482247*
X1948395Y1481809*
Y1481372*
X1948236Y1480934*
X1948077Y1480716*
X1947600Y1480497*
X1946168*
X1947282D02*
X1948395Y1478091D01*
X1951736Y1482028D02*
X1951577Y1482466D01*
X1951100Y1482684*
X1950782*
X1950305Y1482466*
X1949986Y1481809*
X1949827Y1480716*
Y1479622*
X1949986Y1478747*
X1950305Y1478309*
X1950782Y1478091*
X1950941*
X1951418Y1478309*
X1951736Y1478747*
X1951895Y1479403*
Y1479622*
X1951736Y1480278*
X1951418Y1480716*
X1950941Y1480934*
X1950782*
X1950305Y1480716*
X1949986Y1480278*
X1949827Y1479622*
X1929141Y1744743D02*
X1933734D01*
X1929141D02*
Y1746175D01*
X1929359Y1746652*
X1929578Y1746811*
X1930016Y1746970*
X1930453*
X1930891Y1746811*
X1931109Y1746652*
X1931328Y1746175*
Y1744743*
Y1745857D02*
X1933734Y1746970D01*
X1930672Y1750470D02*
X1931328Y1750311D01*
X1931766Y1749993*
X1931984Y1749516*
Y1749357*
X1931766Y1748880*
X1931328Y1748561*
X1930672Y1748402*
X1930453*
X1929797Y1748561*
X1929359Y1748880*
X1929141Y1749357*
Y1749516*
X1929359Y1749993*
X1929797Y1750311*
X1930672Y1750470*
X1931766*
X1932859Y1750311*
X1933516Y1749993*
X1933734Y1749516*
Y1749198*
X1933516Y1748720*
X1933078Y1748561*
X1929141Y1703550D02*
X1933734D01*
X1929141D02*
Y1704982D01*
X1929359Y1705459*
X1929578Y1705618*
X1930016Y1705777*
X1930453*
X1930891Y1705618*
X1931109Y1705459*
X1931328Y1704982*
Y1703550*
Y1704664D02*
X1933734Y1705777D01*
X1930016Y1707209D02*
X1929797Y1707527D01*
X1929141Y1708005*
X1933734*
X1929141Y1710391D02*
X1929359Y1709914D01*
X1930016Y1709595*
X1931109Y1709436*
X1931766*
X1932859Y1709595*
X1933516Y1709914*
X1933734Y1710391*
Y1710709*
X1933516Y1711186*
X1932859Y1711505*
X1931766Y1711664*
X1931109*
X1930016Y1711505*
X1929359Y1711186*
X1929141Y1710709*
Y1710391*
X1936641Y1744266D02*
X1941234D01*
X1936641D02*
Y1745698D01*
X1936859Y1746175*
X1937078Y1746334*
X1937516Y1746493*
X1937953*
X1938391Y1746334*
X1938609Y1746175*
X1938828Y1745698*
Y1744266*
Y1745380D02*
X1941234Y1746493D01*
X1937516Y1747925D02*
X1937297Y1748243D01*
X1936641Y1748720*
X1941234*
X1937516Y1750152D02*
X1937297Y1750470D01*
X1936641Y1750948*
X1941234*
X1936641Y1703550D02*
X1941234D01*
X1936641D02*
Y1704982D01*
X1936859Y1705459*
X1937078Y1705618*
X1937516Y1705777*
X1937953*
X1938391Y1705618*
X1938609Y1705459*
X1938828Y1704982*
Y1703550*
Y1704664D02*
X1941234Y1705777D01*
X1937516Y1707209D02*
X1937297Y1707527D01*
X1936641Y1708005*
X1941234*
X1937734Y1709595D02*
X1937516D01*
X1937078Y1709755*
X1936859Y1709914*
X1936641Y1710232*
Y1710868*
X1936859Y1711186*
X1937078Y1711345*
X1937516Y1711505*
X1937953*
X1938391Y1711345*
X1939047Y1711027*
X1941234Y1709436*
Y1711664*
X1802339Y1550184D02*
Y1545591D01*
X1804566Y1550184D02*
X1802339Y1547122D01*
X1803134Y1548216D02*
X1804566Y1545591D01*
X1806952Y1550184D02*
X1806475Y1549966D01*
X1806157Y1549309*
X1805998Y1548216*
Y1547559*
X1806157Y1546466*
X1806475Y1545809*
X1806952Y1545591*
X1807270*
X1807748Y1545809*
X1808066Y1546466*
X1808225Y1547559*
Y1548216*
X1808066Y1549309*
X1807748Y1549966*
X1807270Y1550184*
X1806952*
X1820555Y1545184D02*
Y1540591D01*
X1822782Y1545184D02*
X1820555Y1542122D01*
X1821350Y1543216D02*
X1822782Y1540591D01*
X1824214Y1544309D02*
X1824532Y1544528D01*
X1825009Y1545184*
Y1540591*
X1801225Y1500184D02*
Y1495591D01*
X1803452Y1500184D02*
X1801225Y1497122D01*
X1802020Y1498216D02*
X1803452Y1495591D01*
X1804884Y1499309D02*
X1805202Y1499528D01*
X1805680Y1500184*
Y1495591*
X1808066Y1500184D02*
X1807589Y1499966D01*
X1807270Y1499309*
X1807111Y1498216*
Y1497559*
X1807270Y1496466*
X1807589Y1495809*
X1808066Y1495591*
X1808384*
X1808861Y1495809*
X1809180Y1496466*
X1809339Y1497559*
Y1498216*
X1809180Y1499309*
X1808861Y1499966*
X1808384Y1500184*
X1808066*
X1819441Y1495184D02*
Y1490591D01*
X1821668Y1495184D02*
X1819441Y1492122D01*
X1820236Y1493216D02*
X1821668Y1490591D01*
X1823100Y1494309D02*
X1823418Y1494528D01*
X1823895Y1495184*
Y1490591*
X1825327Y1494309D02*
X1825645Y1494528D01*
X1826123Y1495184*
Y1490591*
X1801225Y1490184D02*
Y1485591D01*
X1803452Y1490184D02*
X1801225Y1487122D01*
X1802020Y1488216D02*
X1803452Y1485591D01*
X1804884Y1489309D02*
X1805202Y1489528D01*
X1805680Y1490184*
Y1485591*
X1807270Y1489091D02*
Y1489309D01*
X1807430Y1489747*
X1807589Y1489966*
X1807907Y1490184*
X1808543*
X1808861Y1489966*
X1809020Y1489747*
X1809180Y1489309*
Y1488872*
X1809020Y1488434*
X1808702Y1487778*
X1807111Y1485591*
X1809339*
X1819975Y1485184D02*
Y1480591D01*
X1822202Y1485184D02*
X1819975Y1482122D01*
X1820770Y1483216D02*
X1822202Y1480591D01*
X1823634Y1484309D02*
X1823952Y1484528D01*
X1824430Y1485184*
Y1480591*
X1826180Y1485184D02*
X1827930D01*
X1826975Y1483434*
X1827452*
X1827770Y1483216*
X1827930Y1482997*
X1828089Y1482341*
Y1481903*
X1827930Y1481247*
X1827611Y1480809*
X1827134Y1480591*
X1826657*
X1826180Y1480809*
X1826020Y1481028*
X1825861Y1481466*
X1801145Y1480184D02*
Y1475591D01*
X1803373Y1480184D02*
X1801145Y1477122D01*
X1801941Y1478216D02*
X1803373Y1475591D01*
X1804805Y1479309D02*
X1805123Y1479528D01*
X1805600Y1480184*
Y1475591*
X1808623Y1480184D02*
X1807032Y1477122D01*
X1809418*
X1808623Y1480184D02*
Y1475591D01*
X1819895Y1475184D02*
Y1470591D01*
X1822123Y1475184D02*
X1819895Y1472122D01*
X1820691Y1473216D02*
X1822123Y1470591D01*
X1823555Y1474309D02*
X1823873Y1474528D01*
X1824350Y1475184*
Y1470591*
X1827850Y1475184D02*
X1826259D01*
X1826100Y1473216*
X1826259Y1473434*
X1826736Y1473653*
X1827214*
X1827691Y1473434*
X1828009Y1472997*
X1828168Y1472341*
X1828009Y1471903*
X1827850Y1471247*
X1827532Y1470809*
X1827055Y1470591*
X1826577*
X1826100Y1470809*
X1825941Y1471028*
X1825782Y1471466*
X1802339Y1540184D02*
Y1535591D01*
X1804566Y1540184D02*
X1802339Y1537122D01*
X1803134Y1538216D02*
X1804566Y1535591D01*
X1806157Y1539091D02*
Y1539309D01*
X1806316Y1539747*
X1806475Y1539966*
X1806793Y1540184*
X1807430*
X1807748Y1539966*
X1807907Y1539747*
X1808066Y1539309*
Y1538872*
X1807907Y1538434*
X1807589Y1537778*
X1805998Y1535591*
X1808225*
X1819839Y1535184D02*
Y1530591D01*
X1822066Y1535184D02*
X1819839Y1532122D01*
X1820634Y1533216D02*
X1822066Y1530591D01*
X1823816Y1535184D02*
X1825566D01*
X1824611Y1533434*
X1825089*
X1825407Y1533216*
X1825566Y1532997*
X1825725Y1532341*
Y1531903*
X1825566Y1531247*
X1825248Y1530809*
X1824770Y1530591*
X1824293*
X1823816Y1530809*
X1823657Y1531028*
X1823498Y1531466*
X1802259Y1530184D02*
Y1525591D01*
X1804486Y1530184D02*
X1802259Y1527122D01*
X1803055Y1528216D02*
X1804486Y1525591D01*
X1807509Y1530184D02*
X1805918Y1527122D01*
X1808305*
X1807509Y1530184D02*
Y1525591D01*
X1819759Y1525184D02*
Y1520591D01*
X1821986Y1525184D02*
X1819759Y1522122D01*
X1820555Y1523216D02*
X1821986Y1520591D01*
X1825486Y1525184D02*
X1823895D01*
X1823736Y1523216*
X1823895Y1523434*
X1824373Y1523653*
X1824850*
X1825327Y1523434*
X1825645Y1522997*
X1825805Y1522341*
X1825645Y1521903*
X1825486Y1521247*
X1825168Y1520809*
X1824691Y1520591*
X1824214*
X1823736Y1520809*
X1823577Y1521028*
X1823418Y1521466*
X1802418Y1520184D02*
Y1515591D01*
X1804645Y1520184D02*
X1802418Y1517122D01*
X1803214Y1518216D02*
X1804645Y1515591D01*
X1807986Y1519528D02*
X1807827Y1519966D01*
X1807350Y1520184*
X1807032*
X1806555Y1519966*
X1806236Y1519309*
X1806077Y1518216*
Y1517122*
X1806236Y1516247*
X1806555Y1515809*
X1807032Y1515591*
X1807191*
X1807668Y1515809*
X1807986Y1516247*
X1808145Y1516903*
Y1517122*
X1807986Y1517778*
X1807668Y1518216*
X1807191Y1518434*
X1807032*
X1806555Y1518216*
X1806236Y1517778*
X1806077Y1517122*
X1819839Y1515184D02*
Y1510591D01*
X1822066Y1515184D02*
X1819839Y1512122D01*
X1820634Y1513216D02*
X1822066Y1510591D01*
X1825725Y1515184D02*
X1824134Y1510591D01*
X1823498Y1515184D02*
X1825725D01*
X1802339Y1510184D02*
Y1505591D01*
X1804566Y1510184D02*
X1802339Y1507122D01*
X1803134Y1508216D02*
X1804566Y1505591D01*
X1806793Y1510184D02*
X1806316Y1509966D01*
X1806157Y1509528*
Y1509091*
X1806316Y1508653*
X1806634Y1508434*
X1807270Y1508216*
X1807748Y1507997*
X1808066Y1507559*
X1808225Y1507122*
Y1506466*
X1808066Y1506028*
X1807907Y1505809*
X1807430Y1505591*
X1806793*
X1806316Y1505809*
X1806157Y1506028*
X1805998Y1506466*
Y1507122*
X1806157Y1507559*
X1806475Y1507997*
X1806952Y1508216*
X1807589Y1508434*
X1807907Y1508653*
X1808066Y1509091*
Y1509528*
X1807907Y1509966*
X1807430Y1510184*
X1806793*
X1819918Y1505184D02*
Y1500591D01*
X1822145Y1505184D02*
X1819918Y1502122D01*
X1820714Y1503216D02*
X1822145Y1500591D01*
X1825645Y1503653D02*
X1825486Y1502997D01*
X1825168Y1502559*
X1824691Y1502341*
X1824532*
X1824055Y1502559*
X1823736Y1502997*
X1823577Y1503653*
Y1503872*
X1823736Y1504528*
X1824055Y1504966*
X1824532Y1505184*
X1824691*
X1825168Y1504966*
X1825486Y1504528*
X1825645Y1503653*
Y1502559*
X1825486Y1501466*
X1825168Y1500809*
X1824691Y1500591*
X1824373*
X1823895Y1500809*
X1823736Y1501247*
X1932891Y1447914D02*
X1937484D01*
Y1449823*
X1933984Y1453641D02*
X1933547Y1453482D01*
X1933109Y1453164*
X1932891Y1452845*
Y1452209*
X1933109Y1451891*
X1933547Y1451573*
X1933984Y1451414*
X1934641Y1451255*
X1935734*
X1936391Y1451414*
X1936828Y1451573*
X1937266Y1451891*
X1937484Y1452209*
Y1452845*
X1937266Y1453164*
X1936828Y1453482*
X1936391Y1453641*
X1933984Y1455232D02*
X1933766D01*
X1933328Y1455391*
X1933109Y1455550*
X1932891Y1455868*
Y1456505*
X1933109Y1456823*
X1933328Y1456982*
X1933766Y1457141*
X1934203*
X1934641Y1456982*
X1935297Y1456664*
X1937484Y1455073*
Y1457300*
X2010055Y1732684D02*
Y1728091D01*
X2011964*
X2015782Y1731591D02*
X2015623Y1732028D01*
X2015305Y1732466*
X2014986Y1732684*
X2014350*
X2014032Y1732466*
X2013714Y1732028*
X2013555Y1731591*
X2013395Y1730934*
Y1729841*
X2013555Y1729184*
X2013714Y1728747*
X2014032Y1728309*
X2014350Y1728091*
X2014986*
X2015305Y1728309*
X2015623Y1728747*
X2015782Y1729184*
X2017214Y1731809D02*
X2017532Y1732028D01*
X2018009Y1732684*
Y1728091*
X1804023Y1712491D02*
X1803864Y1712928D01*
X1803545Y1713366*
X1803227Y1713584*
X1802591*
X1802273Y1713366*
X1801955Y1712928*
X1801795Y1712491*
X1801636Y1711834*
Y1710741*
X1801795Y1710084*
X1801955Y1709647*
X1802273Y1709209*
X1802591Y1708991*
X1803227*
X1803545Y1709209*
X1803864Y1709647*
X1804023Y1710084*
X1806409Y1713584D02*
X1806091Y1713366D01*
X1805773Y1712928*
X1805614Y1712491*
X1805455Y1711834*
Y1710741*
X1805614Y1710084*
X1805773Y1709647*
X1806091Y1709209*
X1806409Y1708991*
X1807045*
X1807364Y1709209*
X1807682Y1709647*
X1807841Y1710084*
X1808000Y1710741*
Y1711834*
X1807841Y1712491*
X1807682Y1712928*
X1807364Y1713366*
X1807045Y1713584*
X1806409*
X1809432D02*
Y1708991D01*
Y1713584D02*
X1811659Y1708991D01*
Y1713584D02*
Y1708991D01*
X1813091Y1713584D02*
X1814364Y1708991D01*
X1815636Y1713584D02*
X1814364Y1708991D01*
X1819295Y1712928D02*
X1818977Y1713366D01*
X1818500Y1713584*
X1817864*
X1817386Y1713366*
X1817068Y1712928*
Y1712491*
X1817227Y1712053*
X1817386Y1711834*
X1817705Y1711616*
X1818659Y1711178*
X1818977Y1710959*
X1819136Y1710741*
X1819295Y1710303*
Y1709647*
X1818977Y1709209*
X1818500Y1708991*
X1817864*
X1817386Y1709209*
X1817068Y1709647*
X1821841Y1713584D02*
Y1708991D01*
X1820727Y1713584D02*
X1822955D01*
X1824386Y1708116D02*
X1827727D01*
X1829955Y1713584D02*
X1828682Y1708991D01*
X1829955Y1713584D02*
X1831227Y1708991D01*
X1829159Y1710522D02*
X1830750D01*
X1779484Y1644157D02*
X1779047Y1643998D01*
X1778609Y1643680*
X1778391Y1643361*
Y1642725*
X1778609Y1642407*
X1779047Y1642089*
X1779484Y1641930*
X1780141Y1641770*
X1781234*
X1781891Y1641930*
X1782328Y1642089*
X1782766Y1642407*
X1782984Y1642725*
Y1643361*
X1782766Y1643680*
X1782328Y1643998*
X1781891Y1644157*
X1778391Y1646543D02*
X1778609Y1646225D01*
X1779047Y1645907*
X1779484Y1645748*
X1780141Y1645589*
X1781234*
X1781891Y1645748*
X1782328Y1645907*
X1782766Y1646225*
X1782984Y1646543*
Y1647180*
X1782766Y1647498*
X1782328Y1647816*
X1781891Y1647975*
X1781234Y1648134*
X1780141*
X1779484Y1647975*
X1779047Y1647816*
X1778609Y1647498*
X1778391Y1647180*
Y1646543*
Y1649566D02*
X1782984D01*
X1778391D02*
X1782984Y1651793D01*
X1778391D02*
X1782984D01*
X1778391Y1653225D02*
X1782984Y1654498D01*
X1778391Y1655770D02*
X1782984Y1654498D01*
X1779047Y1659430D02*
X1778609Y1659111D01*
X1778391Y1658634*
Y1657998*
X1778609Y1657520*
X1779047Y1657202*
X1779484*
X1779922Y1657361*
X1780141Y1657520*
X1780359Y1657839*
X1780797Y1658793*
X1781016Y1659111*
X1781234Y1659270*
X1781672Y1659430*
X1782328*
X1782766Y1659111*
X1782984Y1658634*
Y1657998*
X1782766Y1657520*
X1782328Y1657202*
X1778391Y1661975D02*
X1782984D01*
X1778391Y1660861D02*
Y1663089D01*
X1783859Y1664520D02*
Y1667861D01*
X1778391Y1668816D02*
X1782984D01*
X1778391D02*
Y1670248D01*
X1778609Y1670725*
X1778828Y1670884*
X1779266Y1671043*
X1779703*
X1780141Y1670884*
X1780359Y1670725*
X1780578Y1670248*
Y1668816D02*
Y1670248D01*
X1780797Y1670725*
X1781016Y1670884*
X1781453Y1671043*
X1782109*
X1782547Y1670884*
X1782766Y1670725*
X1782984Y1670248*
Y1668816*
X1853636Y1668128D02*
X1853318Y1668566D01*
X1852841Y1668784*
X1852205*
X1851727Y1668566*
X1851409Y1668128*
Y1667691*
X1851568Y1667253*
X1851727Y1667034*
X1852045Y1666816*
X1853000Y1666378*
X1853318Y1666159*
X1853477Y1665941*
X1853636Y1665503*
Y1664847*
X1853318Y1664409*
X1852841Y1664191*
X1852205*
X1851727Y1664409*
X1851409Y1664847*
X1857455Y1667691D02*
X1857295Y1668128D01*
X1856977Y1668566*
X1856659Y1668784*
X1856023*
X1855705Y1668566*
X1855386Y1668128*
X1855227Y1667691*
X1855068Y1667034*
Y1665941*
X1855227Y1665284*
X1855386Y1664847*
X1855705Y1664409*
X1856023Y1664191*
X1856659*
X1856977Y1664409*
X1857295Y1664847*
X1857455Y1665284*
X1858886Y1668784D02*
Y1664191D01*
X1860795*
X1862227Y1668784D02*
Y1664191D01*
X1864455Y1668784D02*
X1862227Y1665722D01*
X1863023Y1666816D02*
X1864455Y1664191D01*
X1847489Y1713184D02*
Y1708591D01*
Y1713184D02*
X1848920D01*
X1849398Y1712966*
X1849557Y1712747*
X1849716Y1712309*
Y1711872*
X1849557Y1711434*
X1849398Y1711216*
X1848920Y1710997*
X1847489*
X1848602D02*
X1849716Y1708591D01*
X1851148Y1713184D02*
Y1708591D01*
Y1713184D02*
X1852261D01*
X1852739Y1712966*
X1853057Y1712528*
X1853216Y1712091*
X1853375Y1711434*
Y1710341*
X1853216Y1709684*
X1853057Y1709247*
X1852739Y1708809*
X1852261Y1708591*
X1851148*
X1855795Y1411691D02*
X1855636Y1412128D01*
X1855318Y1412566*
X1855000Y1412784*
X1854364*
X1854045Y1412566*
X1853727Y1412128*
X1853568Y1411691*
X1853409Y1411034*
Y1409941*
X1853568Y1409284*
X1853727Y1408847*
X1854045Y1408409*
X1854364Y1408191*
X1855000*
X1855318Y1408409*
X1855636Y1408847*
X1855795Y1409284*
X1859455Y1412128D02*
X1859136Y1412566D01*
X1858659Y1412784*
X1858023*
X1857545Y1412566*
X1857227Y1412128*
Y1411691*
X1857386Y1411253*
X1857545Y1411034*
X1857864Y1410816*
X1858818Y1410378*
X1859136Y1410159*
X1859295Y1409941*
X1859455Y1409503*
Y1408847*
X1859136Y1408409*
X1858659Y1408191*
X1858023*
X1857545Y1408409*
X1857227Y1408847*
X1810234Y1413184D02*
Y1408591D01*
Y1413184D02*
X1811348D01*
X1811825Y1412966*
X1812143Y1412528*
X1812302Y1412091*
X1812461Y1411434*
Y1410341*
X1812302Y1409684*
X1812143Y1409247*
X1811825Y1408809*
X1811348Y1408591*
X1810234*
X1814848Y1413184D02*
X1814530Y1412966D01*
X1814211Y1412528*
X1814052Y1412091*
X1813893Y1411434*
Y1410341*
X1814052Y1409684*
X1814211Y1409247*
X1814530Y1408809*
X1814848Y1408591*
X1815484*
X1815802Y1408809*
X1816120Y1409247*
X1816280Y1409684*
X1816439Y1410341*
Y1411434*
X1816280Y1412091*
X1816120Y1412528*
X1815802Y1412966*
X1815484Y1413184*
X1814848*
X1817870D02*
Y1409903D01*
X1818030Y1409247*
X1818348Y1408809*
X1818825Y1408591*
X1819143*
X1819620Y1408809*
X1819939Y1409247*
X1820098Y1409903*
Y1413184*
X1822643D02*
Y1408591D01*
X1821530Y1413184D02*
X1823757D01*
X1825189Y1407716D02*
X1828530D01*
X1830757Y1413184D02*
X1829484Y1408591D01*
X1830757Y1413184D02*
X1832030Y1408591D01*
X1829961Y1410122D02*
X1831552D01*
X1780659Y1413184D02*
Y1408591D01*
Y1413184D02*
X1781773D01*
X1782250Y1412966*
X1782568Y1412528*
X1782727Y1412091*
X1782886Y1411434*
Y1410341*
X1782727Y1409684*
X1782568Y1409247*
X1782250Y1408809*
X1781773Y1408591*
X1780659*
X1784318Y1413184D02*
Y1408591D01*
Y1413184D02*
X1785750D01*
X1786227Y1412966*
X1786386Y1412747*
X1786545Y1412309*
Y1411872*
X1786386Y1411434*
X1786227Y1411216*
X1785750Y1410997*
X1784318D02*
X1785750D01*
X1786227Y1410778*
X1786386Y1410559*
X1786545Y1410122*
Y1409466*
X1786386Y1409028*
X1786227Y1408809*
X1785750Y1408591*
X1784318*
X1788773Y1413184D02*
X1788295Y1412966D01*
X1788136Y1412528*
Y1412091*
X1788295Y1411653*
X1788614Y1411434*
X1789250Y1411216*
X1789727Y1410997*
X1790045Y1410559*
X1790205Y1410122*
Y1409466*
X1790045Y1409028*
X1789886Y1408809*
X1789409Y1408591*
X1788773*
X1788295Y1408809*
X1788136Y1409028*
X1787977Y1409466*
Y1410122*
X1788136Y1410559*
X1788455Y1410997*
X1788932Y1411216*
X1789568Y1411434*
X1789886Y1411653*
X1790045Y1412091*
Y1412528*
X1789886Y1412966*
X1789409Y1413184*
X1788773*
X2142657Y1575184D02*
X2143930Y1570591D01*
X2145202Y1575184D02*
X2143930Y1570591D01*
X2146634Y1574309D02*
X2146952Y1574528D01*
X2147430Y1575184*
Y1570591*
X2148861Y1569716D02*
X2152202D01*
X2154430Y1575184D02*
X2153157Y1570591D01*
X2154430Y1575184D02*
X2155702Y1570591D01*
X2153634Y1572122D02*
X2155225D01*
X2157134Y1575184D02*
Y1570591D01*
Y1575184D02*
X2158248D01*
X2158725Y1574966*
X2159043Y1574528*
X2159202Y1574091*
X2159361Y1573434*
Y1572341*
X2159202Y1571684*
X2159043Y1571247*
X2158725Y1570809*
X2158248Y1570591*
X2157134*
X2163180Y1574091D02*
X2163020Y1574528D01*
X2162702Y1574966*
X2162384Y1575184*
X2161748*
X2161430Y1574966*
X2161111Y1574528*
X2160952Y1574091*
X2160793Y1573434*
Y1572341*
X2160952Y1571684*
X2161111Y1571247*
X2161430Y1570809*
X2161748Y1570591*
X2162384*
X2162702Y1570809*
X2163020Y1571247*
X2163180Y1571684*
X2164611Y1574309D02*
X2164930Y1574528D01*
X2165407Y1575184*
Y1570591*
X2141645Y1432684D02*
X2142918Y1428091D01*
X2144191Y1432684D02*
X2142918Y1428091D01*
X2145623Y1431809D02*
X2145941Y1432028D01*
X2146418Y1432684*
Y1428091*
X1834145Y1638278D02*
X1833827Y1638716D01*
X1833350Y1638934*
X1832714*
X1832236Y1638716*
X1831918Y1638278*
Y1637841*
X1832077Y1637403*
X1832236Y1637184*
X1832555Y1636966*
X1833509Y1636528*
X1833827Y1636309*
X1833986Y1636091*
X1834145Y1635653*
Y1634997*
X1833827Y1634559*
X1833350Y1634341*
X1832714*
X1832236Y1634559*
X1831918Y1634997*
X1835577Y1638934D02*
Y1634341D01*
X1837486*
X1839236Y1638934D02*
X1840986D01*
X1840032Y1637184*
X1840509*
X1840827Y1636966*
X1840986Y1636747*
X1841145Y1636091*
Y1635653*
X1840986Y1634997*
X1840668Y1634559*
X1840191Y1634341*
X1839714*
X1839236Y1634559*
X1839077Y1634778*
X1838918Y1635216*
X1818547Y1553970D02*
X1818109Y1553652D01*
X1817891Y1553175*
Y1552539*
X1818109Y1552061*
X1818547Y1551743*
X1818984*
X1819422Y1551902*
X1819641Y1552061*
X1819859Y1552380*
X1820297Y1553334*
X1820516Y1553652*
X1820734Y1553811*
X1821172Y1553970*
X1821828*
X1822266Y1553652*
X1822484Y1553175*
Y1552539*
X1822266Y1552061*
X1821828Y1551743*
X1817891Y1555402D02*
X1822484D01*
Y1557311*
X1818984Y1558902D02*
X1818766D01*
X1818328Y1559061*
X1818109Y1559220*
X1817891Y1559539*
Y1560175*
X1818109Y1560493*
X1818328Y1560652*
X1818766Y1560811*
X1819203*
X1819641Y1560652*
X1820297Y1560334*
X1822484Y1558743*
Y1560970*
X2019839Y1650184D02*
Y1646903D01*
X2019998Y1646247*
X2020316Y1645809*
X2020793Y1645591*
X2021111*
X2021589Y1645809*
X2021907Y1646247*
X2022066Y1646903*
Y1650184*
X2023657Y1649091D02*
Y1649309D01*
X2023816Y1649747*
X2023975Y1649966*
X2024293Y1650184*
X2024930*
X2025248Y1649966*
X2025407Y1649747*
X2025566Y1649309*
Y1648872*
X2025407Y1648434*
X2025089Y1647778*
X2023498Y1645591*
X2025725*
X2027339Y1562684D02*
Y1559403D01*
X2027498Y1558747*
X2027816Y1558309*
X2028293Y1558091*
X2028611*
X2029089Y1558309*
X2029407Y1558747*
X2029566Y1559403*
Y1562684*
X2031316D02*
X2033066D01*
X2032111Y1560934*
X2032589*
X2032907Y1560716*
X2033066Y1560497*
X2033225Y1559841*
Y1559403*
X2033066Y1558747*
X2032748Y1558309*
X2032270Y1558091*
X2031793*
X2031316Y1558309*
X2031157Y1558528*
X2030998Y1558966*
X2050234Y1558891D02*
X2049797Y1558732D01*
X2049359Y1558414*
X2049141Y1558095*
Y1557459*
X2049359Y1557141*
X2049797Y1556823*
X2050234Y1556664*
X2050891Y1556505*
X2051984*
X2052641Y1556664*
X2053078Y1556823*
X2053516Y1557141*
X2053734Y1557459*
Y1558095*
X2053516Y1558414*
X2053078Y1558732*
X2052641Y1558891*
X2050234Y1560482D02*
X2050016D01*
X2049578Y1560641*
X2049359Y1560800*
X2049141Y1561118*
Y1561755*
X2049359Y1562073*
X2049578Y1562232*
X2050016Y1562391*
X2050453*
X2050891Y1562232*
X2051547Y1561914*
X2053734Y1560323*
Y1562550*
X2049141Y1564936D02*
X2049359Y1564459D01*
X2050016Y1564141*
X2051109Y1563982*
X2051766*
X2052859Y1564141*
X2053516Y1564459*
X2053734Y1564936*
Y1565255*
X2053516Y1565732*
X2052859Y1566050*
X2051766Y1566209*
X2051109*
X2050016Y1566050*
X2049359Y1565732*
X2049141Y1565255*
Y1564936*
X1985984Y1590073D02*
X1985547Y1589914D01*
X1985109Y1589595*
X1984891Y1589277*
Y1588641*
X1985109Y1588323*
X1985547Y1588005*
X1985984Y1587845*
X1986641Y1587686*
X1987734*
X1988391Y1587845*
X1988828Y1588005*
X1989266Y1588323*
X1989484Y1588641*
Y1589277*
X1989266Y1589595*
X1988828Y1589914*
X1988391Y1590073*
X1985766Y1591505D02*
X1985547Y1591823D01*
X1984891Y1592300*
X1989484*
X1985766Y1593732D02*
X1985547Y1594050D01*
X1984891Y1594527*
X1989484*
X1944141Y1743630D02*
X1948734D01*
X1944141D02*
Y1745061D01*
X1944359Y1745539*
X1944578Y1745698*
X1945016Y1745857*
X1945453*
X1945891Y1745698*
X1946109Y1745539*
X1946328Y1745061*
Y1743630*
Y1744743D02*
X1948734Y1745857D01*
X1945016Y1747289D02*
X1944797Y1747607D01*
X1944141Y1748084*
X1948734*
X1944797Y1751425D02*
X1944359Y1751266D01*
X1944141Y1750789*
Y1750470*
X1944359Y1749993*
X1945016Y1749675*
X1946109Y1749516*
X1947203*
X1948078Y1749675*
X1948516Y1749993*
X1948734Y1750470*
Y1750630*
X1948516Y1751107*
X1948078Y1751425*
X1947422Y1751584*
X1947203*
X1946547Y1751425*
X1946109Y1751107*
X1945891Y1750630*
Y1750470*
X1946109Y1749993*
X1946547Y1749675*
X1947203Y1749516*
X2092250Y1677684D02*
Y1673091D01*
Y1677684D02*
X2093682D01*
X2094159Y1677466*
X2094318Y1677247*
X2094477Y1676809*
Y1676372*
X2094318Y1675934*
X2094159Y1675716*
X2093682Y1675497*
X2092250*
X2093364D02*
X2094477Y1673091D01*
X2097500Y1677684D02*
X2095909Y1674622D01*
X2098295*
X2097500Y1677684D02*
Y1673091D01*
X2101955Y1677684D02*
X2100364Y1673091D01*
X2099727Y1677684D02*
X2101955D01*
X2092250Y1632684D02*
Y1628091D01*
Y1632684D02*
X2093682D01*
X2094159Y1632466*
X2094318Y1632247*
X2094477Y1631809*
Y1631372*
X2094318Y1630934*
X2094159Y1630716*
X2093682Y1630497*
X2092250*
X2093364D02*
X2094477Y1628091D01*
X2096227Y1632684D02*
X2097977D01*
X2097023Y1630934*
X2097500*
X2097818Y1630716*
X2097977Y1630497*
X2098136Y1629841*
Y1629403*
X2097977Y1628747*
X2097659Y1628309*
X2097182Y1628091*
X2096705*
X2096227Y1628309*
X2096068Y1628528*
X2095909Y1628966*
X2101636Y1632684D02*
X2100045D01*
X2099886Y1630716*
X2100045Y1630934*
X2100523Y1631153*
X2101000*
X2101477Y1630934*
X2101795Y1630497*
X2101955Y1629841*
X2101795Y1629403*
X2101636Y1628747*
X2101318Y1628309*
X2100841Y1628091*
X2100364*
X2099886Y1628309*
X2099727Y1628528*
X2099568Y1628966*
X2092250Y1685184D02*
Y1680591D01*
Y1685184D02*
X2093682D01*
X2094159Y1684966*
X2094318Y1684747*
X2094477Y1684309*
Y1683872*
X2094318Y1683434*
X2094159Y1683216*
X2093682Y1682997*
X2092250*
X2093364D02*
X2094477Y1680591D01*
X2097500Y1685184D02*
X2095909Y1682122D01*
X2098295*
X2097500Y1685184D02*
Y1680591D01*
X2100523Y1685184D02*
X2100045Y1684966D01*
X2099886Y1684528*
Y1684091*
X2100045Y1683653*
X2100364Y1683434*
X2101000Y1683216*
X2101477Y1682997*
X2101795Y1682559*
X2101955Y1682122*
Y1681466*
X2101795Y1681028*
X2101636Y1680809*
X2101159Y1680591*
X2100523*
X2100045Y1680809*
X2099886Y1681028*
X2099727Y1681466*
Y1682122*
X2099886Y1682559*
X2100205Y1682997*
X2100682Y1683216*
X2101318Y1683434*
X2101636Y1683653*
X2101795Y1684091*
Y1684528*
X2101636Y1684966*
X2101159Y1685184*
X2100523*
X2092250Y1692684D02*
Y1688091D01*
Y1692684D02*
X2093682D01*
X2094159Y1692466*
X2094318Y1692247*
X2094477Y1691809*
Y1691372*
X2094318Y1690934*
X2094159Y1690716*
X2093682Y1690497*
X2092250*
X2093364D02*
X2094477Y1688091D01*
X2097977Y1692684D02*
X2096386D01*
X2096227Y1690716*
X2096386Y1690934*
X2096864Y1691153*
X2097341*
X2097818Y1690934*
X2098136Y1690497*
X2098295Y1689841*
X2098136Y1689403*
X2097977Y1688747*
X2097659Y1688309*
X2097182Y1688091*
X2096705*
X2096227Y1688309*
X2096068Y1688528*
X2095909Y1688966*
X2099727Y1691809D02*
X2100045Y1692028D01*
X2100523Y1692684*
Y1688091*
X1995509Y1570184D02*
Y1565591D01*
Y1570184D02*
X1996941D01*
X1997418Y1569966*
X1997577Y1569747*
X1997736Y1569309*
Y1568872*
X1997577Y1568434*
X1997418Y1568216*
X1996941Y1567997*
X1995509*
X1996623D02*
X1997736Y1565591D01*
X1999327Y1569091D02*
Y1569309D01*
X1999486Y1569747*
X1999645Y1569966*
X1999964Y1570184*
X2000600*
X2000918Y1569966*
X2001077Y1569747*
X2001236Y1569309*
Y1568872*
X2001077Y1568434*
X2000759Y1567778*
X1999168Y1565591*
X2001395*
X2003782Y1570184D02*
X2003305Y1569966D01*
X2002986Y1569309*
X2002827Y1568216*
Y1567559*
X2002986Y1566466*
X2003305Y1565809*
X2003782Y1565591*
X2004100*
X2004577Y1565809*
X2004895Y1566466*
X2005055Y1567559*
Y1568216*
X2004895Y1569309*
X2004577Y1569966*
X2004100Y1570184*
X2003782*
X1883582Y1712491D02*
X1883423Y1712928D01*
X1883105Y1713366*
X1882786Y1713584*
X1882150*
X1881832Y1713366*
X1881514Y1712928*
X1881355Y1712491*
X1881195Y1711834*
Y1710741*
X1881355Y1710084*
X1881514Y1709647*
X1881832Y1709209*
X1882150Y1708991*
X1882786*
X1883105Y1709209*
X1883423Y1709647*
X1883582Y1710084*
X1887241Y1712928D02*
X1886923Y1713366D01*
X1886445Y1713584*
X1885809*
X1885332Y1713366*
X1885014Y1712928*
Y1712491*
X1885173Y1712053*
X1885332Y1711834*
X1885650Y1711616*
X1886605Y1711178*
X1886923Y1710959*
X1887082Y1710741*
X1887241Y1710303*
Y1709647*
X1886923Y1709209*
X1886445Y1708991*
X1885809*
X1885332Y1709209*
X1885014Y1709647*
X1888673Y1712709D02*
X1888991Y1712928D01*
X1889468Y1713584*
Y1708991*
X1857361Y1639528D02*
X1857043Y1639966D01*
X1856566Y1640184*
X1855930*
X1855452Y1639966*
X1855134Y1639528*
Y1639091*
X1855293Y1638653*
X1855452Y1638434*
X1855770Y1638216*
X1856725Y1637778*
X1857043Y1637559*
X1857202Y1637341*
X1857361Y1636903*
Y1636247*
X1857043Y1635809*
X1856566Y1635591*
X1855930*
X1855452Y1635809*
X1855134Y1636247*
X1858793Y1640184D02*
Y1635591D01*
X1860702*
X1862134Y1639309D02*
X1862452Y1639528D01*
X1862930Y1640184*
Y1635591*
X1924907Y1668934D02*
Y1664341D01*
Y1668934D02*
X1926339D01*
X1926816Y1668716*
X1926975Y1668497*
X1927134Y1668059*
Y1667622*
X1926975Y1667184*
X1926816Y1666966*
X1926339Y1666747*
X1924907D02*
X1926339D01*
X1926816Y1666528*
X1926975Y1666309*
X1927134Y1665872*
Y1665216*
X1926975Y1664778*
X1926816Y1664559*
X1926339Y1664341*
X1924907*
X1928566Y1668934D02*
Y1665653D01*
X1928725Y1664997*
X1929043Y1664559*
X1929520Y1664341*
X1929839*
X1930316Y1664559*
X1930634Y1664997*
X1930793Y1665653*
Y1668934*
X1934452Y1668278D02*
X1934134Y1668716D01*
X1933657Y1668934*
X1933020*
X1932543Y1668716*
X1932225Y1668278*
Y1667841*
X1932384Y1667403*
X1932543Y1667184*
X1932861Y1666966*
X1933816Y1666528*
X1934134Y1666309*
X1934293Y1666091*
X1934452Y1665653*
Y1664997*
X1934134Y1664559*
X1933657Y1664341*
X1933020*
X1932543Y1664559*
X1932225Y1664997*
X1935884Y1668934D02*
X1937157Y1666747D01*
Y1664341*
X1938430Y1668934D02*
X1937157Y1666747D01*
X1939861Y1668059D02*
X1940180Y1668278D01*
X1940657Y1668934*
Y1664341*
X1955009Y1676434D02*
Y1671841D01*
Y1676434D02*
X1957077D01*
X1955009Y1674247D02*
X1956282D01*
X1958509Y1676434D02*
Y1671841D01*
Y1676434D02*
X1959941D01*
X1960418Y1676216*
X1960577Y1675997*
X1960736Y1675559*
Y1675122*
X1960577Y1674684*
X1960418Y1674466*
X1959941Y1674247*
X1958509*
X1959623D02*
X1960736Y1671841D01*
X1964395Y1675778D02*
X1964077Y1676216D01*
X1963600Y1676434*
X1962964*
X1962486Y1676216*
X1962168Y1675778*
Y1675341*
X1962327Y1674903*
X1962486Y1674684*
X1962805Y1674466*
X1963759Y1674028*
X1964077Y1673809*
X1964236Y1673591*
X1964395Y1673153*
Y1672497*
X1964077Y1672059*
X1963600Y1671841*
X1962964*
X1962486Y1672059*
X1962168Y1672497*
X1966941Y1676434D02*
Y1671841D01*
X1965827Y1676434D02*
X1968055D01*
X1969486D02*
Y1671841D01*
Y1676434D02*
X1970600D01*
X1971077Y1676216*
X1971395Y1675778*
X1971555Y1675341*
X1971714Y1674684*
Y1673591*
X1971555Y1672934*
X1971395Y1672497*
X1971077Y1672059*
X1970600Y1671841*
X1969486*
X1974418Y1676434D02*
X1973145Y1671841D01*
X1974418Y1676434D02*
X1975691Y1671841D01*
X1973623Y1673372D02*
X1975214D01*
X1978236Y1676434D02*
Y1671841D01*
X1977123Y1676434D02*
X1979350D01*
X1982055D02*
X1980782Y1671841D01*
X1982055Y1676434D02*
X1983327Y1671841D01*
X1981259Y1673372D02*
X1982850D01*
X1984759Y1675559D02*
X1985077Y1675778D01*
X1985555Y1676434*
Y1671841*
X1877748Y1651216D02*
X1880134Y1646841D01*
X1884430Y1650341D02*
X1884270Y1650778D01*
X1883952Y1651216*
X1883634Y1651434*
X1882998*
X1882680Y1651216*
X1882361Y1650778*
X1882202Y1650341*
X1882043Y1649684*
Y1648591*
X1882202Y1647934*
X1882361Y1647497*
X1882680Y1647059*
X1882998Y1646841*
X1883634*
X1883952Y1647059*
X1884270Y1647497*
X1884430Y1647934*
X1888089Y1650778D02*
X1887770Y1651216D01*
X1887293Y1651434*
X1886657*
X1886180Y1651216*
X1885861Y1650778*
Y1650341*
X1886020Y1649903*
X1886180Y1649684*
X1886498Y1649466*
X1887452Y1649028*
X1887770Y1648809*
X1887930Y1648591*
X1888089Y1648153*
Y1647497*
X1887770Y1647059*
X1887293Y1646841*
X1886657*
X1886180Y1647059*
X1885861Y1647497*
X1889520Y1650559D02*
X1889839Y1650778D01*
X1890316Y1651434*
Y1646841*
X2064984Y1503061D02*
X2064547Y1502902D01*
X2064109Y1502584*
X2063891Y1502266*
Y1501630*
X2064109Y1501311*
X2064547Y1500993*
X2064984Y1500834*
X2065641Y1500675*
X2066734*
X2067391Y1500834*
X2067828Y1500993*
X2068266Y1501311*
X2068484Y1501630*
Y1502266*
X2068266Y1502584*
X2067828Y1502902*
X2067391Y1503061*
X2063891Y1504811D02*
Y1506561D01*
X2065641Y1505607*
Y1506084*
X2065859Y1506402*
X2066078Y1506561*
X2066734Y1506720*
X2067172*
X2067828Y1506561*
X2068266Y1506243*
X2068484Y1505766*
Y1505289*
X2068266Y1504811*
X2068047Y1504652*
X2067609Y1504493*
X2063891Y1509743D02*
X2066953Y1508152D01*
Y1510539*
X2063891Y1509743D02*
X2068484D01*
X2089259Y1481434D02*
Y1476841D01*
Y1481434D02*
X2090691D01*
X2091168Y1481216*
X2091327Y1480997*
X2091486Y1480559*
Y1480122*
X2091327Y1479684*
X2091168Y1479466*
X2090691Y1479247*
X2089259*
X2090373D02*
X2091486Y1476841D01*
X2093236Y1481434D02*
X2094986D01*
X2094032Y1479684*
X2094509*
X2094827Y1479466*
X2094986Y1479247*
X2095145Y1478591*
Y1478153*
X2094986Y1477497*
X2094668Y1477059*
X2094191Y1476841*
X2093714*
X2093236Y1477059*
X2093077Y1477278*
X2092918Y1477716*
X2097532Y1481434D02*
X2097055Y1481216D01*
X2096736Y1480559*
X2096577Y1479466*
Y1478809*
X2096736Y1477716*
X2097055Y1477059*
X2097532Y1476841*
X2097850*
X2098327Y1477059*
X2098645Y1477716*
X2098805Y1478809*
Y1479466*
X2098645Y1480559*
X2098327Y1481216*
X2097850Y1481434*
X2097532*
X2090509Y1541434D02*
Y1536841D01*
Y1541434D02*
X2091941D01*
X2092418Y1541216*
X2092577Y1540997*
X2092736Y1540559*
Y1540122*
X2092577Y1539684*
X2092418Y1539466*
X2091941Y1539247*
X2090509*
X2091623D02*
X2092736Y1536841D01*
X2095759Y1541434D02*
X2094168Y1538372D01*
X2096555*
X2095759Y1541434D02*
Y1536841D01*
X2099895Y1540778D02*
X2099736Y1541216D01*
X2099259Y1541434*
X2098941*
X2098464Y1541216*
X2098145Y1540559*
X2097986Y1539466*
Y1538372*
X2098145Y1537497*
X2098464Y1537059*
X2098941Y1536841*
X2099100*
X2099577Y1537059*
X2099895Y1537497*
X2100055Y1538153*
Y1538372*
X2099895Y1539028*
X2099577Y1539466*
X2099100Y1539684*
X2098941*
X2098464Y1539466*
X2098145Y1539028*
X2097986Y1538372*
X2092250Y1640184D02*
Y1635591D01*
Y1640184D02*
X2093682D01*
X2094159Y1639966*
X2094318Y1639747*
X2094477Y1639309*
Y1638872*
X2094318Y1638434*
X2094159Y1638216*
X2093682Y1637997*
X2092250*
X2093364D02*
X2094477Y1635591D01*
X2096227Y1640184D02*
X2097977D01*
X2097023Y1638434*
X2097500*
X2097818Y1638216*
X2097977Y1637997*
X2098136Y1637341*
Y1636903*
X2097977Y1636247*
X2097659Y1635809*
X2097182Y1635591*
X2096705*
X2096227Y1635809*
X2096068Y1636028*
X2095909Y1636466*
X2101477Y1639528D02*
X2101318Y1639966D01*
X2100841Y1640184*
X2100523*
X2100045Y1639966*
X2099727Y1639309*
X2099568Y1638216*
Y1637122*
X2099727Y1636247*
X2100045Y1635809*
X2100523Y1635591*
X2100682*
X2101159Y1635809*
X2101477Y1636247*
X2101636Y1636903*
Y1637122*
X2101477Y1637778*
X2101159Y1638216*
X2100682Y1638434*
X2100523*
X2100045Y1638216*
X2099727Y1637778*
X2099568Y1637122*
X2089259Y1511434D02*
Y1506841D01*
Y1511434D02*
X2090691D01*
X2091168Y1511216*
X2091327Y1510997*
X2091486Y1510559*
Y1510122*
X2091327Y1509684*
X2091168Y1509466*
X2090691Y1509247*
X2089259*
X2090373D02*
X2091486Y1506841D01*
X2093236Y1511434D02*
X2094986D01*
X2094032Y1509684*
X2094509*
X2094827Y1509466*
X2094986Y1509247*
X2095145Y1508591*
Y1508153*
X2094986Y1507497*
X2094668Y1507059*
X2094191Y1506841*
X2093714*
X2093236Y1507059*
X2093077Y1507278*
X2092918Y1507716*
X2097373Y1511434D02*
X2096895Y1511216D01*
X2096736Y1510778*
Y1510341*
X2096895Y1509903*
X2097214Y1509684*
X2097850Y1509466*
X2098327Y1509247*
X2098645Y1508809*
X2098805Y1508372*
Y1507716*
X2098645Y1507278*
X2098486Y1507059*
X2098009Y1506841*
X2097373*
X2096895Y1507059*
X2096736Y1507278*
X2096577Y1507716*
Y1508372*
X2096736Y1508809*
X2097055Y1509247*
X2097532Y1509466*
X2098168Y1509684*
X2098486Y1509903*
X2098645Y1510341*
Y1510778*
X2098486Y1511216*
X2098009Y1511434*
X2097373*
X2090430Y1556434D02*
Y1551841D01*
Y1556434D02*
X2091861D01*
X2092339Y1556216*
X2092498Y1555997*
X2092657Y1555559*
Y1555122*
X2092498Y1554684*
X2092339Y1554466*
X2091861Y1554247*
X2090430*
X2091543D02*
X2092657Y1551841D01*
X2096157Y1556434D02*
X2094566D01*
X2094407Y1554466*
X2094566Y1554684*
X2095043Y1554903*
X2095520*
X2095998Y1554684*
X2096316Y1554247*
X2096475Y1553591*
X2096316Y1553153*
X2096157Y1552497*
X2095839Y1552059*
X2095361Y1551841*
X2094884*
X2094407Y1552059*
X2094248Y1552278*
X2094089Y1552716*
X2098861Y1556434D02*
X2098384Y1556216D01*
X2098066Y1555559*
X2097907Y1554466*
Y1553809*
X2098066Y1552716*
X2098384Y1552059*
X2098861Y1551841*
X2099180*
X2099657Y1552059*
X2099975Y1552716*
X2100134Y1553809*
Y1554466*
X2099975Y1555559*
X2099657Y1556216*
X2099180Y1556434*
X2098861*
X2092250Y1655184D02*
Y1650591D01*
Y1655184D02*
X2093682D01*
X2094159Y1654966*
X2094318Y1654747*
X2094477Y1654309*
Y1653872*
X2094318Y1653434*
X2094159Y1653216*
X2093682Y1652997*
X2092250*
X2093364D02*
X2094477Y1650591D01*
X2097500Y1655184D02*
X2095909Y1652122D01*
X2098295*
X2097500Y1655184D02*
Y1650591D01*
X2100682Y1655184D02*
X2100205Y1654966D01*
X2099886Y1654309*
X2099727Y1653216*
Y1652559*
X2099886Y1651466*
X2100205Y1650809*
X2100682Y1650591*
X2101000*
X2101477Y1650809*
X2101795Y1651466*
X2101955Y1652559*
Y1653216*
X2101795Y1654309*
X2101477Y1654966*
X2101000Y1655184*
X2100682*
X2092250Y1595184D02*
Y1590591D01*
Y1595184D02*
X2093682D01*
X2094159Y1594966*
X2094318Y1594747*
X2094477Y1594309*
Y1593872*
X2094318Y1593434*
X2094159Y1593216*
X2093682Y1592997*
X2092250*
X2093364D02*
X2094477Y1590591D01*
X2096068Y1594091D02*
Y1594309D01*
X2096227Y1594747*
X2096386Y1594966*
X2096705Y1595184*
X2097341*
X2097659Y1594966*
X2097818Y1594747*
X2097977Y1594309*
Y1593872*
X2097818Y1593434*
X2097500Y1592778*
X2095909Y1590591*
X2098136*
X2101159Y1595184D02*
X2099568Y1592122D01*
X2101955*
X2101159Y1595184D02*
Y1590591D01*
X2092250Y1610184D02*
Y1605591D01*
Y1610184D02*
X2093682D01*
X2094159Y1609966*
X2094318Y1609747*
X2094477Y1609309*
Y1608872*
X2094318Y1608434*
X2094159Y1608216*
X2093682Y1607997*
X2092250*
X2093364D02*
X2094477Y1605591D01*
X2096068Y1609091D02*
Y1609309D01*
X2096227Y1609747*
X2096386Y1609966*
X2096705Y1610184*
X2097341*
X2097659Y1609966*
X2097818Y1609747*
X2097977Y1609309*
Y1608872*
X2097818Y1608434*
X2097500Y1607778*
X2095909Y1605591*
X2098136*
X2100364Y1610184D02*
X2099886Y1609966D01*
X2099727Y1609528*
Y1609091*
X2099886Y1608653*
X2100205Y1608434*
X2100841Y1608216*
X2101318Y1607997*
X2101636Y1607559*
X2101795Y1607122*
Y1606466*
X2101636Y1606028*
X2101477Y1605809*
X2101000Y1605591*
X2100364*
X2099886Y1605809*
X2099727Y1606028*
X2099568Y1606466*
Y1607122*
X2099727Y1607559*
X2100045Y1607997*
X2100523Y1608216*
X2101159Y1608434*
X2101477Y1608653*
X2101636Y1609091*
Y1609528*
X2101477Y1609966*
X2101000Y1610184*
X2100364*
X2092250Y1625184D02*
Y1620591D01*
Y1625184D02*
X2093682D01*
X2094159Y1624966*
X2094318Y1624747*
X2094477Y1624309*
Y1623872*
X2094318Y1623434*
X2094159Y1623216*
X2093682Y1622997*
X2092250*
X2093364D02*
X2094477Y1620591D01*
X2096227Y1625184D02*
X2097977D01*
X2097023Y1623434*
X2097500*
X2097818Y1623216*
X2097977Y1622997*
X2098136Y1622341*
Y1621903*
X2097977Y1621247*
X2097659Y1620809*
X2097182Y1620591*
X2096705*
X2096227Y1620809*
X2096068Y1621028*
X2095909Y1621466*
X2099727Y1624091D02*
Y1624309D01*
X2099886Y1624747*
X2100045Y1624966*
X2100364Y1625184*
X2101000*
X2101318Y1624966*
X2101477Y1624747*
X2101636Y1624309*
Y1623872*
X2101477Y1623434*
X2101159Y1622778*
X2099568Y1620591*
X2101795*
X2089180Y1496434D02*
Y1491841D01*
Y1496434D02*
X2090611D01*
X2091089Y1496216*
X2091248Y1495997*
X2091407Y1495559*
Y1495122*
X2091248Y1494684*
X2091089Y1494466*
X2090611Y1494247*
X2089180*
X2090293D02*
X2091407Y1491841D01*
X2093157Y1496434D02*
X2094907D01*
X2093952Y1494684*
X2094430*
X2094748Y1494466*
X2094907Y1494247*
X2095066Y1493591*
Y1493153*
X2094907Y1492497*
X2094589Y1492059*
X2094111Y1491841*
X2093634*
X2093157Y1492059*
X2092998Y1492278*
X2092839Y1492716*
X2098089Y1496434D02*
X2096498Y1493372D01*
X2098884*
X2098089Y1496434D02*
Y1491841D01*
X2092250Y1700184D02*
Y1695591D01*
Y1700184D02*
X2093682D01*
X2094159Y1699966*
X2094318Y1699747*
X2094477Y1699309*
Y1698872*
X2094318Y1698434*
X2094159Y1698216*
X2093682Y1697997*
X2092250*
X2093364D02*
X2094477Y1695591D01*
X2097977Y1700184D02*
X2096386D01*
X2096227Y1698216*
X2096386Y1698434*
X2096864Y1698653*
X2097341*
X2097818Y1698434*
X2098136Y1697997*
X2098295Y1697341*
X2098136Y1696903*
X2097977Y1696247*
X2097659Y1695809*
X2097182Y1695591*
X2096705*
X2096227Y1695809*
X2096068Y1696028*
X2095909Y1696466*
X2099886Y1699091D02*
Y1699309D01*
X2100045Y1699747*
X2100205Y1699966*
X2100523Y1700184*
X2101159*
X2101477Y1699966*
X2101636Y1699747*
X2101795Y1699309*
Y1698872*
X2101636Y1698434*
X2101318Y1697778*
X2099727Y1695591*
X2101955*
X2092250Y1670184D02*
Y1665591D01*
Y1670184D02*
X2093682D01*
X2094159Y1669966*
X2094318Y1669747*
X2094477Y1669309*
Y1668872*
X2094318Y1668434*
X2094159Y1668216*
X2093682Y1667997*
X2092250*
X2093364D02*
X2094477Y1665591D01*
X2097500Y1670184D02*
X2095909Y1667122D01*
X2098295*
X2097500Y1670184D02*
Y1665591D01*
X2101318Y1670184D02*
X2099727Y1667122D01*
X2102114*
X2101318Y1670184D02*
Y1665591D01*
X2089180Y1526434D02*
Y1521841D01*
Y1526434D02*
X2090611D01*
X2091089Y1526216*
X2091248Y1525997*
X2091407Y1525559*
Y1525122*
X2091248Y1524684*
X2091089Y1524466*
X2090611Y1524247*
X2089180*
X2090293D02*
X2091407Y1521841D01*
X2094430Y1526434D02*
X2092839Y1523372D01*
X2095225*
X2094430Y1526434D02*
Y1521841D01*
X2096816Y1525341D02*
Y1525559D01*
X2096975Y1525997*
X2097134Y1526216*
X2097452Y1526434*
X2098089*
X2098407Y1526216*
X2098566Y1525997*
X2098725Y1525559*
Y1525122*
X2098566Y1524684*
X2098248Y1524028*
X2096657Y1521841*
X2098884*
X1959141Y1561050D02*
X1963734D01*
X1959141D02*
Y1562482D01*
X1959359Y1562959*
X1959578Y1563118*
X1960016Y1563277*
X1960453*
X1960891Y1563118*
X1961109Y1562959*
X1961328Y1562482*
Y1561050*
Y1562164D02*
X1963734Y1563277D01*
X1960016Y1564709D02*
X1959797Y1565027D01*
X1959141Y1565505*
X1963734*
X1959141Y1567732D02*
X1959359Y1567255D01*
X1959797Y1567095*
X1960234*
X1960672Y1567255*
X1960891Y1567573*
X1961109Y1568209*
X1961328Y1568686*
X1961766Y1569005*
X1962203Y1569164*
X1962859*
X1963297Y1569005*
X1963516Y1568845*
X1963734Y1568368*
Y1567732*
X1963516Y1567255*
X1963297Y1567095*
X1962859Y1566936*
X1962203*
X1961766Y1567095*
X1961328Y1567414*
X1961109Y1567891*
X1960891Y1568527*
X1960672Y1568845*
X1960234Y1569005*
X1959797*
X1959359Y1568845*
X1959141Y1568368*
Y1567732*
Y1601130D02*
X1963734D01*
X1959141D02*
Y1602561D01*
X1959359Y1603039*
X1959578Y1603198*
X1960016Y1603357*
X1960453*
X1960891Y1603198*
X1961109Y1603039*
X1961328Y1602561*
Y1601130*
Y1602243D02*
X1963734Y1603357D01*
X1960016Y1604789D02*
X1959797Y1605107D01*
X1959141Y1605584*
X1963734*
X1960672Y1609084D02*
X1961328Y1608925D01*
X1961766Y1608607*
X1961984Y1608130*
Y1607970*
X1961766Y1607493*
X1961328Y1607175*
X1960672Y1607016*
X1960453*
X1959797Y1607175*
X1959359Y1607493*
X1959141Y1607970*
Y1608130*
X1959359Y1608607*
X1959797Y1608925*
X1960672Y1609084*
X1961766*
X1962859Y1608925*
X1963516Y1608607*
X1963734Y1608130*
Y1607811*
X1963516Y1607334*
X1963078Y1607175*
X2091839Y1466434D02*
Y1461841D01*
Y1466434D02*
X2093270D01*
X2093748Y1466216*
X2093907Y1465997*
X2094066Y1465559*
Y1465122*
X2093907Y1464684*
X2093748Y1464466*
X2093270Y1464247*
X2091839*
X2092952D02*
X2094066Y1461841D01*
X2095657Y1465341D02*
Y1465559D01*
X2095816Y1465997*
X2095975Y1466216*
X2096293Y1466434*
X2096930*
X2097248Y1466216*
X2097407Y1465997*
X2097566Y1465559*
Y1465122*
X2097407Y1464684*
X2097089Y1464028*
X2095498Y1461841*
X2097725*
X2101066Y1465778D02*
X2100907Y1466216D01*
X2100430Y1466434*
X2100111*
X2099634Y1466216*
X2099316Y1465559*
X2099157Y1464466*
Y1463372*
X2099316Y1462497*
X2099634Y1462059*
X2100111Y1461841*
X2100270*
X2100748Y1462059*
X2101066Y1462497*
X2101225Y1463153*
Y1463372*
X2101066Y1464028*
X2100748Y1464466*
X2100270Y1464684*
X2100111*
X2099634Y1464466*
X2099316Y1464028*
X2099157Y1463372*
X2091759Y1451434D02*
Y1446841D01*
Y1451434D02*
X2093191D01*
X2093668Y1451216*
X2093827Y1450997*
X2093986Y1450559*
Y1450122*
X2093827Y1449684*
X2093668Y1449466*
X2093191Y1449247*
X2091759*
X2092873D02*
X2093986Y1446841D01*
X2095577Y1450341D02*
Y1450559D01*
X2095736Y1450997*
X2095895Y1451216*
X2096214Y1451434*
X2096850*
X2097168Y1451216*
X2097327Y1450997*
X2097486Y1450559*
Y1450122*
X2097327Y1449684*
X2097009Y1449028*
X2095418Y1446841*
X2097645*
X2099236Y1450341D02*
Y1450559D01*
X2099395Y1450997*
X2099555Y1451216*
X2099873Y1451434*
X2100509*
X2100827Y1451216*
X2100986Y1450997*
X2101145Y1450559*
Y1450122*
X2100986Y1449684*
X2100668Y1449028*
X2099077Y1446841*
X2101305*
X2127202Y1544091D02*
Y1540591D01*
X2127043Y1539934*
X2126884Y1539716*
X2126566Y1539497*
X2126248*
X2125930Y1539716*
X2125770Y1539934*
X2125611Y1540591*
Y1541028*
X2128952Y1544091D02*
X2130702D01*
X2129748Y1542341*
X2130225*
X2130543Y1542122*
X2130702Y1541903*
X2130861Y1541247*
Y1540809*
X2130702Y1540153*
X2130384Y1539716*
X2129907Y1539497*
X2129430*
X2128952Y1539716*
X2128793Y1539934*
X2128634Y1540372*
X2127918Y1687684D02*
Y1684184D01*
X2127759Y1683528*
X2127600Y1683309*
X2127282Y1683091*
X2126964*
X2126645Y1683309*
X2126486Y1683528*
X2126327Y1684184*
Y1684622*
X2130941Y1687684D02*
X2129350Y1684622D01*
X2131736*
X2130941Y1687684D02*
Y1683091D01*
X2064984Y1442720D02*
X2064547Y1442561D01*
X2064109Y1442243*
X2063891Y1441925*
Y1441289*
X2064109Y1440970*
X2064547Y1440652*
X2064984Y1440493*
X2065641Y1440334*
X2066734*
X2067391Y1440493*
X2067828Y1440652*
X2068266Y1440970*
X2068484Y1441289*
Y1441925*
X2068266Y1442243*
X2067828Y1442561*
X2067391Y1442720*
X2064984Y1444311D02*
X2064766D01*
X2064328Y1444470*
X2064109Y1444630*
X2063891Y1444948*
Y1445584*
X2064109Y1445902*
X2064328Y1446061*
X2064766Y1446220*
X2065203*
X2065641Y1446061*
X2066297Y1445743*
X2068484Y1444152*
Y1446380*
X2064547Y1449720D02*
X2064109Y1449561D01*
X2063891Y1449084*
Y1448766*
X2064109Y1448289*
X2064766Y1447970*
X2065859Y1447811*
X2066953*
X2067828Y1447970*
X2068266Y1448289*
X2068484Y1448766*
Y1448925*
X2068266Y1449402*
X2067828Y1449720*
X2067172Y1449880*
X2066953*
X2066297Y1449720*
X2065859Y1449402*
X2065641Y1448925*
Y1448766*
X2065859Y1448289*
X2066297Y1447970*
X2066953Y1447811*
X2064984Y1517220D02*
X2064547Y1517061D01*
X2064109Y1516743*
X2063891Y1516425*
Y1515789*
X2064109Y1515470*
X2064547Y1515152*
X2064984Y1514993*
X2065641Y1514834*
X2066734*
X2067391Y1514993*
X2067828Y1515152*
X2068266Y1515470*
X2068484Y1515789*
Y1516425*
X2068266Y1516743*
X2067828Y1517061*
X2067391Y1517220*
X2063891Y1518970D02*
Y1520720D01*
X2065641Y1519766*
Y1520243*
X2065859Y1520561*
X2066078Y1520720*
X2066734Y1520880*
X2067172*
X2067828Y1520720*
X2068266Y1520402*
X2068484Y1519925*
Y1519448*
X2068266Y1518970*
X2068047Y1518811*
X2067609Y1518652*
X2064547Y1524220D02*
X2064109Y1524061D01*
X2063891Y1523584*
Y1523266*
X2064109Y1522789*
X2064766Y1522470*
X2065859Y1522311*
X2066953*
X2067828Y1522470*
X2068266Y1522789*
X2068484Y1523266*
Y1523425*
X2068266Y1523902*
X2067828Y1524220*
X2067172Y1524380*
X2066953*
X2066297Y1524220*
X2065859Y1523902*
X2065641Y1523425*
Y1523266*
X2065859Y1522789*
X2066297Y1522470*
X2066953Y1522311*
X2064984Y1532641D02*
X2064547Y1532482D01*
X2064109Y1532164*
X2063891Y1531845*
Y1531209*
X2064109Y1530891*
X2064547Y1530573*
X2064984Y1530414*
X2065641Y1530255*
X2066734*
X2067391Y1530414*
X2067828Y1530573*
X2068266Y1530891*
X2068484Y1531209*
Y1531845*
X2068266Y1532164*
X2067828Y1532482*
X2067391Y1532641*
X2063891Y1534391D02*
Y1536141D01*
X2065641Y1535186*
Y1535664*
X2065859Y1535982*
X2066078Y1536141*
X2066734Y1536300*
X2067172*
X2067828Y1536141*
X2068266Y1535823*
X2068484Y1535345*
Y1534868*
X2068266Y1534391*
X2068047Y1534232*
X2067609Y1534073*
X2063891Y1538527D02*
X2064109Y1538050D01*
X2064547Y1537891*
X2064984*
X2065422Y1538050*
X2065641Y1538368*
X2065859Y1539005*
X2066078Y1539482*
X2066516Y1539800*
X2066953Y1539959*
X2067609*
X2068047Y1539800*
X2068266Y1539641*
X2068484Y1539164*
Y1538527*
X2068266Y1538050*
X2068047Y1537891*
X2067609Y1537732*
X2066953*
X2066516Y1537891*
X2066078Y1538209*
X2065859Y1538686*
X2065641Y1539323*
X2065422Y1539641*
X2064984Y1539800*
X2064547*
X2064109Y1539641*
X2063891Y1539164*
Y1538527*
X2064984Y1457141D02*
X2064547Y1456982D01*
X2064109Y1456664*
X2063891Y1456345*
Y1455709*
X2064109Y1455391*
X2064547Y1455073*
X2064984Y1454914*
X2065641Y1454755*
X2066734*
X2067391Y1454914*
X2067828Y1455073*
X2068266Y1455391*
X2068484Y1455709*
Y1456345*
X2068266Y1456664*
X2067828Y1456982*
X2067391Y1457141*
X2064984Y1458732D02*
X2064766D01*
X2064328Y1458891*
X2064109Y1459050*
X2063891Y1459368*
Y1460005*
X2064109Y1460323*
X2064328Y1460482*
X2064766Y1460641*
X2065203*
X2065641Y1460482*
X2066297Y1460164*
X2068484Y1458573*
Y1460800*
X2063891Y1463027D02*
X2064109Y1462550D01*
X2064547Y1462391*
X2064984*
X2065422Y1462550*
X2065641Y1462868*
X2065859Y1463505*
X2066078Y1463982*
X2066516Y1464300*
X2066953Y1464459*
X2067609*
X2068047Y1464300*
X2068266Y1464141*
X2068484Y1463664*
Y1463027*
X2068266Y1462550*
X2068047Y1462391*
X2067609Y1462232*
X2066953*
X2066516Y1462391*
X2066078Y1462709*
X2065859Y1463186*
X2065641Y1463823*
X2065422Y1464141*
X2064984Y1464300*
X2064547*
X2064109Y1464141*
X2063891Y1463664*
Y1463027*
X2064984Y1472641D02*
X2064547Y1472482D01*
X2064109Y1472164*
X2063891Y1471845*
Y1471209*
X2064109Y1470891*
X2064547Y1470573*
X2064984Y1470414*
X2065641Y1470255*
X2066734*
X2067391Y1470414*
X2067828Y1470573*
X2068266Y1470891*
X2068484Y1471209*
Y1471845*
X2068266Y1472164*
X2067828Y1472482*
X2067391Y1472641*
X2063891Y1474391D02*
Y1476141D01*
X2065641Y1475186*
Y1475664*
X2065859Y1475982*
X2066078Y1476141*
X2066734Y1476300*
X2067172*
X2067828Y1476141*
X2068266Y1475823*
X2068484Y1475345*
Y1474868*
X2068266Y1474391*
X2068047Y1474232*
X2067609Y1474073*
X2063891Y1478686D02*
X2064109Y1478209D01*
X2064766Y1477891*
X2065859Y1477732*
X2066516*
X2067609Y1477891*
X2068266Y1478209*
X2068484Y1478686*
Y1479005*
X2068266Y1479482*
X2067609Y1479800*
X2066516Y1479959*
X2065859*
X2064766Y1479800*
X2064109Y1479482*
X2063891Y1479005*
Y1478686*
X2064984Y1586641D02*
X2064547Y1586482D01*
X2064109Y1586164*
X2063891Y1585845*
Y1585209*
X2064109Y1584891*
X2064547Y1584573*
X2064984Y1584414*
X2065641Y1584255*
X2066734*
X2067391Y1584414*
X2067828Y1584573*
X2068266Y1584891*
X2068484Y1585209*
Y1585845*
X2068266Y1586164*
X2067828Y1586482*
X2067391Y1586641*
X2064984Y1588232D02*
X2064766D01*
X2064328Y1588391*
X2064109Y1588550*
X2063891Y1588868*
Y1589505*
X2064109Y1589823*
X2064328Y1589982*
X2064766Y1590141*
X2065203*
X2065641Y1589982*
X2066297Y1589664*
X2068484Y1588073*
Y1590300*
X2063891Y1593959D02*
X2068484Y1592368D01*
X2063891Y1591732D02*
Y1593959D01*
X2064484Y1602220D02*
X2064047Y1602061D01*
X2063609Y1601743*
X2063391Y1601425*
Y1600789*
X2063609Y1600470*
X2064047Y1600152*
X2064484Y1599993*
X2065141Y1599834*
X2066234*
X2066891Y1599993*
X2067328Y1600152*
X2067766Y1600470*
X2067984Y1600789*
Y1601425*
X2067766Y1601743*
X2067328Y1602061*
X2066891Y1602220*
X2064484Y1603811D02*
X2064266D01*
X2063828Y1603970*
X2063609Y1604130*
X2063391Y1604448*
Y1605084*
X2063609Y1605402*
X2063828Y1605561*
X2064266Y1605720*
X2064703*
X2065141Y1605561*
X2065797Y1605243*
X2067984Y1603652*
Y1605880*
X2064922Y1609380D02*
X2065578Y1609220D01*
X2066016Y1608902*
X2066234Y1608425*
Y1608266*
X2066016Y1607789*
X2065578Y1607470*
X2064922Y1607311*
X2064703*
X2064047Y1607470*
X2063609Y1607789*
X2063391Y1608266*
Y1608425*
X2063609Y1608902*
X2064047Y1609220*
X2064922Y1609380*
X2066016*
X2067109Y1609220*
X2067766Y1608902*
X2067984Y1608425*
Y1608107*
X2067766Y1607630*
X2067328Y1607470*
X2064484Y1617357D02*
X2064047Y1617198D01*
X2063609Y1616880*
X2063391Y1616561*
Y1615925*
X2063609Y1615607*
X2064047Y1615289*
X2064484Y1615130*
X2065141Y1614970*
X2066234*
X2066891Y1615130*
X2067328Y1615289*
X2067766Y1615607*
X2067984Y1615925*
Y1616561*
X2067766Y1616880*
X2067328Y1617198*
X2066891Y1617357*
X2063391Y1619107D02*
Y1620857D01*
X2065141Y1619902*
Y1620380*
X2065359Y1620698*
X2065578Y1620857*
X2066234Y1621016*
X2066672*
X2067328Y1620857*
X2067766Y1620539*
X2067984Y1620061*
Y1619584*
X2067766Y1619107*
X2067547Y1618948*
X2067109Y1618789*
X2064266Y1622448D02*
X2064047Y1622766D01*
X2063391Y1623243*
X2067984*
X2064984Y1547561D02*
X2064547Y1547402D01*
X2064109Y1547084*
X2063891Y1546766*
Y1546130*
X2064109Y1545811*
X2064547Y1545493*
X2064984Y1545334*
X2065641Y1545175*
X2066734*
X2067391Y1545334*
X2067828Y1545493*
X2068266Y1545811*
X2068484Y1546130*
Y1546766*
X2068266Y1547084*
X2067828Y1547402*
X2067391Y1547561*
X2063891Y1550584D02*
X2066953Y1548993D01*
Y1551380*
X2063891Y1550584D02*
X2068484D01*
X2063891Y1553766D02*
X2064109Y1553289D01*
X2064766Y1552970*
X2065859Y1552811*
X2066516*
X2067609Y1552970*
X2068266Y1553289*
X2068484Y1553766*
Y1554084*
X2068266Y1554561*
X2067609Y1554880*
X2066516Y1555039*
X2065859*
X2064766Y1554880*
X2064109Y1554561*
X2063891Y1554084*
Y1553766*
X2064984Y1646561D02*
X2064547Y1646402D01*
X2064109Y1646084*
X2063891Y1645766*
Y1645130*
X2064109Y1644811*
X2064547Y1644493*
X2064984Y1644334*
X2065641Y1644175*
X2066734*
X2067391Y1644334*
X2067828Y1644493*
X2068266Y1644811*
X2068484Y1645130*
Y1645766*
X2068266Y1646084*
X2067828Y1646402*
X2067391Y1646561*
X2063891Y1648311D02*
Y1650061D01*
X2065641Y1649107*
Y1649584*
X2065859Y1649902*
X2066078Y1650061*
X2066734Y1650220*
X2067172*
X2067828Y1650061*
X2068266Y1649743*
X2068484Y1649266*
Y1648789*
X2068266Y1648311*
X2068047Y1648152*
X2067609Y1647993*
X2063891Y1653720D02*
Y1652130D01*
X2065859Y1651970*
X2065641Y1652130*
X2065422Y1652607*
Y1653084*
X2065641Y1653561*
X2066078Y1653880*
X2066734Y1654039*
X2067172Y1653880*
X2067828Y1653720*
X2068266Y1653402*
X2068484Y1652925*
Y1652448*
X2068266Y1651970*
X2068047Y1651811*
X2067609Y1651652*
X2064984Y1487641D02*
X2064547Y1487482D01*
X2064109Y1487164*
X2063891Y1486845*
Y1486209*
X2064109Y1485891*
X2064547Y1485573*
X2064984Y1485414*
X2065641Y1485255*
X2066734*
X2067391Y1485414*
X2067828Y1485573*
X2068266Y1485891*
X2068484Y1486209*
Y1486845*
X2068266Y1487164*
X2067828Y1487482*
X2067391Y1487641*
X2063891Y1489391D02*
Y1491141D01*
X2065641Y1490186*
Y1490664*
X2065859Y1490982*
X2066078Y1491141*
X2066734Y1491300*
X2067172*
X2067828Y1491141*
X2068266Y1490823*
X2068484Y1490345*
Y1489868*
X2068266Y1489391*
X2068047Y1489232*
X2067609Y1489073*
X2064984Y1492891D02*
X2064766D01*
X2064328Y1493050*
X2064109Y1493209*
X2063891Y1493527*
Y1494164*
X2064109Y1494482*
X2064328Y1494641*
X2064766Y1494800*
X2065203*
X2065641Y1494641*
X2066297Y1494323*
X2068484Y1492732*
Y1494959*
X2064984Y1661641D02*
X2064547Y1661482D01*
X2064109Y1661164*
X2063891Y1660845*
Y1660209*
X2064109Y1659891*
X2064547Y1659573*
X2064984Y1659414*
X2065641Y1659255*
X2066734*
X2067391Y1659414*
X2067828Y1659573*
X2068266Y1659891*
X2068484Y1660209*
Y1660845*
X2068266Y1661164*
X2067828Y1661482*
X2067391Y1661641*
X2063891Y1663391D02*
Y1665141D01*
X2065641Y1664186*
Y1664664*
X2065859Y1664982*
X2066078Y1665141*
X2066734Y1665300*
X2067172*
X2067828Y1665141*
X2068266Y1664823*
X2068484Y1664345*
Y1663868*
X2068266Y1663391*
X2068047Y1663232*
X2067609Y1663073*
X2063891Y1668959D02*
X2068484Y1667368D01*
X2063891Y1666732D02*
Y1668959D01*
X2064984Y1631641D02*
X2064547Y1631482D01*
X2064109Y1631164*
X2063891Y1630845*
Y1630209*
X2064109Y1629891*
X2064547Y1629573*
X2064984Y1629414*
X2065641Y1629255*
X2066734*
X2067391Y1629414*
X2067828Y1629573*
X2068266Y1629891*
X2068484Y1630209*
Y1630845*
X2068266Y1631164*
X2067828Y1631482*
X2067391Y1631641*
X2063891Y1633391D02*
Y1635141D01*
X2065641Y1634186*
Y1634664*
X2065859Y1634982*
X2066078Y1635141*
X2066734Y1635300*
X2067172*
X2067828Y1635141*
X2068266Y1634823*
X2068484Y1634345*
Y1633868*
X2068266Y1633391*
X2068047Y1633232*
X2067609Y1633073*
X2063891Y1637050D02*
Y1638800D01*
X2065641Y1637845*
Y1638323*
X2065859Y1638641*
X2066078Y1638800*
X2066734Y1638959*
X2067172*
X2067828Y1638800*
X2068266Y1638482*
X2068484Y1638005*
Y1637527*
X2068266Y1637050*
X2068047Y1636891*
X2067609Y1636732*
X2064984Y1675720D02*
X2064547Y1675561D01*
X2064109Y1675243*
X2063891Y1674925*
Y1674289*
X2064109Y1673970*
X2064547Y1673652*
X2064984Y1673493*
X2065641Y1673334*
X2066734*
X2067391Y1673493*
X2067828Y1673652*
X2068266Y1673970*
X2068484Y1674289*
Y1674925*
X2068266Y1675243*
X2067828Y1675561*
X2067391Y1675720*
X2063891Y1677470D02*
Y1679220D01*
X2065641Y1678266*
Y1678743*
X2065859Y1679061*
X2066078Y1679220*
X2066734Y1679380*
X2067172*
X2067828Y1679220*
X2068266Y1678902*
X2068484Y1678425*
Y1677948*
X2068266Y1677470*
X2068047Y1677311*
X2067609Y1677152*
X2065422Y1682880D02*
X2066078Y1682720D01*
X2066516Y1682402*
X2066734Y1681925*
Y1681766*
X2066516Y1681289*
X2066078Y1680970*
X2065422Y1680811*
X2065203*
X2064547Y1680970*
X2064109Y1681289*
X2063891Y1681766*
Y1681925*
X2064109Y1682402*
X2064547Y1682720*
X2065422Y1682880*
X2066516*
X2067609Y1682720*
X2068266Y1682402*
X2068484Y1681925*
Y1681607*
X2068266Y1681130*
X2067828Y1680970*
X2064984Y1691777D02*
X2064547Y1691618D01*
X2064109Y1691300*
X2063891Y1690982*
Y1690345*
X2064109Y1690027*
X2064547Y1689709*
X2064984Y1689550*
X2065641Y1689391*
X2066734*
X2067391Y1689550*
X2067828Y1689709*
X2068266Y1690027*
X2068484Y1690345*
Y1690982*
X2068266Y1691300*
X2067828Y1691618*
X2067391Y1691777*
X2063891Y1694800D02*
X2066953Y1693209D01*
Y1695595*
X2063891Y1694800D02*
X2068484D01*
X2064766Y1697027D02*
X2064547Y1697345D01*
X2063891Y1697823*
X2068484*
X1977484Y1588357D02*
X1977047Y1588198D01*
X1976609Y1587880*
X1976391Y1587561*
Y1586925*
X1976609Y1586607*
X1977047Y1586289*
X1977484Y1586130*
X1978141Y1585970*
X1979234*
X1979891Y1586130*
X1980328Y1586289*
X1980766Y1586607*
X1980984Y1586925*
Y1587561*
X1980766Y1587880*
X1980328Y1588198*
X1979891Y1588357*
X1977266Y1589789D02*
X1977047Y1590107D01*
X1976391Y1590584*
X1980984*
X1976391Y1592970D02*
X1976609Y1592493D01*
X1977266Y1592175*
X1978359Y1592016*
X1979016*
X1980109Y1592175*
X1980766Y1592493*
X1980984Y1592970*
Y1593289*
X1980766Y1593766*
X1980109Y1594084*
X1979016Y1594243*
X1978359*
X1977266Y1594084*
X1976609Y1593766*
X1976391Y1593289*
Y1592970*
X2066484Y1573436D02*
X2066047Y1573277D01*
X2065609Y1572959*
X2065391Y1572641*
Y1572005*
X2065609Y1571686*
X2066047Y1571368*
X2066484Y1571209*
X2067141Y1571050*
X2068234*
X2068891Y1571209*
X2069328Y1571368*
X2069766Y1571686*
X2069984Y1572005*
Y1572641*
X2069766Y1572959*
X2069328Y1573277*
X2068891Y1573436*
X2066266Y1574868D02*
X2066047Y1575186D01*
X2065391Y1575664*
X2069984*
X2066922Y1579164D02*
X2067578Y1579005D01*
X2068016Y1578686*
X2068234Y1578209*
Y1578050*
X2068016Y1577573*
X2067578Y1577255*
X2066922Y1577095*
X2066703*
X2066047Y1577255*
X2065609Y1577573*
X2065391Y1578050*
Y1578209*
X2065609Y1578686*
X2066047Y1579005*
X2066922Y1579164*
X2068016*
X2069109Y1579005*
X2069766Y1578686*
X2069984Y1578209*
Y1577891*
X2069766Y1577414*
X2069328Y1577255*
X1994984Y1447470D02*
X1994547Y1447311D01*
X1994109Y1446993*
X1993891Y1446675*
Y1446039*
X1994109Y1445720*
X1994547Y1445402*
X1994984Y1445243*
X1995641Y1445084*
X1996734*
X1997391Y1445243*
X1997828Y1445402*
X1998266Y1445720*
X1998484Y1446039*
Y1446675*
X1998266Y1446993*
X1997828Y1447311*
X1997391Y1447470*
X1993891Y1449698D02*
X1994109Y1449220D01*
X1994547Y1449061*
X1994984*
X1995422Y1449220*
X1995641Y1449539*
X1995859Y1450175*
X1996078Y1450652*
X1996516Y1450970*
X1996953Y1451130*
X1997609*
X1998047Y1450970*
X1998266Y1450811*
X1998484Y1450334*
Y1449698*
X1998266Y1449220*
X1998047Y1449061*
X1997609Y1448902*
X1996953*
X1996516Y1449061*
X1996078Y1449380*
X1995859Y1449857*
X1995641Y1450493*
X1995422Y1450811*
X1994984Y1450970*
X1994547*
X1994109Y1450811*
X1993891Y1450334*
Y1449698*
X2003984Y1448050D02*
X2003547Y1447891D01*
X2003109Y1447573*
X2002891Y1447255*
Y1446618*
X2003109Y1446300*
X2003547Y1445982*
X2003984Y1445823*
X2004641Y1445664*
X2005734*
X2006391Y1445823*
X2006828Y1445982*
X2007266Y1446300*
X2007484Y1446618*
Y1447255*
X2007266Y1447573*
X2006828Y1447891*
X2006391Y1448050*
X2004422Y1451550D02*
X2005078Y1451391D01*
X2005516Y1451073*
X2005734Y1450595*
Y1450436*
X2005516Y1449959*
X2005078Y1449641*
X2004422Y1449482*
X2004203*
X2003547Y1449641*
X2003109Y1449959*
X2002891Y1450436*
Y1450595*
X2003109Y1451073*
X2003547Y1451391*
X2004422Y1451550*
X2005516*
X2006609Y1451391*
X2007266Y1451073*
X2007484Y1450595*
Y1450277*
X2007266Y1449800*
X2006828Y1449641*
X2003484Y1589357D02*
X2003047Y1589198D01*
X2002609Y1588880*
X2002391Y1588561*
Y1587925*
X2002609Y1587607*
X2003047Y1587289*
X2003484Y1587130*
X2004141Y1586970*
X2005234*
X2005891Y1587130*
X2006328Y1587289*
X2006766Y1587607*
X2006984Y1587925*
Y1588561*
X2006766Y1588880*
X2006328Y1589198*
X2005891Y1589357*
X2003266Y1590789D02*
X2003047Y1591107D01*
X2002391Y1591584*
X2006984*
X2002391Y1593811D02*
X2002609Y1593334D01*
X2003047Y1593175*
X2003484*
X2003922Y1593334*
X2004141Y1593652*
X2004359Y1594289*
X2004578Y1594766*
X2005016Y1595084*
X2005453Y1595243*
X2006109*
X2006547Y1595084*
X2006766Y1594925*
X2006984Y1594448*
Y1593811*
X2006766Y1593334*
X2006547Y1593175*
X2006109Y1593016*
X2005453*
X2005016Y1593175*
X2004578Y1593493*
X2004359Y1593970*
X2004141Y1594607*
X2003922Y1594925*
X2003484Y1595084*
X2003047*
X2002609Y1594925*
X2002391Y1594448*
Y1593811*
X1994984Y1589357D02*
X1994547Y1589198D01*
X1994109Y1588880*
X1993891Y1588561*
Y1587925*
X1994109Y1587607*
X1994547Y1587289*
X1994984Y1587130*
X1995641Y1586970*
X1996734*
X1997391Y1587130*
X1997828Y1587289*
X1998266Y1587607*
X1998484Y1587925*
Y1588561*
X1998266Y1588880*
X1997828Y1589198*
X1997391Y1589357*
X1994766Y1590789D02*
X1994547Y1591107D01*
X1993891Y1591584*
X1998484*
X1993891Y1595243D02*
X1998484Y1593652D01*
X1993891Y1593016D02*
Y1595243D01*
X1802250Y1785825D02*
X1804804D01*
X1803588Y1789838*
X1802250Y1785825*
X1802250*
X1804804*
X1803588Y1789838*
X1802250Y1785825*
X1802372Y1792149D02*
X1804804D01*
X1808452Y1781933*
X1806142*
X1805412Y1784001*
X1801642*
X1800912Y1781933*
X1798723*
X1802372Y1792149*
X1809669D02*
X1811858D01*
X1815993Y1785096*
Y1792149*
X1817938*
Y1781933*
X1815750*
X1811615Y1789230*
Y1781933*
X1809669*
Y1792149*
X1822681Y1785825D02*
X1825357D01*
X1824019Y1789838*
X1822681Y1785825*
X1822681*
X1825357*
X1824019Y1789838*
X1822681Y1785825*
X1822803Y1792149D02*
X1825235D01*
X1828884Y1781933*
X1826573*
X1825843Y1784001*
X1822195*
X1821465Y1781933*
X1819154*
X1822803Y1792149*
X1830100D02*
X1832289D01*
Y1783758*
X1837397*
Y1781933*
X1830100*
Y1792149*
X1801277Y1778285D02*
Y1771596D01*
X1803223*
X1803953Y1771718*
X1804196*
X1804439Y1771961*
X1804682Y1772204*
X1804926Y1772447*
X1805169Y1772691*
X1805291Y1773056*
X1805412Y1773542*
X1805534Y1773907*
X1805655Y1774515*
Y1775001*
Y1775731*
X1805534Y1776339*
X1805412Y1776947*
X1805169Y1777434*
X1805047Y1777555*
X1804804Y1777798*
X1804439Y1778042*
X1803831Y1778163*
X1803223Y1778285*
X1801277*
X1805169Y1779744D02*
X1805655Y1779501D01*
X1806142Y1779258*
X1806506Y1778893*
X1806871Y1778528*
X1807115Y1778042*
X1807358Y1777677*
X1807480Y1777312*
X1807601Y1776826*
X1807723Y1775974*
X1807844Y1775123*
X1807723Y1774150*
X1807601Y1773299*
X1807358Y1772447*
X1807236Y1772082*
X1806993Y1771718*
X1806750Y1771231*
X1806385Y1770866*
X1806020Y1770502*
X1805534Y1770258*
X1805169Y1770015*
X1804682Y1769893*
X1804074Y1769772*
X1803588*
X1799210*
Y1779987*
X1803588*
X1804439*
X1805169Y1779744*
X1816965Y1778163D02*
X1811493D01*
Y1776096*
X1816479*
Y1774272*
X1811493*
Y1771596*
X1817209*
Y1769772*
X1809425*
Y1779987*
X1816965*
Y1778163*
X1824870Y1779987D02*
X1827059D01*
X1823533Y1769772*
X1821587*
X1818060Y1779987*
X1820371*
X1822560Y1772326*
X1824870Y1779987*
X1830221Y1769772D02*
X1828154D01*
Y1779987*
X1830221*
Y1769772*
X1828154*
Y1779987*
X1830221*
Y1769772*
X1832910Y1778563D02*
X1833505Y1779258D01*
X1833870Y1779501*
X1834600Y1779866*
X1835451Y1780109*
X1836424Y1780231*
X1837180Y1780243*
X1837640Y1780109*
X1838126Y1779987*
X1838613Y1779744*
X1839099Y1779501*
X1839464Y1779258*
X1839829Y1778893*
X1840194Y1778528*
X1840437Y1778042*
X1840681Y1777555*
X1840802Y1777069*
X1840924Y1776582*
X1838735*
X1838491Y1777191*
X1838248Y1777677*
X1837883Y1778042*
X1837518Y1778163*
X1837032Y1778285*
X1836546Y1778407*
X1835990Y1778353*
X1835694Y1778285*
X1835451Y1778163*
X1834965Y1777798*
X1834600Y1777434*
X1834356Y1776947*
X1834113Y1776339*
X1833991Y1775609*
Y1774028*
X1834113Y1773299*
X1834356Y1772691*
X1834721Y1772204*
X1834843Y1771961*
X1835086Y1771839*
X1835451Y1771596*
X1836021Y1771311*
X1836974Y1771252*
X1837460Y1771423*
X1837883Y1771718*
X1838248Y1772082*
X1838370Y1772326*
X1838491Y1772569*
X1838735Y1773299*
X1840802*
X1840681Y1772447*
X1840316Y1771718*
X1839951Y1771110*
X1839707Y1770866*
X1839464Y1770502*
X1839099Y1770258*
X1838856Y1770137*
X1838126Y1769772*
X1837762Y1769650*
X1837397Y1769529*
X1836546*
X1835451Y1769650*
X1834965Y1769772*
X1834600Y1769893*
X1833748Y1770258*
X1833019Y1770866*
X1832776Y1771353*
X1832532Y1771718*
X1832167Y1772569*
X1831924Y1773663*
X1831802Y1774272*
Y1775488*
X1831924Y1776096*
X1832046Y1776704*
X1832167Y1777191*
X1832411Y1777677*
X1832654Y1778163*
X1832897Y1778528*
X1833262Y1778893*
X1850045Y1778163D02*
X1844572D01*
Y1776096*
X1849558*
Y1774272*
X1844572*
Y1771596*
X1850288*
Y1769772*
X1842505*
Y1779987*
X1850045*
Y1778163*
X1845059Y1784366D02*
X1845423Y1784974D01*
X1845667Y1785582*
X1845788Y1786190*
Y1787892*
X1845667Y1788622*
X1845423Y1789230*
X1845059Y1789717*
X1844694Y1790082*
X1844207Y1790446*
X1843964Y1790568*
X1843480Y1790672*
X1843113Y1790690*
X1842505Y1790568*
X1841896Y1790446*
X1841410Y1790082*
X1841045Y1789717*
X1840681Y1789230*
X1840437Y1788622*
X1840316Y1787892*
Y1786190*
X1840437Y1785582*
X1840681Y1784974*
X1841045Y1784366*
X1841410Y1784001*
X1841896Y1783758*
X1842505Y1783514*
X1843721*
X1844207Y1783758*
X1844694Y1784001*
X1845059Y1784366*
X1846630Y1783043D02*
X1846153Y1782542D01*
X1845788Y1782298*
X1845510Y1782133*
X1845059Y1781933*
X1844572Y1781812*
X1844086Y1781690*
X1842018*
X1841167Y1781933*
X1840750Y1782063*
X1840437Y1782298*
X1840072Y1782542*
X1839707Y1782906*
X1839343Y1783271*
X1839099Y1783636*
X1838735Y1784122*
X1838613Y1784609*
X1838248Y1785703*
X1838160Y1786612*
X1838126Y1787041*
X1838160Y1787802*
X1838248Y1788379*
X1838370Y1788987*
X1838613Y1789474*
X1838735Y1789960*
X1839140Y1790672*
X1839343Y1790933*
X1839707Y1791298*
X1840072Y1791541*
X1840437Y1791784*
X1840802Y1792027*
X1841167Y1792149*
X1841532Y1792271*
X1842018Y1792392*
X1842500Y1792562*
X1843113Y1792514*
X1844086Y1792392*
X1845059Y1792149*
X1845423Y1792027*
X1845788Y1791784*
X1846153Y1791541*
X1846396Y1791298*
X1846761Y1790933*
X1847126Y1790446*
X1847369Y1789960*
X1847613Y1789474*
X1847856Y1788379*
X1847977Y1787771*
Y1786433*
X1847856Y1785703*
X1847734Y1785217*
X1847613Y1784609*
X1847369Y1784122*
X1847126Y1783636*
X1846420Y1782833*
X1846350Y1782763*
X1778170Y1789474D02*
X1792034Y1781082D01*
X1778170Y1772812*
Y1789474*
X1778170*
X1792034Y1781082*
X1778170Y1772812*
Y1789474*
X1773427Y1792392D02*
X1795926D01*
Y1769893*
X1773427*
Y1792392*
X1795926*
Y1769893*
X1773427*
Y1792392*
X1853450Y1772934D02*
X1853572Y1772326D01*
X1853693Y1772082*
X1853815Y1771961*
X1854180Y1771596*
X1854545Y1771474*
X1855031Y1771353*
X1855639Y1771231*
X1856369Y1771353*
X1856855Y1771474*
X1857220Y1771596*
X1857463Y1771718*
X1857585Y1771839*
X1857707Y1772204*
Y1772812*
X1857585Y1773056*
X1857463Y1773299*
X1857342Y1773420*
X1857099Y1773542*
X1856734Y1773663*
X1855882Y1773907*
X1854788Y1774150*
X1853450Y1774515*
X1852964Y1774637*
X1852599Y1774880*
X1852356Y1775123*
X1852090Y1775343*
X1851991Y1775488*
X1851810Y1775903*
X1851747Y1776096*
X1851626Y1776461*
Y1777798*
X1851869Y1778407*
X1852112Y1778893*
X1852599Y1779379*
X1853140Y1779823*
X1853450Y1779987*
X1853815Y1780109*
X1854680Y1780313*
X1855518Y1780352*
X1856369Y1780231*
X1856977Y1780109*
X1857342Y1779987*
X1857707Y1779866*
X1858250Y1779613*
X1858801Y1779015*
X1859045Y1778650*
X1859166Y1778407*
X1859409Y1777677*
X1859510Y1777373*
X1859531Y1776947*
X1857463*
X1857342Y1777434*
X1857220Y1777798*
X1856977Y1778042*
X1856612Y1778285*
X1856369Y1778407*
X1856010Y1778493*
X1855396Y1778528*
X1855031*
X1854666Y1778407*
X1854058Y1778163*
X1853815Y1778042*
X1853693Y1777798*
X1853572Y1777555*
Y1776947*
X1853630Y1776743*
X1853815Y1776582*
X1854058Y1776461*
X1854545Y1776217*
X1855396Y1775974*
X1857099Y1775609*
X1857707Y1775488*
X1858180Y1775343*
X1858558Y1775123*
X1858923Y1774880*
X1859288Y1774515*
X1859409Y1774272*
X1859531Y1774028*
X1859774Y1773420*
Y1772082*
X1859720Y1771843*
X1859531Y1771474*
X1859370Y1771143*
X1859045Y1770745*
X1858740Y1770373*
X1858193Y1770015*
X1857828Y1769893*
X1857463Y1769772*
X1857099Y1769650*
X1856570Y1769533*
X1855761Y1769529*
X1854820Y1769533*
X1854301Y1769650*
X1853936Y1769772*
X1853572Y1769893*
X1853207Y1770015*
X1852599Y1770380*
X1852356Y1770623*
X1852112Y1770988*
X1851869Y1771231*
X1851747Y1771474*
X1851504Y1772204*
Y1772934*
X1853450*
X1856491Y1788987D02*
X1856247Y1789474D01*
X1856004Y1789838*
X1855639Y1790203*
X1855274Y1790446*
X1854666Y1790568*
X1854058Y1790690*
X1853450Y1790568*
X1852964Y1790446*
X1852477Y1790082*
X1852112Y1789717*
X1851747Y1789230*
X1851504Y1788501*
X1851383Y1787771*
X1851261Y1786920*
X1851383Y1786068*
X1851504Y1785339*
X1851626Y1784974*
X1851747Y1784731*
X1852112Y1784244*
X1852599Y1783879*
X1853085Y1783636*
X1853572Y1783514*
X1854545*
X1855031Y1783636*
X1855518Y1783879*
X1855882Y1784122*
X1856126Y1784366*
X1856369Y1784852*
X1856612Y1785217*
X1856734Y1785703*
X1854301*
Y1787406*
X1858558*
Y1781933*
X1857220*
X1856977Y1783271*
X1856369Y1782542*
X1855882Y1782177*
X1855396Y1781933*
X1854910Y1781812*
X1854301Y1781690*
X1853815*
X1852842Y1781812*
X1852356*
X1851869Y1782055*
X1851139Y1782420*
X1850410Y1783028*
X1850166Y1783393*
X1849801Y1783879*
X1849680Y1784244*
X1849437Y1784731*
X1849315Y1785217*
X1849194Y1785825*
X1849072Y1786312*
Y1787528*
X1849194Y1788136*
X1849640Y1789482*
X1849680Y1789595*
X1849923Y1790082*
X1850166Y1790568*
X1850410Y1790933*
X1850775Y1791298*
X1851139Y1791541*
X1851626Y1791784*
X1851991Y1792027*
X1852477Y1792149*
X1852964Y1792271*
X1854058Y1792392*
X1855031*
X1855396Y1792271*
X1855761Y1792149*
X1856612Y1791906*
X1857220Y1791419*
X1857707Y1790933*
X1857950Y1790568*
X1858071Y1790325*
X1858436Y1789717*
X1858558Y1788987*
X1856491*
X1773550Y1791825D02*
X1795550D01*
Y1790225D02*
X1773550D01*
X1795550Y1791025D02*
X1773550D01*
X1795550Y1789425D02*
X1773550D01*
X1795550Y1770625D02*
X1773550D01*
X1795550Y1771425D02*
X1773550D01*
X1795550Y1772225D02*
X1773550D01*
X1795550Y1773025D02*
X1773550D01*
X1773950D02*
Y1789425D01*
X1774750Y1773425D02*
Y1789825D01*
X1775550Y1773025D02*
Y1789425D01*
X1776350Y1773025D02*
Y1789425D01*
X1777150Y1773025D02*
Y1789425D01*
X1777550Y1773025D02*
Y1789425D01*
X1795550Y1773025D02*
Y1789425D01*
X1794750Y1773025D02*
Y1789425D01*
X1793950Y1773025D02*
Y1789425D01*
X1793150Y1773025D02*
Y1789425D01*
X1792350Y1773025D02*
Y1789425D01*
X1791950Y1773025D02*
Y1789425D01*
Y1781825D02*
X1779550Y1789425D01*
X1791950Y1782625D02*
X1780750Y1789425D01*
X1782350D02*
X1791950Y1783425D01*
X1781550Y1789425D02*
X1791950Y1783025D01*
Y1784225D02*
X1783550Y1789425D01*
X1784750D02*
X1791950Y1785025D01*
Y1785825D02*
X1785950Y1789425D01*
X1787150D02*
X1791950Y1786625D01*
Y1787425D02*
X1788750Y1789425D01*
X1787950D02*
X1792350Y1786625D01*
X1789950Y1789425D02*
X1792350Y1787825D01*
X1791950Y1788225D02*
X1791150Y1789425D01*
X1791950Y1780225D02*
X1779150Y1772625D01*
X1791950Y1779425D02*
X1780350Y1772625D01*
X1791950Y1778625D02*
X1781150Y1772225D01*
X1791950Y1777825D02*
X1782350Y1772225D01*
X1791950Y1777025D02*
X1784350Y1772625D01*
X1791950Y1776225D02*
X1785550Y1772625D01*
X1791950Y1775425D02*
X1787550Y1773025D01*
X1791950Y1774625D02*
X1788750Y1773025D01*
X1791950Y1773825D02*
X1789550Y1773025D01*
X1802950Y1792025D02*
X1799450Y1782025D01*
X1803550Y1791825D02*
X1800150Y1782125D01*
X1804250Y1791825D02*
X1807650Y1782025D01*
X1807050D02*
X1803650Y1791525D01*
X1803450Y1791025D02*
X1806450Y1782025D01*
X1805250Y1785325D02*
X1801450D01*
X1801350Y1784825D02*
X1805350D01*
X1805650Y1784425D02*
X1801050D01*
X1801650Y1785925D02*
X1802050Y1785625D01*
X1810250Y1791925D02*
Y1782025D01*
X1810850D02*
Y1791925D01*
X1816350Y1782125D02*
X1810650Y1791925D01*
X1811250D02*
X1817050Y1782125D01*
X1811150Y1790325D02*
X1811550Y1789125D01*
X1816550Y1791925D02*
Y1782025D01*
X1817150Y1782125D02*
Y1791825D01*
X1815750Y1785225D02*
X1816350Y1784225D01*
X1824550Y1792025D02*
X1828150Y1782125D01*
X1827450D02*
X1823850Y1791925D01*
X1823350Y1791825D02*
X1826950Y1782025D01*
X1823350Y1791725D02*
X1819850Y1782125D01*
X1821850Y1785425D02*
X1825650D01*
X1825750Y1784825D02*
X1821550D01*
Y1784425D02*
X1825950D01*
X1821950Y1784225D02*
X1821050Y1782125D01*
X1830650Y1791925D02*
Y1782025D01*
X1831250D02*
Y1791825D01*
X1831750Y1791925D02*
Y1782025D01*
X1831850Y1783225D02*
X1837150D01*
Y1782725D02*
X1831750D01*
X1831850Y1782325D02*
X1837150D01*
X1803750Y1790825D02*
X1800550Y1782125D01*
X1841450Y1791925D02*
X1844850D01*
X1840450Y1791525D02*
X1845750D01*
X1839650Y1791025D02*
X1846450Y1790925D01*
X1839250Y1790325D02*
X1841350D01*
X1840350Y1790225D02*
X1840250Y1782625D01*
X1839650Y1790125D02*
Y1783225D01*
X1839050Y1790025D02*
X1838950Y1784025D01*
X1838650Y1788625D02*
X1838550Y1786025D01*
X1845950Y1790725D02*
Y1782425D01*
X1844850Y1790525D02*
X1845750Y1789625D01*
X1845250Y1790725D02*
X1845650Y1790225D01*
X1846550Y1790725D02*
Y1783125D01*
X1847150Y1789825D02*
Y1784125D01*
X1847550Y1788225D02*
Y1786125D01*
X1840750Y1782225D02*
X1845350D01*
X1845750Y1782825D02*
X1840450D01*
Y1783425D02*
X1845750D01*
X1840450Y1784425D02*
X1841050Y1783625D01*
X1845650Y1784425D02*
X1845250Y1783725D01*
X1856250Y1791825D02*
X1852250D01*
X1851250Y1791325D02*
X1856950D01*
X1857650Y1790725D02*
X1850650D01*
X1856050Y1790125D02*
X1857950D01*
X1858250Y1789625D02*
X1856350D01*
X1856550Y1789325D02*
X1858150D01*
X1851150Y1790625D02*
Y1782625D01*
X1850450Y1783225D02*
Y1790525D01*
X1849850Y1789325D02*
Y1784425D01*
X1849550Y1787825D02*
Y1786125D01*
X1852350Y1790525D02*
X1851450Y1789725D01*
X1851850Y1790525D02*
X1851450Y1789925D01*
X1851550Y1782425D02*
X1855550Y1782325D01*
X1851250Y1783025D02*
X1858250D01*
X1851350Y1783825D02*
X1852050Y1783325D01*
X1851450Y1784525D02*
X1852550Y1783325D01*
X1855650Y1783625D02*
X1858350D01*
X1857950Y1782225D02*
Y1787025D01*
X1857350Y1787125D02*
Y1782425D01*
X1856850Y1783525D02*
Y1787025D01*
X1857150Y1785025D02*
X1856250Y1783825D01*
X1854650Y1786325D02*
X1856650D01*
Y1786825D02*
X1854550D01*
X1799950Y1779725D02*
Y1770025D01*
X1800650D02*
Y1779625D01*
Y1778825D02*
X1806250D01*
X1800750Y1779425D02*
X1805250D01*
X1800850Y1771125D02*
X1806250D01*
X1800850Y1770425D02*
X1805250D01*
X1805050Y1770525D02*
X1806750Y1772025D01*
X1804650Y1771725D02*
X1806150D01*
X1805850Y1778625D02*
Y1771725D01*
X1806350Y1771825D02*
Y1778525D01*
X1806950Y1777925D02*
X1806850Y1772125D01*
X1807250Y1772925D02*
Y1776225D01*
X1805050Y1771825D02*
X1805650Y1772625D01*
X1805550Y1777625D02*
X1804550Y1778625D01*
X1804850D02*
X1805750Y1778225D01*
X1810150Y1779725D02*
Y1769925D01*
X1810850Y1770025D02*
Y1779725D01*
Y1779325D02*
X1816650D01*
X1816750Y1778725D02*
X1811050D01*
X1810950Y1775525D02*
X1816250D01*
Y1774925D02*
X1810650D01*
X1810850Y1770925D02*
X1816950D01*
X1817050Y1770325D02*
X1811050D01*
X1822150Y1770025D02*
X1818750Y1779725D01*
X1819350D02*
X1822750Y1769925D01*
X1819950Y1779825D02*
X1822750Y1770025D01*
X1825450Y1779625D02*
X1822350Y1770425D01*
X1826150Y1779725D02*
X1822850Y1770125D01*
X1826650Y1779725D02*
X1823350Y1770125D01*
X1828750Y1779725D02*
Y1770025D01*
X1829350D02*
Y1779725D01*
X1829750D02*
Y1770025D01*
X1835050Y1779625D02*
X1838250D01*
X1839250Y1779125D02*
X1833750D01*
X1833150Y1778625D02*
X1839850D01*
X1838150Y1778025D02*
X1840250D01*
X1838650Y1777525D02*
X1840450D01*
X1840650Y1777025D02*
X1838950D01*
X1834850Y1778325D02*
X1833950Y1777525D01*
X1833750Y1778325D02*
X1833650Y1770625D01*
X1833050Y1771025D02*
X1833150Y1778425D01*
X1832450Y1777525D02*
Y1772525D01*
X1833650Y1772725D02*
X1834850Y1771125D01*
X1833850D02*
X1839650Y1771025D01*
X1839150Y1770325D02*
X1833950Y1770525D01*
X1835150Y1770125D02*
X1837750Y1770025D01*
X1839050Y1773125D02*
X1838350Y1771125D01*
X1839750Y1773025D02*
X1838750Y1771125D01*
X1840450Y1773025D02*
X1839350Y1771225D01*
X1843150Y1779725D02*
Y1770025D01*
X1843850D02*
Y1779825D01*
X1844250D02*
Y1769825D01*
X1849850Y1779325D02*
X1844350D01*
X1844250Y1778725D02*
X1849850D01*
X1849350Y1775425D02*
X1844250D01*
X1844150Y1774825D02*
X1849350D01*
X1850050Y1770925D02*
X1844250D01*
X1850150Y1770325D02*
X1844350D01*
X1857650Y1779625D02*
X1853150D01*
X1852350Y1779025D02*
X1858450D01*
X1858850Y1778625D02*
X1852150D01*
X1859050Y1778125D02*
X1857250D01*
X1857550Y1777525D02*
X1859150D01*
X1852250Y1778325D02*
Y1775625D01*
X1852850Y1778425D02*
Y1774925D01*
X1853350Y1778525D02*
Y1774625D01*
Y1776025D02*
X1858850Y1774525D01*
X1853450Y1775325D02*
X1859350Y1773725D01*
X1856850Y1773925D02*
X1859550Y1773125D01*
X1859050D02*
X1859250Y1771425D01*
X1858550Y1773225D02*
X1858650Y1770625D01*
X1858150Y1773425D02*
X1858050Y1770225D01*
X1857850Y1771025D02*
X1852250D01*
X1852950Y1770425D02*
X1857750D01*
X1857550Y1770025D02*
X1854250D01*
X1851850Y1772625D02*
X1852450Y1771425D01*
Y1772625D02*
X1853150Y1771325D01*
X1852950Y1772625D02*
X1853650Y1771325D01*
X1856750Y1774125D02*
X1853550Y1774925D01*
X1856450Y1783325D02*
X1855450Y1782525D01*
X1841050Y1790725D02*
X1840450Y1789625D01*
X1773750Y1790825D02*
X1795350Y1790625D01*
X1793650Y1789525D02*
X1793550Y1772425D01*
X1795050Y1772225D02*
X1795150Y1789325D01*
X1794650Y1772625D02*
X1773750D01*
X1786950Y1776225D02*
X1781550Y1772925D01*
X1776650Y1772425D02*
X1776750Y1789925D01*
X1775250Y1789825D02*
X1775050Y1772825D01*
X1823650Y1790625D02*
X1820550Y1782225D01*
G54D45*
G54D104*
X1938876Y1788895D02*
X1941630Y1785637D01*
X1938876Y1788895D02*
X1939892Y1789753D01*
X1940361Y1789884*
X1940605Y1789824*
X1940980Y1789609*
X1941243Y1789299*
X1941392Y1788894*
X1941410Y1788643*
X1941203Y1788202*
X1940187Y1787344*
X1940977Y1788011D02*
X1943209Y1786972D01*
X1944238Y1790368D02*
X1944033Y1790074D01*
X1943900Y1789589*
X1943978Y1788967*
X1944121Y1788587*
X1944475Y1788069*
X1944895Y1787794*
X1945243Y1787708*
X1945657Y1787865*
X1945862Y1788159*
X1945995Y1788644*
X1945918Y1789266*
X1945774Y1789646*
X1945420Y1790164*
X1945000Y1790439*
X1944652Y1790525*
X1944238Y1790368*
X1948615Y1792275D02*
X1947440Y1788175D01*
X1950603Y1791705D02*
X1949428Y1787605D01*
X1948055Y1790323D02*
X1950043Y1789753D01*
X1954202Y1789203D02*
X1954176Y1789705D01*
X1953916Y1790117*
X1953421Y1790440*
X1952939Y1790512*
X1952469Y1790333*
X1952247Y1789992*
X1952149Y1789571*
X1952162Y1789321*
X1952299Y1788989*
X1952819Y1788165*
X1952956Y1787833*
X1952969Y1787582*
X1952871Y1787161*
X1952538Y1786651*
X1952069Y1786472*
X1951586Y1786544*
X1951091Y1786866*
X1950831Y1787279*
X1950805Y1787780*
X1954024Y1778363D02*
X1957277Y1777204D01*
X1957901Y1777139*
X1958191Y1777349*
X1958290Y1777628*
X1955215Y1777468D02*
X1955562Y1778442D01*
X1949277Y1773701D02*
X1949479Y1773552D01*
X1949558Y1773790*
X1949356Y1773939*
X1949277Y1773701*
X1949847Y1772390D02*
X1950707Y1769679D01*
X1952421Y1773959D02*
X1953834Y1771492D01*
X1952724Y1773431D02*
X1952265Y1773636D01*
X1951908Y1773666*
X1951524Y1773446*
X1951368Y1773122*
X1951314Y1772623*
X1951488Y1772021*
X1951690Y1771668*
X1952121Y1771213*
X1952579Y1771007*
X1952937Y1770978*
X1953321Y1771198*
X1953477Y1771521*
X1953531Y1772021*
X1953255Y1775107D02*
X1955314Y1773146D01*
X1953843Y1774547D02*
X1953708Y1775288D01*
X1953764Y1775642*
X1954070Y1775963*
X1954421Y1776037*
X1954964Y1775723*
X1956435Y1774323*
X1944856Y1773349D02*
X1943731Y1769235D01*
X1944696Y1772762D02*
X1945088Y1773076D01*
X1945426Y1773194*
X1945854Y1773077*
X1946085Y1772803*
X1946263Y1772333*
X1946245Y1771706*
X1946138Y1771314*
X1945834Y1770766*
X1945442Y1770452*
X1945103Y1770334*
X1944676Y1770451*
X1944445Y1770724*
X1944267Y1771194*
X1940247Y1775294D02*
X1938669Y1772928D01*
X1939796Y1774618D02*
X1940503Y1774879D01*
X1940861Y1774884*
X1941230Y1774638*
X1941363Y1774305*
X1941148Y1773716*
X1940021Y1772026*
X1941148Y1773716D02*
X1941855Y1773977D01*
X1942213Y1773982*
X1942582Y1773736*
X1942715Y1773403*
X1942500Y1772815*
X1941373Y1771125*
X1939337Y1777233D02*
X1939031Y1777420D01*
X1938540Y1777526*
X1937923Y1777414*
X1937552Y1777250*
X1937055Y1776868*
X1936803Y1776433*
X1936737Y1776080*
X1936916Y1775675*
X1937222Y1775487*
X1937713Y1775382*
X1938330Y1775494*
X1938701Y1775658*
X1939199Y1776040*
X1939450Y1776475*
X1939516Y1776827*
X1939337Y1777233*
X1947737Y1773369D02*
X1948160Y1769124D01*
X1938935Y1779581D02*
X1939282Y1779838D01*
X1939587Y1780238*
X1939697Y1780579*
X1939528Y1781145*
X1939249Y1781370*
X1938776Y1781537*
X1938344Y1781563*
X1937718Y1781530*
X1936745Y1781240*
X1936203Y1780924*
X1935856Y1780667*
X1935551Y1780268*
X1935440Y1779926*
X1935609Y1779360*
X1935888Y1779135*
X1936362Y1778968*
X1936794Y1778942*
G74*
X0Y0D02*
M02*
